<svg xmlns="http://www.w3.org/2000/svg" width="223.111" height="223.111" viewBox="0 0 223.111 223.111">
  <g id="Grupo_33304" data-name="Grupo 33304" transform="translate(-233 -3253)">
    <path id="Trazado_27136" data-name="Trazado 27136" d="M580.452,518.333A111.556,111.556,0,1,0,441.786,626.564V590.333l-32-1.777-4.445-39.112H388.9l15.555-44.888s-4.944-61.7,54.223-72c59.555-10.371,76,45.333,76,45.333s12,34.963-18.667,87.111l8.565,50.021A111.511,111.511,0,0,0,580.452,518.333Z" transform="translate(-124.341 2846.222)" fill="#c35af6"/>
    <path id="Trazado_27147" data-name="Trazado 27147" d="M534.675,477.889s-16.445-55.7-76-45.333c-59.167,10.3-54.223,72-54.223,72L388.9,549.444h16.444l4.445,39.112,32,1.777v36.231a111.84,111.84,0,0,0,82.787-11.543L516.008,565C546.675,512.852,534.675,477.889,534.675,477.889Z" transform="translate(-124.341 2846.222)" fill="#fff"/>
    <path id="Trazado_27150" data-name="Trazado 27150" d="M472.5,497.6q-.507.563-1.047,1.093.538.531,1.047,1.092.507-.562,1.047-1.092Q473.005,498.161,472.5,497.6Z" transform="translate(-124.341 2846.222)" fill="none"/>
    <path id="Trazado_27151" data-name="Trazado 27151" d="M472.5,499.784q-.507-.562-1.047-1.092a24.938,24.938,0,0,1-35,0A24.949,24.949,0,1,0,472.5,533.165a24.943,24.943,0,0,1,0-33.381Z" transform="translate(-124.341 2846.222)" fill="#d9d8d7"/>
    <path id="Trazado_27148" data-name="Trazado 27148" d="M508.539,498.692a24.938,24.938,0,0,1-34.995,0q-.539.531-1.047,1.092a24.943,24.943,0,0,1,0,33.381,24.949,24.949,0,1,0,36.042-34.473Z" transform="translate(-124.341 2846.222)" fill="#f67c5a"/>
    <ellipse id="Elipse_1127" data-name="Elipse 1127" cx="6.407" cy="16.69" rx="6.407" ry="16.69" transform="translate(341.75 3346.006)" fill="#434b53"/>
    <path id="Trazado_27152" data-name="Trazado 27152" d="M471.45,498.692q.538-.531,1.047-1.093a24.942,24.942,0,0,1,0-33.38,24.949,24.949,0,1,0-36.042,34.473,24.938,24.938,0,0,1,35,0Z" transform="translate(-124.341 2846.222)" fill="#ffdb82"/>
    <ellipse id="Elipse_1129" data-name="Elipse 1129" cx="17.497" cy="7.169" rx="17.497" ry="7.169" transform="translate(312.114 3337.745)" fill="#434b53"/>
    <path id="Trazado_27149" data-name="Trazado 27149" d="M472.5,497.6q.507.563,1.047,1.093a24.938,24.938,0,0,1,34.995,0A24.949,24.949,0,1,0,472.5,464.219a24.942,24.942,0,0,1,0,33.38Z" transform="translate(-124.341 2846.222)" fill="#93deea"/>
    <ellipse id="Elipse_1126" data-name="Elipse 1126" cx="17.497" cy="7.169" rx="17.497" ry="7.169" transform="translate(349.204 3337.745)" fill="#434b53"/>
    <ellipse id="Elipse_1128" data-name="Elipse 1128" cx="6.407" cy="16.69" rx="6.407" ry="16.69" transform="translate(341.75 3310.441)" fill="#434b53"/>
  </g>
</svg>
