<svg xmlns="http://www.w3.org/2000/svg" width="223.111" height="223.111" viewBox="0 0 223.111 223.111">
  <g id="Grupo_33305" data-name="Grupo 33305" transform="translate(-488 -3253)">
    <path id="Trazado_27125" data-name="Trazado 27125" d="M580.452,518.333A111.556,111.556,0,1,0,441.786,626.564V590.333l-32-1.777-4.445-39.112H388.9l15.555-44.888s-4.944-61.7,54.223-72c59.555-10.371,76,45.333,76,45.333s12,34.963-18.667,87.111l8.565,50.021A111.511,111.511,0,0,0,580.452,518.333Z" transform="translate(130.659 2846.222)" fill="#f65a5a"/>
    <path id="Trazado_27126" data-name="Trazado 27126" d="M580.452,518.333A111.556,111.556,0,1,0,441.786,626.564V590.333l-32-1.777-4.445-39.112H388.9l15.555-44.888s-4.944-61.7,54.223-72c59.555-10.371,76,45.333,76,45.333s12,34.963-18.667,87.111l8.565,50.021A111.511,111.511,0,0,0,580.452,518.333Z" transform="translate(130.659 2846.222)" fill="#f65ab8"/>
    <path id="Trazado_27127" data-name="Trazado 27127" d="M534.675,477.889s-16.445-55.7-76-45.333c-59.167,10.3-54.223,72-54.223,72L388.9,549.444h16.444l4.445,39.112,32,1.777v36.231a111.84,111.84,0,0,0,82.787-11.543L516.008,565C546.675,512.852,534.675,477.889,534.675,477.889Z" transform="translate(130.659 2846.222)" fill="#fff"/>
    <path id="Trazado_27128" data-name="Trazado 27128" d="M534.675,477.889s-16.445-55.7-76-45.333c-59.167,10.3-54.223,72-54.223,72L388.9,549.444h16.444l4.445,39.112,32,1.777v36.231a111.84,111.84,0,0,0,82.787-11.543L516.008,565C546.675,512.852,534.675,477.889,534.675,477.889Z" transform="translate(130.659 2846.222)" fill="#fff"/>
    <path id="Trazado_27137" data-name="Trazado 27137" d="M472.5,497.6q-.507.563-1.047,1.093.538.531,1.047,1.092.507-.562,1.047-1.092Q473.005,498.161,472.5,497.6Z" transform="translate(130.659 2846.222)" fill="none"/>
    <path id="Trazado_27138" data-name="Trazado 27138" d="M472.5,497.6q-.507.563-1.047,1.093.538.531,1.047,1.092.507-.562,1.047-1.092Q473.005,498.161,472.5,497.6Z" transform="translate(130.659 2846.222)" fill="none"/>
    <path id="Trazado_27129" data-name="Trazado 27129" d="M472.5,499.784q-.507-.562-1.047-1.092a24.938,24.938,0,0,1-35,0A24.949,24.949,0,1,0,472.5,533.165a24.943,24.943,0,0,1,0-33.381Z" transform="translate(130.659 2846.222)" fill="#d9d8d7"/>
    <path id="Trazado_27130" data-name="Trazado 27130" d="M472.5,499.784q-.507-.562-1.047-1.092a24.938,24.938,0,0,1-35,0A24.949,24.949,0,1,0,472.5,533.165a24.943,24.943,0,0,1,0-33.381Z" transform="translate(130.659 2846.222)" fill="#d9d8d7"/>
    <path id="Trazado_27133" data-name="Trazado 27133" d="M508.539,498.692a24.938,24.938,0,0,1-34.995,0q-.539.531-1.047,1.092a24.943,24.943,0,0,1,0,33.381,24.949,24.949,0,1,0,36.042-34.473Z" transform="translate(130.659 2846.222)" fill="#f67c5a"/>
    <path id="Trazado_27134" data-name="Trazado 27134" d="M508.539,498.692a24.938,24.938,0,0,1-34.995,0q-.539.531-1.047,1.092a24.943,24.943,0,0,1,0,33.381,24.949,24.949,0,1,0,36.042-34.473Z" transform="translate(130.659 2846.222)" fill="#f67c5a"/>
    <ellipse id="Elipse_1113" data-name="Elipse 1113" cx="6.407" cy="16.69" rx="6.407" ry="16.69" transform="translate(596.75 3346.006)" fill="#434b53"/>
    <ellipse id="Elipse_1114" data-name="Elipse 1114" cx="6.407" cy="16.69" rx="6.407" ry="16.69" transform="translate(596.75 3346.006)" fill="#434b53"/>
    <path id="Trazado_27140" data-name="Trazado 27140" d="M471.45,498.692q.538-.531,1.047-1.093a24.942,24.942,0,0,1,0-33.38,24.949,24.949,0,1,0-36.042,34.473,24.938,24.938,0,0,1,35,0Z" transform="translate(130.659 2846.222)" fill="#ffdb82"/>
    <path id="Trazado_27141" data-name="Trazado 27141" d="M471.45,498.692q.538-.531,1.047-1.093a24.942,24.942,0,0,1,0-33.38,24.949,24.949,0,1,0-36.042,34.473,24.938,24.938,0,0,1,35,0Z" transform="translate(130.659 2846.222)" fill="#ffdb82"/>
    <ellipse id="Elipse_1116" data-name="Elipse 1116" cx="17.497" cy="7.169" rx="17.497" ry="7.169" transform="translate(567.114 3337.745)" fill="#434b53"/>
    <ellipse id="Elipse_1117" data-name="Elipse 1117" cx="17.497" cy="7.169" rx="17.497" ry="7.169" transform="translate(567.114 3337.745)" fill="#434b53"/>
    <path id="Trazado_27144" data-name="Trazado 27144" d="M472.5,497.6q.507.563,1.047,1.093a24.938,24.938,0,0,1,34.995,0A24.949,24.949,0,1,0,472.5,464.219a24.942,24.942,0,0,1,0,33.38Z" transform="translate(130.659 2846.222)" fill="#93deea"/>
    <path id="Trazado_27145" data-name="Trazado 27145" d="M472.5,497.6q.507.563,1.047,1.093a24.938,24.938,0,0,1,34.995,0A24.949,24.949,0,1,0,472.5,464.219a24.942,24.942,0,0,1,0,33.38Z" transform="translate(130.659 2846.222)" fill="#93deea"/>
    <ellipse id="Elipse_1120" data-name="Elipse 1120" cx="17.497" cy="7.169" rx="17.497" ry="7.169" transform="translate(604.204 3337.745)" fill="#434b53"/>
    <ellipse id="Elipse_1121" data-name="Elipse 1121" cx="17.497" cy="7.169" rx="17.497" ry="7.169" transform="translate(604.204 3337.745)" fill="#434b53"/>
    <ellipse id="Elipse_1123" data-name="Elipse 1123" cx="6.407" cy="16.69" rx="6.407" ry="16.69" transform="translate(596.75 3310.441)" fill="#434b53"/>
    <ellipse id="Elipse_1124" data-name="Elipse 1124" cx="6.407" cy="16.69" rx="6.407" ry="16.69" transform="translate(596.75 3310.441)" fill="#434b53"/>
  </g>
</svg>
