<svg xmlns="http://www.w3.org/2000/svg" width="750" height="500" viewBox="0 0 750 500">
  <defs>
    <style>
      .cls-1 {
        fill: #fff;
      }

      .cls-2 {
        fill: #298198;
      }

      .cls-3 {
        fill: #c6cbcc;
      }

      .cls-4 {
        fill: #ffae6a;
      }

      .cls-5 {
        fill: #f07555;
      }

      .cls-6 {
        fill: #bc4e39;
      }

      .cls-7 {
        fill: #34193d;
      }

      .cls-8 {
        fill: #5f3c66;
      }

      .cls-9 {
        fill: #62cac0;
      }

      .cls-10 {
        fill: #47a095;
      }

      .cls-11 {
        fill: #e4e9ea;
      }

      .cls-12 {
        fill: #2f3f4f;
      }

      .cls-13 {
        fill: #1b6475;
      }

      .cls-14 {
        fill: #dda21f;
      }

      .cls-15 {
        fill: #43827c;
      }

      .cls-16 {
        fill: #ffc529;
      }
    </style>
  </defs>
  <g id="BACKGROUND">
    <rect class="cls-1" x="125" width="500" height="500"/>
  </g>
  <g id="OBJECTS">
    <g>
      <path class="cls-2" d="M692.29,442.6c0,10.52-142,19.06-317.29,19.06S57.71,453.12,57.71,442.6,199.77,423.53,375,423.53,692.29,432.07,692.29,442.6Z"/>
      <path class="cls-3" d="M453.8,379.43a11.1,11.1,0,0,1,8.44,3.87H468V355.61a7.56,7.56,0,0,0-7.56-7.56H432.73v-3.23a11.16,11.16,0,1,0-14.55,0v3.23H390.49a7.56,7.56,0,0,0-7.56,7.56V383.3h-4.61a11.15,11.15,0,1,0,0,14.56h4.61v27.69a7.56,7.56,0,0,0,7.56,7.56h27.69v-4.8a11.16,11.16,0,1,1,14.55,0v4.8h27.69a7.56,7.56,0,0,0,7.56-7.56V397.86h-5.74a11.15,11.15,0,1,1-8.44-18.43Z"/>
      <g>
        <path class="cls-3" d="M563.15,392.42a5,5,0,0,1-5.95,3.83L551.33,395a5,5,0,0,1-3.82-5.94L574.92,263a5,5,0,0,1,5.94-3.82l5.87,1.27a5,5,0,0,1,3.82,5.95Z"/>
        <path class="cls-3" d="M609.82,140.08a67,67,0,1,0,51.24,79.71A67,67,0,0,0,609.82,140.08ZM584.43,256.85a52.5,52.5,0,1,1,62.46-40.14A52.49,52.49,0,0,1,584.43,256.85Z"/>
      </g>
      <g>
        <rect class="cls-3" x="184.71" y="91.26" width="16" height="345" rx="5"/>
        <rect class="cls-3" x="250.71" y="91.26" width="16" height="345" rx="5"/>
        <g>
          <rect class="cls-3" x="190.21" y="118.76" width="68.5" height="16" rx="5"/>
          <rect class="cls-3" x="190.21" y="160.1" width="68.5" height="16" rx="5"/>
          <rect class="cls-3" x="190.21" y="201.43" width="68.5" height="16" rx="5"/>
          <rect class="cls-3" x="190.21" y="242.76" width="68.5" height="16" rx="5"/>
          <rect class="cls-3" x="190.21" y="284.1" width="68.5" height="16" rx="5"/>
          <rect class="cls-3" x="190.21" y="325.43" width="68.5" height="16" rx="5"/>
          <rect class="cls-3" x="190.21" y="366.76" width="68.5" height="16" rx="5"/>
        </g>
      </g>
      <g>
        <rect class="cls-4" x="277.71" y="244.85" width="118" height="202.17"/>
        <path class="cls-4" d="M327.5,268.51s-2,39.68,21.46,51.43,79.77,33.61,93.13,21.86,5.27-24.7,2-27.94c1.21-7.29,10.93-5.67,7.29-16.6,8.09-4.86,6.47-14.17,4.45-19s6.88-9.72,13.77-15,10.53-8.9,0-21.05S451.81,213,455.05,203.72s10.6-10,2-34.82C443.38,129.35,300.44,76.49,256.71,136s16.93,132.5,21.39,139v72.89Z"/>
        <path class="cls-5" d="M368.69,121.45c54,12.58,93.1,42.57,87.41,67s-54.06,34-108,21.46-93.1-42.57-87.4-67S314.72,108.88,368.69,121.45Z"/>
        <path class="cls-5" d="M278.1,275C298.21,307.6,330,309.1,395.71,339.35v24S319.46,343.6,278.1,275Z"/>
        <path class="cls-6" d="M303.45,190.08l25.24,6.5,3.19-12.42A39.82,39.82,0,0,0,346.46,180l9,8.83,18.24-18.61-9.16-9a39.75,39.75,0,0,0,3.67-14.71l12.17-3.39-7-25.11-12.35,3.45a39.87,39.87,0,0,0-10.91-10.53l3.14-12.24L328,92.2l-3.19,12.42a40.51,40.51,0,0,0-7.21,1.31,39.82,39.82,0,0,0-7.37,2.86l-9-8.83L283,118.57l9.16,9a39.85,39.85,0,0,0-3.67,14.71l-12.17,3.4,7,25.1,12.35-3.44a39.84,39.84,0,0,0,10.91,10.52Zm4.5-40a21.19,21.19,0,1,1,26.11,14.72A21.2,21.2,0,0,1,308,150.08Z"/>
        <path class="cls-1" d="M372.48,187l5.55-5.8-12-11.44-5.62,5.89a24.81,24.81,0,0,0-4.4-1.51,25.13,25.13,0,0,0-5-.71l-2.25-7.69-15.88,4.64,2.28,7.82a25.2,25.2,0,0,0-6.6,7l-7.79-1.9-3.93,16.07,7.91,1.93c.07.66.16,1.31.28,2q7.31,2.57,15.14,4.71a13.45,13.45,0,1,1,14.47,3.41c5.28,1.07,10.5,1.92,15.61,2.57.39-.53.78-1.07,1.14-1.63l7.79,1.9,3.92-16.07-7.91-1.93A25.12,25.12,0,0,0,372.48,187Z"/>
        <path class="cls-7" d="M317.67,173.22l7.08-.7-1.44-14.61-7.19.71a22.57,22.57,0,0,0-5-6.91l2.94-6.49-13.38-6.05-3,6.57a22.72,22.72,0,0,0-8.5.91L285,140.87l-11.93,8.55,4.21,5.87a22.62,22.62,0,0,0-3.47,7.81l-7.08.7.21,2.14c6.3,8.67,16.66,17.19,30,24.66a23,23,0,0,0,5.42-.93l4.14,5.79,11.94-8.56L314.2,181a23.31,23.31,0,0,0,2-3.59A22.34,22.34,0,0,0,317.67,173.22Zm-11-.13a11.94,11.94,0,1,1-5.95-15.81A11.94,11.94,0,0,1,306.63,173.09Z"/>
        <g>
          <path class="cls-7" d="M426.05,166l-34.38,24.72,4.76,24.68c14.79-.22,27.84-2.44,38-6.42-3.38-16.61-6.53-33.34-8.36-43.27l-1.71.05Z"/>
          <path class="cls-8" d="M357.13,156.1c-2.08,7.21-10.38,36.13-14.12,52.57q2.5.65,5.06,1.24a209.4,209.4,0,0,0,39,5.39l4.63-24.57L426.05,166Z"/>
          <path class="cls-4" d="M472.2,167.77s5.49,1.92,9.95,0,4.72,2.67.24,4.27,10.6,4.56,8.48,7.94c-2.33,3.73-4.65,3.62-13.57-.57s-12.77-6.5-12.77-6.5Z"/>
          <path class="cls-9" d="M467,174.85a7,7,0,0,1-3.47-.92c-44.66-25.49-55.42-70.86-55.85-72.78a7,7,0,0,1,5.27-8.38c3.76-.85,10.44,5.65,11.3,9.41h0c.1.41,7.06,37.24,46.22,59.59A7,7,0,0,1,467,174.85Z"/>
          <path class="cls-4" d="M452.32,192.93s5.14,2.73,9.84,1.48,4.26,3.36-.41,4.27,9.78,6.11,7.18,9.13c-2.88,3.33-5.15,2.87-13.33-2.63S444,196.82,444,196.82Z"/>
          <path class="cls-10" d="M471.83,162.83c-3.95,14.88-27.32-2.71-37.78-20.32s-10.17-38.83-10.17-38.83l-10,4.33-2.29,5.23c6.21,15.67,20.87,43,51.9,60.69a7,7,0,0,0,8.34-11.1Z"/>
          <path class="cls-7" d="M413.52,39.25S405.23,36.9,403,44.86,399.74,59.2,401.87,64c7.39-.67,11.32-7.06,11.32-7.06Z"/>
          <path class="cls-9" d="M401.91,84.44S388,86.83,379.8,95.64s-23.9,64.24-23.9,64.24,21.75,17.78,70.15,6.13c4.18-28.83,2.47-59.94-5-69.5s-10.33-10.57-10.33-10.57Z"/>
          <ellipse class="cls-10" cx="405.21" cy="89.27" rx="7.33" ry="4.92"/>
          <path class="cls-4" d="M409.38,90.49a4.56,4.56,0,0,1-5.82,2.78h0a4.56,4.56,0,0,1-2.78-5.81L408,66.89a4.56,4.56,0,0,1,5.81-2.78h0a4.56,4.56,0,0,1,2.79,5.81Z"/>
          <path class="cls-5" d="M413.84,64.11A4.56,4.56,0,0,0,408,66.89l-2.33,6.63a11.16,11.16,0,0,0,5.41,3.75l2.56.81.07,0,2.89-8.18A4.56,4.56,0,0,0,413.84,64.11Z"/>
          <rect class="cls-4" x="399.29" y="46.65" width="33.91" height="25.1" rx="11.2" transform="translate(234.01 438.08) rotate(-72.41)"/>
          <path class="cls-7" d="M406.46,57.63c6.73,0,1.57-9.3,5.38-11.21s10,13.67,22.74,11.32c-2.12-1,2.47-9.3-5.82-15.91-8.68-6.92-17.74-2.23-21.29,2.69A12,12,0,0,0,406.46,57.63Z"/>
          <path class="cls-4" d="M408.7,55.75a4.06,4.06,0,1,1-4.06-4.06A4.06,4.06,0,0,1,408.7,55.75Z"/>
          <path class="cls-9" d="M450,200.35a7,7,0,0,1-2.87-.62c-25-11.27-44.55-32-56.42-60.06a139.56,139.56,0,0,1-10.43-39.26,7,7,0,0,1,13.95-1.14c.07.8,6,64,58.64,87.69A7,7,0,0,1,450,200.35Z"/>
          <path class="cls-10" d="M452.83,187c-1.38-.62-2.72-1.27-4-1.94l-.09.16c6,7.17-15.2,8.95-36.66-16.17-22.5-26.33-35-60.61-29-74.81-1.9,1.39-2.58,9.8-2.38,12.31.06.74,1.09,12.2,10,33.16,11.87,28,31.37,48.79,56.42,60.06A7,7,0,1,0,452.83,187Z"/>
        </g>
      </g>
      <g>
        <path class="cls-4" d="M471,397.84c.14,11.66,3.81,17.62,13.73,24.82,63.65,46.23,163.92-4.67,169.94-78.29,1.46-17.83-.69-37.5-17-43.91Z"/>
        <path class="cls-5" d="M537.79,320.58c47.87-27.92,96.92-33,109.55-11.32S631.42,371.12,583.55,399,486.64,432,474,410.35,489.93,348.49,537.79,320.58Z"/>
      </g>
      <g>
        <path class="cls-11" d="M619.8,430.51s1.75,16.5-2,16.5H588.05c-6.75,0-1.5-8.5,6.75-8.5s9.75-4.75,9.75-4.75Z"/>
        <path class="cls-1" d="M602.55,430.51s1.75,16.5-2,16.5H570.8c-6.75,0-9.75-8.5,6.75-8.5,8.25,0,9.75-4.75,9.75-4.75Z"/>
        <polygon class="cls-7" points="624.22 323.93 624.05 436.76 607.38 436.76 593.9 302.46 624.22 323.93"/>
        <path class="cls-12" d="M636.89,323.93s.16,27.33-25.84,31v81.83h-36l1.87-109.67Z"/>
        <path class="cls-2" d="M589.55,264.37a47.2,47.2,0,0,1-21.83-5.11c-11.89-6.18-20.38-17.49-25.23-33.62a6.5,6.5,0,0,1,12.45-3.75c3.8,12.64,10.12,21.33,18.77,25.83,12.63,6.57,26.64,2.23,26.77,2.19a6.5,6.5,0,1,1,4.09,12.34A52,52,0,0,1,589.55,264.37Z"/>
        <path class="cls-13" d="M608.7,254a6.51,6.51,0,0,0-4.84-4.31c.7,2.87.06-.67-7.31,1.08-.4.1-5.58,11.75-13,11.75-5.66,0-31.63-5.62-38.06-38.26-.59-3,.7-6,3.54-7a6.36,6.36,0,0,0-2.19.26,6.49,6.49,0,0,0-4.35,8.1c4.85,16.13,13.34,27.44,25.23,33.62a47.2,47.2,0,0,0,21.83,5.11,52,52,0,0,0,15-2.12A6.52,6.52,0,0,0,608.7,254Z"/>
        <path class="cls-2" d="M611.11,239s11.84,4.74,15.26,23.41,10.52,61.54,10.52,61.54-23.67,17.89-60,3.16C581.92,299,586.92,254.5,611.11,239Z"/>
        <path class="cls-5" d="M535.56,275l21.18-15.19-7.47-10.42A40.44,40.44,0,0,0,552.9,243a39.57,39.57,0,0,0,2.53-7.49L568,234.25l-2.55-25.94-12.77,1.26a39.94,39.94,0,0,0-8.92-12.26l5.21-11.5-23.74-10.75-5.29,11.67a39.86,39.86,0,0,0-15.08,1.61l-7.36-10.27-21.18,15.19,7.47,10.42a40,40,0,0,0-6.16,13.86l-12.56,1.24,2.55,25.93,12.77-1.26a39.87,39.87,0,0,0,8.92,12.27l-5.21,11.5L507.83,278l5.29-11.67a40.06,40.06,0,0,0,15.08-1.61Zm-27.78-29.14a21.19,21.19,0,1,1,28.05-10.56A21.2,21.2,0,0,1,507.78,245.82Z"/>
        <path class="cls-4" d="M535.91,271.07s-9.1-6.7-12.5-10.18c-4-4.13-5-2.16-3.57,2.38s-10-5.72-11.44-2c-1.57,4.11-.08,5.89,8.63,10.49s12.88,6.28,12.88,6.28Z"/>
        <path class="cls-2" d="M578.37,299.38c-10.87,0-39.21-11.44-49.71-20.06a6.5,6.5,0,0,1,8.25-10.05c9,7.38,33.82,16.74,41.05,17.1,4.44-1.83,17.84-17.21,29.63-34a6.5,6.5,0,0,1,10.65,7.46c-.27.38-6.67,9.51-14.28,18.8C589,296.86,582.82,299.38,578.37,299.38Z"/>
        <path class="cls-13" d="M618.84,253.4c.22,4.68-6,10.67-9.29,15.2-23.67,37.16-39.34,26-57.5,20.33s-19.84-20-13.67-18l.27-.34q-.95-.66-1.74-1.32a6.5,6.5,0,0,0-8.25,10.05c10.5,8.62,38.84,20.06,49.71,20.06,4.45,0,10.62-2.52,25.59-20.79,7.61-9.29,14-18.42,14.28-18.8A6.5,6.5,0,0,0,618.84,253.4Z"/>
        <path class="cls-4" d="M545.24,239.52a31.52,31.52,0,1,0-41.72,15.71A31.52,31.52,0,0,0,545.24,239.52Zm-37.46,6.3a21.19,21.19,0,1,1,28.05-10.56A21.2,21.2,0,0,1,507.78,245.82Z"/>
        <path class="cls-13" d="M617.71,245.93c0,2.67-2.83,4.83-6.33,4.83S605,248.6,605,245.93s2.84-4.83,6.34-4.83S617.71,243.26,617.71,245.93Z"/>
        <path class="cls-4" d="M605.86,243.25a5.08,5.08,0,0,0,5.08,5.09h0a5.09,5.09,0,0,0,5.09-5.09V226.42a5.08,5.08,0,0,0-5.09-5.08h0a5.07,5.07,0,0,0-5.08,5.08Z"/>
        <path class="cls-5" d="M610.94,221.34a5.07,5.07,0,0,0-5.08,5.08V234c.25,0,.49,0,.74,0a12.66,12.66,0,0,0,9.43-4.21v-3.37A5.08,5.08,0,0,0,610.94,221.34Z"/>
        <path class="cls-4" d="M595.71,216.14A12.71,12.71,0,0,0,605.8,231h0a12.73,12.73,0,0,0,14.88-10.09l1.81-9.47a12.7,12.7,0,0,0-10.08-14.88h0a12.7,12.7,0,0,0-14.88,10.08Z"/>
        <path class="cls-7" d="M617.78,220.47c-4.44-2.3-1.37-13.71-9.57-17.87s-9.56,7.22-16.83,2.33c1.8-.94-.94-6.76,6-10.5s13.13-8.62,21.62,1.36,10.36,10.67,6,17.2C621.61,219.07,619.46,221.35,617.78,220.47Z"/>
        <circle class="cls-4" cx="617.38" cy="216.43" r="3.44"/>
      </g>
      <g>
        <path class="cls-14" d="M175.29,249.76s16.25,28.25,22.25,52.75a46.18,46.18,0,0,1-18.75,11Z"/>
        <circle class="cls-5" cx="155.54" cy="210.6" r="8.5"/>
        <path class="cls-11" d="M205.23,429.51s-1.75,16.5,2,16.5H237c6.75,0,9.75-8.5-6.75-8.5-8.25,0-9.75-4.75-9.75-4.75Z"/>
        <path class="cls-1" d="M135.46,423.1s-7.25,14.93-3.72,16.2l28,10.1c6.35,2.29,12.06-4.69-3.46-10.29-7.76-2.8-7.56-7.78-7.56-7.78Z"/>
        <polygon class="cls-7" points="148.56 319.93 194.21 432.76 229.54 432.76 195.85 323.09 148.56 319.93"/>
        <polygon class="cls-15" points="135.89 319.93 130.54 432.76 158.21 432.76 195.85 323.09 135.89 319.93"/>
        <path class="cls-16" d="M161.66,235s-11.83,4.74-15.25,23.41-10.52,61.54-10.52,61.54,23.67,17.89,60,3.16C190.86,295,185.86,250.5,161.66,235Z"/>
        <path class="cls-14" d="M167.88,241.51c0,2.44-2.8,4.42-6.25,4.42s-6.25-2-6.25-4.42,2.8-4.41,6.25-4.41S167.88,239.07,167.88,241.51Z"/>
        <path class="cls-4" d="M166.92,239.25a5.09,5.09,0,0,1-5.08,5.09h0a5.09,5.09,0,0,1-5.09-5.09V222.42a5.08,5.08,0,0,1,5.09-5.08h0a5.08,5.08,0,0,1,5.08,5.08Z"/>
        <path class="cls-5" d="M161.84,217.34a5.08,5.08,0,0,1,5.08,5.08V230c-.25,0-.49,0-.74,0a12.66,12.66,0,0,1-9.43-4.21v-3.37A5.08,5.08,0,0,1,161.84,217.34Z"/>
        <path class="cls-4" d="M176.43,214.5a12.7,12.7,0,0,1-12.59,12.83h0A12.72,12.72,0,0,1,151,214.74l-.09-9.65a12.72,12.72,0,0,1,12.6-12.83h0a12.71,12.71,0,0,1,12.82,12.6Z"/>
        <path class="cls-4" d="M198.66,312.06s10.68-3.67,15-6c5.07-2.74,5.39-.58,2.69,3.33s11.27-2.46,11.51,1.52c.27,4.39-1.68,5.65-11.37,7.44s-14.16,2.15-14.16,2.15Z"/>
        <path class="cls-5" d="M151.92,210.39c5.87-6.49,3.5-9.25,11.5-12S178,203.39,180,196c.63-6.75-5.5-11.37-12.37-8.37-10.5-2.25-17.25.37-19.63,7.62C136.67,202.14,149.54,213,151.92,210.39Z"/>
        <g>
          <path class="cls-12" d="M248.29,303a11.51,11.51,0,0,1-11.51,11.51H122.19A11.51,11.51,0,0,1,110.68,303h0a11.51,11.51,0,0,1,11.51-11.5H236.78A11.51,11.51,0,0,1,248.29,303Z"/>
          <path class="cls-7" d="M114.14,294.83v16.43a11.44,11.44,0,0,0,8,3.29h18.75a30.54,30.54,0,0,0,0-23H122.19A11.44,11.44,0,0,0,114.14,294.83Z"/>
          <path class="cls-7" d="M250.69,311.26V294.83a11.46,11.46,0,0,0-8.06-3.29H223.89a30.54,30.54,0,0,0,0,23h18.74A11.46,11.46,0,0,0,250.69,311.26Z"/>
          <path class="cls-12" d="M80.12,287.37h24.39a3.3,3.3,0,0,1,3.3,3.3v24.75a3.3,3.3,0,0,1-3.3,3.3H80.12a30.54,30.54,0,1,0,0-31.35Z"/>
          <path class="cls-12" d="M284.56,318.72H260.17a3.3,3.3,0,0,1-3.3-3.3V290.67a3.3,3.3,0,0,1,3.3-3.3h24.39a30.54,30.54,0,1,0,0,31.35Z"/>
        </g>
        <circle class="cls-4" cx="152.77" cy="210.3" r="3.44"/>
        <path class="cls-16" d="M202.29,322.49c-18.86,0-41.11-20.44-42.18-21.43-11.1-10.31-10.75-41-10.56-47a7,7,0,1,1,14,.43c-.42,14.41,1.93,32.44,6.1,36.32,11.33,10.52,28.26,20,35.43,17.25a7,7,0,0,1,5,13.1A21.72,21.72,0,0,1,202.29,322.49Z"/>
        <path class="cls-14" d="M156.76,247.27a7,7,0,0,0-7.21,6.78c-.19,6-.54,36.7,10.56,47,1.07,1,23.32,21.43,42.18,21.43a21.72,21.72,0,0,0,7.73-1.34,7,7,0,0,0,4.07-9c1.45,6.48-5.88,10.81-17.55,7.14s-27.83-10.66-35.83-26.33S148,248.44,156.76,247.27Z"/>
      </g>
    </g>
  </g>
</svg>
