<svg id="Layer_1" data-name="Layer 1" xmlns="http://www.w3.org/2000/svg" xmlns:xlink="http://www.w3.org/1999/xlink" width="3144.07" height="2932.23" viewBox="0 0 3144.07 2932.23">
  <defs>
    <style>
      .cls-1, .cls-7 {
        fill: none;
      }

      .cls-1 {
        clip-rule: evenodd;
      }

      .cls-2 {
        fill: #34c1cf;
      }

      .cls-12, .cls-14, .cls-2, .cls-4, .cls-5, .cls-6 {
        fill-rule: evenodd;
      }

      .cls-3 {
        clip-path: url(#clip-path);
      }

      .cls-4 {
        fill: #6e4d72;
      }

      .cls-5, .cls-9 {
        fill: #2e82d6;
      }

      .cls-6 {
        fill: #7e5883;
      }

      .cls-8 {
        fill: #d85883;
      }

      .cls-10 {
        fill: #aa5883;
      }

      .cls-11 {
        fill: #225883;
      }

      .cls-12 {
        fill: #ec9f52;
      }

      .cls-13 {
        clip-path: url(#clip-path-2);
      }

      .cls-14 {
        fill: #ffffbd;
      }
    </style>
    <clipPath id="clip-path" transform="translate(-245.3 20.41)">
      <path class="cls-1" d="M385.65,1931.12c-9.65-12.33,18.57-63.34,19.76-75.72,9.69-100.55-89.67-89.89-138-123.93-24.28-17.11-23-58.43-21.4-78.8,3.37-43.11,90.72-92,129.78-127.4,48.38-43.85,92.62-74.26,115.53-136.31,16.93-45.85,16.34-96.09,3.6-142.87-5.64-20.76-25.35-133.18-19.08-202.67,38.68-428.17,402.72-584.24,584-630.87C1247.68,364.24,1513,379,1735.23,494c246,127.33,358.6,408,390.17,493.21,77.76,210,16.23,469.16-100.84,649.42-53.63,82.59-84.72,151.31-114.47,247.34-13.21,42.63-25.18,108.15-35.52,186.33-33.89,256.24-33.08,834.45-33.08,834.45H865s62.19-87,97.1-158.58c53.58-109.83,160.47-334.45,88.23-390-91-70.07-372.34,61.52-496.7-12.33-74.69-44.35-70.09-168.3-71.73-242.55-.85-38.8-76.17-28.11-79.33-75.44-2-29.58,52-32.95,39.95-61-8.8-20.41-47.21-21.38-56.86-33.7Z"/>
    </clipPath>
    <clipPath id="clip-path-2" transform="translate(-245.3 20.41)">
      <path class="cls-1" d="M2235.37,2301.34c6.51-7.15-8.56-39.88-8.73-47.56-1.37-62.42,59.38-51.32,90.7-70.09,15.75-9.45,16.84-35,16.79-47.6-.12-26.72-23.32-53.6-45.78-77.2-27.82-29.24-50.12-53.84-61.41-93.13-8.34-29-5.68-60,4.3-88.23,4.43-12.53,21.71-80.92,21-124-4.29-265.67-225.13-374.64-334.74-411.66-113.54-38.35-277.74-41.38-420,19.39-157.42,67.25-239.65,235.09-263,286.18-57.51,125.87-31.42,288.44,32.51,404.89,29.28,53.35,45.31,97.13,59.27,157.67,26.49,115-32.3,607.34-45.93,694.82H1949s-59.45-74.41-77.7-120.12c-28-70.14-83.63-213.47-36.57-244.43,59.31-39,230.74,36.9,310.75-2.94,48.06-23.93,18.44-89.77,22.84-135.46,2.3-23.88,48.23-13.85,52.35-42.88,2.57-18.14-30.58-22.68-21.84-39.43,6.35-12.18,30.07-11,36.58-18.18Z"/>
    </clipPath>
  </defs>
  <g>
    <path class="cls-2" d="M385.65,1931.12c-9.65-12.33,18.57-63.34,19.76-75.72,9.69-100.55-89.67-89.89-138-123.93-24.28-17.11-23-58.43-21.4-78.8,3.37-43.11,90.72-92,129.78-127.4,48.38-43.85,92.62-74.26,115.53-136.31,16.93-45.85,16.34-96.09,3.6-142.87-5.64-20.76-25.35-133.18-19.08-202.67,38.68-428.17,402.72-584.24,584-630.87C1247.68,364.24,1513,379,1735.23,494c246,127.33,358.6,408,390.17,493.21,77.76,210,16.23,469.16-100.84,649.42-53.63,82.59-84.72,151.31-114.47,247.34-13.21,42.63-25.18,108.15-35.52,186.33-33.89,256.24-33.08,834.45-33.08,834.45H865s62.19-87,97.1-158.58c53.58-109.83,160.47-334.45,88.23-390-91-70.07-372.34,61.52-496.7-12.33-74.69-44.35-70.09-168.3-71.73-242.55-.85-38.8-76.17-28.11-79.33-75.44-2-29.58,52-32.95,39.95-61-8.8-20.41-47.21-21.38-56.86-33.7Z" transform="translate(-245.3 20.41)"/>
    <g class="cls-3">
      <path class="cls-4" d="M1615,1524.12c-9.65-12.33,18.57-63.34,19.76-75.72,9.69-100.55-89.67-89.89-138-123.93-24.29-17.11-23-58.43-21.4-78.8,3.37-43.11,90.71-92,129.78-127.4,48.38-43.85,92.62-74.26,115.53-136.31,16.93-45.85,16.34-96.09,3.6-142.87-5.64-20.76-25.35-133.18-19.08-202.67,38.68-428.17,402.72-584.24,584-630.87C2477-42.76,2742.31-28,2964.55,87c246,127.33,358.6,408,390.17,493.21,77.76,210,16.22,469.16-100.84,649.42-53.63,82.59-84.72,151.31-114.47,247.34-13.21,42.63-25.18,108.15-35.52,186.33-33.89,256.24-33.08,834.45-33.08,834.45l-977.5-4.17s63.19-82.84,98.1-154.41c53.57-109.83,160.47-334.45,88.23-390-91-70.07-372.34,61.52-496.7-12.33-74.69-44.35-70.09-168.3-71.73-242.55-.85-38.8-76.17-28.11-79.33-75.44-2-29.58,52-32.95,39.95-61-8.8-20.41-47.21-21.38-56.86-33.7Z" transform="translate(-245.3 20.41)"/>
    </g>
    <path class="cls-5" d="M854.24,1993.4c-13.69-10.29,1.69-72.21-.55-85.63-18.25-109-120.26-69.63-181-91.94-30.51-11.21-40.86-55.25-44.94-77.23-8.64-46.54,22.84-101,54.11-149.44,38.73-60.07,69.37-110.24,76-182.32,4.91-53.27-9.95-106.21-36.66-152.06-11.85-20.34-64.53-133.6-77.58-208.84-80.39-463.57,267.74-726.18,446.17-826.83,184.83-104.25,469.47-163.82,737-105.15,296.08,64.93,494.65,329.7,552.16,410.86,141.68,199.93,150,491.36,77.36,715.08-33.3,102.5-46.71,183.95-51,293.89-8.07,208.73,126.51,853.92,208.59,1080.1,57,157.13,49.12,143.21,101.75,290.89H1587.52s43.33-105.48,60-191c25.52-131.28,74.9-399-17.21-437.31-116.1-48.28-389.19,140.5-541.56,97.66-91.52-25.73-61.77-150.06-84.53-228.09-11.9-40.77-88.49-8.14-105.24-57.28-10.47-30.7,45.68-49.56,24.95-75.82-15.08-19.08-56-9.23-69.65-19.52Z" transform="translate(-245.3 20.41)"/>
    <path class="cls-6" d="M1033.58,1740.4c-6.42-15.88,38.67-61,43.66-73.68,40.56-102.85-67.18-121.64-107.69-172-20.38-25.34-6.54-68.42,1.28-89.36,16.58-44.33,71.61-74.74,123.38-100.18,64.15-31.52,116.27-58.72,159.11-117.07,31.66-43.12,46.21-96.14,47-149.2.32-23.53,13.55-147.75,41.14-219,170-438.71,603.68-484.35,808.46-478.65C2362,347.19,2636.62,442.83,2835.65,631c220.28,208.23,254,537.46,261.46,636.65C3115.49,1512,2972.47,1766,2794.88,1920.3c-81.36,70.68-134.82,133.58-195.12,225.6-84.77,129.38-312.11,758.88-312.11,758.88l-1140.33,7s136.49-80.56,194.82-145.29c89.53-99.35,269.82-303.35,210.62-383.64-74.61-101.21-405.93-80.16-514.44-195.4-65.17-69.22,24.4-160.43,45.11-239,10.82-41.08-71.64-52.58-60.67-103.32,6.85-31.71,64.69-18.94,60.45-52.12-3.08-24.12-43.2-36.75-49.63-52.62Z" transform="translate(-245.3 20.41)"/>
    <path class="cls-7" d="M2379,524.82a605.62,605.62,0,0,1,66.32,121.92c50.21-32.67,100.47-53.64,137.82-66.25,46.25-15.62,100.92-25.38,159.09-27.35-159.8-117.53-349.05-185.79-513.71-205.86C2302.76,420.13,2354.1,489.68,2379,524.82Z" transform="translate(-245.3 20.41)"/>
    <path class="cls-7" d="M2629.38,2023.33c28-70.15,83.64-213.47,36.58-244.44-44.85-29.51-153.77,6.69-238.83,8.89,22.52,155.33,59.56,343.47,98.24,507.92,29.19-66.59,55.37-120.78,74.39-149.8,11.35-17.32,22.46-33.61,33.56-49.11A87.62,87.62,0,0,1,2629.38,2023.33Z" transform="translate(-245.3 20.41)"/>
    <path class="cls-7" d="M1630.27,2276.45c-51.78-21.54-134.8,4.09-224.41,35.29,66.15,16.34,121.46,36.63,146.9,71.15,59.2,80.29-121.09,284.29-210.62,383.64-48,53.28-149,117.27-183.18,138.25h428.56s43.33-105.48,60-191C1673,2582.48,1722.38,2314.75,1630.27,2276.45Z" transform="translate(-245.3 20.41)"/>
    <path class="cls-8" d="M2445.32,646.74c75.62,185.62,70,411.67,11,593.16-33.3,102.5-46.71,183.95-51,293.89-2.22,57.5,6.38,148.13,21.73,254,85.06-2.2,194-38.4,238.83-8.89,47.06,31-8.57,174.29-36.58,244.44a87.62,87.62,0,0,0,3.94,73.46c47.86-66.87,95.52-119.11,161.56-176.49C2972.47,1766,3115.49,1512,3097.11,1267.62c-7.47-99.19-41.18-428.42-261.46-636.65a988.38,988.38,0,0,0-93.42-77.83c-58.17,2-112.84,11.73-159.09,27.35C2545.79,593.1,2495.53,614.07,2445.32,646.74Z" transform="translate(-245.3 20.41)"/>
    <path class="cls-9" d="M1038.32,2187.49c-65.17-69.22,24.4-160.43,45.11-239,10.82-41.08-71.64-52.58-60.67-103.32,6.85-31.71,64.69-18.94,60.45-52.12-3.08-24.12-43.2-36.75-49.63-52.62s38.67-61,43.66-73.68c40.56-102.85-67.18-121.64-107.69-172-20.38-25.34-6.54-68.42,1.28-89.36,16.58-44.33,71.61-74.74,123.38-100.18,64.15-31.52,116.27-58.72,159.11-117.07,31.66-43.12,46.21-96.14,47-149.2.32-23.53,13.55-147.75,41.14-219,170-438.71,603.68-484.35,808.46-478.65,25.4.71,51.7,2.72,78.65,6-97.24-95.42-233.78-196.5-401.68-233.32-267.52-58.67-552.16.9-737,105.15C911.42,319.76,563.29,582.37,643.68,1045.94c13.05,75.24,65.73,188.5,77.58,208.84,26.71,45.85,41.57,98.79,36.66,152.06-6.65,72.08-37.29,122.25-76,182.32-31.27,48.48-62.75,102.9-54.11,149.44,4.08,22,14.43,66,44.94,77.23,60.7,22.31,162.71-17.1,181,91.94,2.24,13.42-13.14,75.34.55,85.63s54.57.44,69.65,19.52c20.73,26.26-35.42,45.12-24.95,75.82,16.75,49.14,93.34,16.51,105.24,57.28,22.76,78-7,202.36,84.53,228.09,84.41,23.73,205.86-23.62,317.15-62.37C1278.07,2280.19,1109.82,2263.42,1038.32,2187.49Z" transform="translate(-245.3 20.41)"/>
    <path class="cls-10" d="M2525.37,2295.7c-100.93,230.3-237.72,609.08-237.72,609.08h428.09C2663.11,2757.1,2671,2771,2614,2613.89,2587.7,2541.44,2556,2426,2525.37,2295.7Z" transform="translate(-245.3 20.41)"/>
    <path class="cls-11" d="M2427.13,1787.78c-27.44.71-52.41-2.11-71.92-11.83-48.07-23.93-18.44-89.77-22.84-135.46-2.3-23.87-48.24-13.85-52.35-42.87-2.57-18.15,30.58-22.69,21.84-39.44-6.35-12.18-30.07-11-36.58-18.17s8.55-39.89,8.72-47.57c1.38-62.42-59.37-51.31-90.69-70.09-15.75-9.44-16.84-35-16.79-47.59.11-26.73,23.32-53.6,45.78-77.21,27.82-29.23,50.12-53.84,61.41-93.13,8.34-29,5.68-60-4.3-88.22-4.43-12.54-21.71-80.93-21-124.05C2251.23,817,2348.18,710,2445.32,646.74A605.62,605.62,0,0,0,2379,524.82c-24.9-35.14-76.24-104.69-150.48-177.54-26.95-3.28-53.25-5.29-78.65-6-204.78-5.7-638.46,39.94-808.46,478.65-27.59,71.2-40.82,195.42-41.14,219-.74,53.06-15.29,106.08-47,149.2-42.84,58.35-95,85.55-159.11,117.07-51.77,25.44-106.8,55.85-123.38,100.18-7.82,20.94-21.66,64-1.28,89.36,40.51,50.39,148.25,69.18,107.69,172-5,12.66-50.08,57.8-43.66,73.68s46.55,28.5,49.63,52.62c4.24,33.18-53.6,20.41-60.45,52.12-11,50.74,71.49,62.24,60.67,103.32-20.71,78.6-110.28,169.81-45.11,239,71.5,75.93,239.75,92.7,367.54,124.25,89.61-31.2,172.63-56.83,224.41-35.29,92.11,38.3,42.73,306,17.21,437.31-16.63,85.54-60,191-60,191h700.13S2424.44,2526,2525.37,2295.7C2486.69,2131.25,2449.65,1943.11,2427.13,1787.78Z" transform="translate(-245.3 20.41)"/>
    <path class="cls-10" d="M2405.4,1533.79c4.25-109.94,17.66-191.39,51-293.89,59-181.49,64.58-407.54-11-593.16C2348.18,710,2251.23,817,2248.4,992.15c-.7,43.12,16.58,111.51,21,124.05,10,28.25,12.64,59.19,4.3,88.22-11.29,39.29-33.59,63.9-61.41,93.13-22.46,23.61-45.67,50.48-45.78,77.21-.05,12.62,1,38.15,16.79,47.59,31.32,18.78,92.07,7.67,90.69,70.09-.17,7.68-15.23,40.41-8.72,47.57s30.23,6,36.58,18.17c8.74,16.75-24.41,21.29-21.84,39.44,4.11,29,50.05,19,52.35,42.87,4.4,45.69-25.23,111.53,22.84,135.46,19.51,9.72,44.48,12.54,71.92,11.83C2411.78,1681.92,2403.18,1591.29,2405.4,1533.79Z" transform="translate(-245.3 20.41)"/>
    <path class="cls-12" d="M2235.37,2301.34c6.51-7.15-8.56-39.88-8.73-47.56-1.37-62.42,59.38-51.32,90.7-70.09,15.75-9.45,16.84-35,16.79-47.6-.12-26.72-23.32-53.6-45.78-77.2-27.82-29.24-50.12-53.84-61.41-93.13-8.34-29-5.68-60,4.3-88.23,4.43-12.53,21.71-80.92,21-124-4.29-265.67-225.13-374.64-334.74-411.66-113.54-38.35-277.74-41.38-420,19.39-157.42,67.25-239.65,235.09-263,286.18-57.51,125.87-31.42,288.44,32.51,404.89,29.28,53.35,45.31,97.13,59.27,157.67,26.49,115-32.3,607.34-45.93,694.82H1949s-59.45-74.41-77.7-120.12c-28-70.14-83.63-213.47-36.57-244.43,59.31-39,230.74,36.9,310.75-2.94,48.06-23.93,18.44-89.77,22.84-135.46,2.3-23.88,48.23-13.85,52.35-42.88,2.57-18.14-30.58-22.68-21.84-39.43,6.35-12.18,30.07-11,36.58-18.18Z" transform="translate(-245.3 20.41)"/>
    <g class="cls-13">
      <path class="cls-14" d="M1333.05,2295.59c96.48,20,185.34,40.67,219.71,87.3,59.2,80.29-121.09,284.29-210.62,383.64-15.15,16.81-33,30.34-50.48,46.34,16.77-137,42.45-376.34,41.39-517.28Z" transform="translate(-245.3 20.41)"/>
    </g>
  </g>
</svg>
