<svg id="Layer_1" data-name="Layer 1" xmlns="http://www.w3.org/2000/svg" width="3156.73" height="1770.11" viewBox="0 0 3156.73 1770.11">
  <defs>
    <style>
      .cls-1 {
        fill: #e0cdb6;
      }

      .cls-2 {
        fill: #cfb89d;
      }

      .cls-3 {
        fill: #786b5c;
      }

      .cls-4 {
        fill: #ffa9a6;
      }

      .cls-5 {
        fill: #d0f1f2;
      }

      .cls-6 {
        fill: #b6d3d4;
      }

      .cls-7 {
        fill: #b7b4de;
      }

      .cls-8 {
        fill: #9d9abf;
      }

      .cls-9 {
        fill: #ffc9c7;
      }

      .cls-10 {
        fill: #f2fafa;
      }

      .cls-11 {
        fill: #a6937e;
      }

      .cls-12 {
        fill: #1a1c2e;
      }

      .cls-13 {
        fill: #fff;
      }

      .cls-14 {
        fill: #292b3b;
      }

      .cls-15 {
        fill: #454863;
      }

      .cls-16, .cls-20, .cls-21, .cls-22 {
        fill: none;
      }

      .cls-16 {
        stroke: #292b3b;
        stroke-width: 10.06px;
      }

      .cls-16, .cls-21, .cls-22 {
        stroke-miterlimit: 10;
      }

      .cls-17 {
        fill: #d8b4de;
      }

      .cls-18 {
        fill: #aaa7cf;
      }

      .cls-19 {
        fill: #e4cfe8;
      }

      .cls-20 {
        stroke: #e0cdb6;
        stroke-linecap: round;
        stroke-linejoin: round;
        stroke-width: 27px;
      }

      .cls-21 {
        stroke: #cfb89d;
      }

      .cls-21, .cls-22 {
        stroke-width: 30px;
      }

      .cls-22 {
        stroke: #a6937e;
      }

      .cls-23 {
        fill: #f28e8a;
      }
    </style>
  </defs>
  <g>
    <path class="cls-1" d="M2752.53,604.85c-8.81-179.5-157.12-322.33-338.81-322.33a338.36,338.36,0,0,0-253.55,113.9c-138.86-83.7-301.55-131.87-475.5-131.87-509.55,0-922.59,413-922.59,922.55,0,1.05,0,2.1,0,3.15a464.73,464.73,0,0,0-77.52-6.51c-255.69,0-463,207.3-463,463A460.85,460.85,0,0,0,287,1884H3159.88c135.09-136.92,218.49-325,218.49-532.5C3378.37,977.92,3108.17,667.46,2752.53,604.85Z" transform="translate(-221.63 -113.89)"/>
    <path class="cls-2" d="M906.09,1178.38c0-.07,0-.14,0-.22s-.06-.29-.08-.43c-.12-.59-.23-1.17-.36-1.76l-.09-.42c-.13-.59-.26-1.17-.4-1.76,0-.14-.06-.28-.1-.42v0c0-.15-.08-.31-.12-.46l-.27-1.08a1.33,1.33,0,0,0,0-.19c0-.07,0-.13-.05-.2l-.28-1.06c0-.16-.09-.31-.13-.47a0,0,0,0,1,0,0l-.12-.41c-.16-.58-.33-1.16-.51-1.73l-.12-.41c-.18-.58-.36-1.15-.55-1.72,0-.13-.09-.27-.13-.41s0-.15-.08-.22l8.94-6.48,6.69-4.84a66,66,0,0,0-8.43-17.18l-7.94,2.33-10.58,3.11a.86.86,0,0,0-.07-.1c-.08-.12-.17-.25-.24-.37-.34-.5-.68-1-1-1.48-.08-.12-.16-.24-.25-.35-.34-.49-.7-1-1.06-1.47l-.22-.3-.48-.64-.48-.64-.23-.3-1.12-1.42c-.1-.11-.18-.22-.27-.33-.38-.47-.77-.93-1.15-1.39l-.28-.33-.08-.1,5.88-9.31,4.42-7a65.72,65.72,0,0,0-14.22-12.82l-6.51,5.13-8.65,6.81-.2-.14-.36-.24c-.49-.34-1-.67-1.49-1l-.37-.24-1.52-1-.37-.23h0l-.4-.25-1-.57-.17-.1-.18-.1-1-.55-.43-.24h0l-.38-.21c-.52-.3-1-.59-1.58-.87l-.38-.2-1.59-.83-.4-.19-.21-.11,1.74-10.9,1.31-8.16a66,66,0,0,0-18.11-6.18l-4,7.25-5.29,9.69-.12,0-.43-.08-1.77-.32-.43-.07-1.78-.29-.37-.06-.79-.11-.8-.11-.37,0-1.8-.21-.43,0-1.79-.17-.44,0h-.12l-2.43-10.74-1.83-8.08a66.12,66.12,0,0,0-19.11,1l-1,8.23-1.3,10.93-.22.05-.43.08-1.76.35-.41.1-1.77.39-.41.1h0l-.47.11-1.07.28-.2,0-.19.05-1.07.29-.46.13h0l-.41.11c-.59.16-1.16.34-1.73.51l-.42.13-1.71.54-.42.14-.21.07-6.48-8.94-4.84-6.68a65.14,65.14,0,0,0-17.18,8.43l2.33,7.93,3.11,10.58-.11.08c-.12.07-.24.16-.35.24-.51.33-1,.67-1.49,1l-.35.25-1.47,1.06-.3.22-.64.48-.65.49-.28.22-1.44,1.13-.32.26-1.4,1.16-.32.27-.1.08-9.31-5.88-7-4.42A65.72,65.72,0,0,0,717,1125.55l5.13,6.51,6.8,8.65-.13.2-.24.36c-.34.49-.67,1-1,1.5-.07.12-.15.24-.23.35-.32.51-.65,1-1,1.54l-.21.35,0,0-.24.41c-.2.31-.38.63-.57,1l-.09.16h0l-.11.17c-.18.32-.36.64-.55,1-.08.14-.16.28-.23.42l0,0-.21.37-.86,1.58-.2.38c-.29.53-.56,1.07-.83,1.6l-.19.39a1.39,1.39,0,0,0-.11.21L711,1151l-8.16-1.31a65.38,65.38,0,0,0-3.75,8.83,63.78,63.78,0,0,0-2.43,9.28l7.24,4,9.7,5.29,0,.13c0,.13-.05.27-.08.41-.11.6-.23,1.19-.33,1.79,0,.13,0,.27-.07.41-.1.6-.2,1.2-.29,1.8,0,.12,0,.24,0,.36l-.12.8c0,.26-.07.53-.1.8,0,.12,0,.24,0,.36-.08.6-.15,1.2-.21,1.81,0,.14,0,.27,0,.41-.07.61-.12,1.21-.17,1.81,0,.14,0,.28,0,.42s0,.09,0,.13l-10.74,2.43-8.08,1.83a65.2,65.2,0,0,0,1,19.11l8.22,1,10.94,1.3c0,.07,0,.15,0,.22l.09.44c.11.59.23,1.17.35,1.75l.09.43c.13.59.26,1.17.4,1.75,0,.14.06.29.1.43v0l.12.48.27,1.07a1.21,1.21,0,0,1,.05.18,1.17,1.17,0,0,0,0,.2c.09.36.19.72.28,1.07.05.16.09.31.13.46a.08.08,0,0,1,0,0l.12.4q.24.89.51,1.74l.12.41c.18.57.36,1.15.55,1.72l.13.4a2.09,2.09,0,0,0,.08.23l-8.94,6.47-6.69,4.85a65.47,65.47,0,0,0,3.59,8.9,66.42,66.42,0,0,0,4.84,8.28l7.94-2.33,10.58-3.11a.86.86,0,0,0,.07.1l.24.36c.34.5.68,1,1,1.49a3.79,3.79,0,0,0,.25.35c.34.49.7,1,1.06,1.47l.22.3.48.64.49.64.22.29c.37.48.75,1,1.13,1.43.09.11.17.22.26.32.38.48.77.94,1.16,1.41l.27.32.08.09-5.88,9.32-4.42,7a63.59,63.59,0,0,0,6.64,6.92A64.72,64.72,0,0,0,739,1289l6.51-5.12,8.66-6.81.2.14c.12.08.24.15.36.24.49.33,1,.67,1.49,1l.36.23,1.53,1,.36.22,0,0,.42.25,1,.57.16.1.17.1,1,.55.41.24,0,0,.36.2,1.6.88.36.19,1.61.83.38.19.21.11L764.41,1295l-1.3,8.16a63.65,63.65,0,0,0,8.83,3.76,66.08,66.08,0,0,0,9.28,2.43l4-7.25,5.29-9.69.12,0,.42.08c.59.12,1.18.23,1.78.33l.42.07,1.8.29.36.06.8.11.79.11.36,0,1.82.21.41,0c.6.07,1.2.13,1.81.18l.42,0,.12,0,2.43,10.74,1.83,8.08a63.75,63.75,0,0,0,9.59.2,64.67,64.67,0,0,0,9.52-1.19l1-8.23,1.31-10.93.22-.05.44-.08,1.75-.35.43-.1c.59-.13,1.17-.25,1.75-.39l.43-.1h0l.47-.12c.36-.08.72-.17,1.07-.27l.19,0,.2,0,1.07-.29.46-.13h0l.39-.11c.59-.16,1.17-.34,1.76-.51l.39-.12,1.72-.55.41-.14.23-.07,6.47,8.93,4.85,6.7a66.42,66.42,0,0,0,17.18-8.44l-2.33-7.93-3.11-10.59.1-.06.37-.25,1.47-1,.36-.26,1.47-1,.3-.23.64-.47.64-.49.29-.23,1.43-1.12.33-.27,1.39-1.15.33-.28.09-.08,9.32,5.88,7,4.42a65.59,65.59,0,0,0,12.81-14.21l-5.12-6.52-6.81-8.65a1.27,1.27,0,0,0,.13-.19l.25-.37,1-1.48.24-.38c.32-.5.64-1,.95-1.51l.23-.38h0c.09-.14.18-.28.26-.43l.56-.93.11-.18a1,1,0,0,1,.1-.17c.18-.33.37-.64.55-1l.23-.42,0,0c.08-.12.14-.25.21-.37q.45-.8.87-1.59l.2-.37.83-1.6.19-.39.1-.21,10.9,1.74,8.16,1.3a63.61,63.61,0,0,0,3.75-8.83,64.44,64.44,0,0,0,2.44-9.28l-7.25-4-9.7-5.29,0-.12c0-.14,0-.28.08-.43.11-.58.23-1.17.33-1.77l.07-.43c.1-.59.2-1.18.29-1.77,0-.13,0-.25,0-.38l.12-.79c0-.26.07-.53.11-.8l0-.36c.08-.6.15-1.21.22-1.81,0-.14,0-.28,0-.42.07-.6.12-1.2.17-1.8,0-.14,0-.29,0-.43a.49.49,0,0,0,0-.12l10.74-2.43,8.08-1.83a65.2,65.2,0,0,0-1-19.11l-8.22-1Zm-43.28,15.11A53.17,53.17,0,1,1,807,1143.15,53.17,53.17,0,0,1,862.81,1193.49Z" transform="translate(-221.63 -113.89)"/>
    <path class="cls-2" d="M543,1400.57a.51.51,0,0,1,0-.13,2,2,0,0,1-.05-.24c-.06-.33-.13-.66-.2-1a2,2,0,0,1-.05-.24c-.08-.33-.15-.66-.23-1,0-.08,0-.16,0-.24h0l-.06-.26-.15-.61,0-.11,0-.11c-.05-.2-.11-.4-.16-.6a2,2,0,0,1-.07-.26v0l-.06-.23c-.09-.32-.19-.65-.29-1,0-.08,0-.16-.07-.23-.1-.33-.2-.65-.31-1,0-.07,0-.15-.07-.23a.5.5,0,0,1,0-.13l5-3.64,3.76-2.73a35.7,35.7,0,0,0-2-5,35.31,35.31,0,0,0-2.73-4.66l-4.46,1.31-6,1.75,0-.06-.14-.2-.57-.84-.14-.19-.6-.83-.13-.17-.26-.36-.28-.36-.13-.17-.63-.8-.15-.19-.65-.78-.16-.19,0-.05,3.31-5.24,2.49-3.95a36.12,36.12,0,0,0-3.74-3.9,35.05,35.05,0,0,0-4.26-3.31l-3.67,2.88-4.87,3.83a.41.41,0,0,1-.11-.07l-.21-.14-.84-.56-.2-.13-.86-.54-.21-.13h0l-.23-.14-.54-.32-.09,0-.1-.06-.54-.31-.24-.14h0l-.21-.12-.89-.49-.22-.11-.89-.47-.23-.11-.11-.06,1-6.13.73-4.6a37.26,37.26,0,0,0-5-2.11,36.3,36.3,0,0,0-5.23-1.37l-2.23,4.08-3,5.46h-.06l-.24,0-1-.18-.24,0-1-.17-.2,0-.45-.06-.45-.06-.2,0-1-.12-.24,0-1-.09-.24,0h-.07l-1.37-6-1-4.55a37.31,37.31,0,0,0-5.4-.11,37.75,37.75,0,0,0-5.36.67l-.56,4.63-.73,6.16-.13,0-.24,0-1,.2-.23,0-1,.23-.23,0h0l-.26.06-.61.15-.11,0-.1,0-.61.16-.26.07h0l-.23.06-1,.29-.23.07-1,.31-.23.07-.12,0-3.65-5-2.73-3.76a36.42,36.42,0,0,0-9.67,4.74l1.31,4.47,1.75,6-.06,0-.2.14c-.28.18-.56.38-.84.57l-.19.14-.83.6-.17.12-.36.27-.36.28-.16.12-.81.64-.18.15c-.27.21-.53.43-.79.65l-.18.15-.06,0-5.24-3.31-3.95-2.49a36.45,36.45,0,0,0-7.21,8l2.88,3.67,3.83,4.87-.07.11c-.05.07-.09.14-.14.2l-.56.84a2.39,2.39,0,0,1-.13.21l-.54.86-.12.2,0,0a1.76,1.76,0,0,1-.14.23c-.1.18-.21.36-.32.54l-.05.09h0l-.06.1c-.11.18-.21.36-.31.54s-.09.16-.13.24h0a2.12,2.12,0,0,1-.11.21l-.49.89-.11.21c-.16.3-.32.6-.47.9l-.1.22-.07.12-6.13-1-4.59-.73a35.52,35.52,0,0,0-2.12,5,36.51,36.51,0,0,0-1.37,5.22l4.08,2.23,5.46,3s0,0,0,.07,0,.16,0,.23c-.06.34-.13.67-.18,1a1.85,1.85,0,0,0,0,.23c-.06.34-.12.68-.17,1l0,.2-.06.45-.06.45,0,.2-.12,1,0,.23c0,.34-.07.68-.1,1a1.94,1.94,0,0,0,0,.24s0,0,0,.07l-6.05,1.37-4.55,1a35.91,35.91,0,0,0-.11,5.4,36.35,36.35,0,0,0,.67,5.36l4.63.55,6.16.74a.5.5,0,0,1,0,.12c0,.09,0,.17,0,.25.06.33.13.66.2,1,0,.07,0,.16,0,.24.07.33.15.65.23,1a2,2,0,0,0,.05.24v0l.06.26.15.61,0,.1,0,.11c.05.2.1.4.16.6s.05.18.07.26v0l.06.22c.09.33.19.66.29,1l.07.23c.1.32.2.65.31,1l.07.23s0,.08,0,.12l-5,3.65-3.76,2.73a36.42,36.42,0,0,0,4.74,9.67l4.47-1.31,6-1.75,0,.06.14.2.57.84.14.19.6.83.12.17.27.36.28.36.12.16.64.81.15.18c.21.27.43.53.65.79l.15.18,0,.06-3.31,5.24-2.49,3.95a36.45,36.45,0,0,0,8,7.21l3.67-2.88,4.87-3.83.11.07.2.13c.28.19.56.38.85.56l.2.14.86.54.2.13h0l.23.15.54.32.09,0,.1.06.54.31.23.13h0l.2.12.91.49.2.11.91.47.21.1.12.07-1,6.13-.73,4.59a35.52,35.52,0,0,0,5,2.12,37.89,37.89,0,0,0,5.22,1.37l2.23-4.08,3-5.46H478l.24,0c.33.06.66.13,1,.18l.23,0,1,.17.2,0,.45.06.45.06.2,0,1,.12.23,0,1,.1.24,0h.07l1.37,6,1,4.55a37.28,37.28,0,0,0,5.4.11,37.75,37.75,0,0,0,5.36-.67l.55-4.63.74-6.16.13,0,.24,0,1-.2.24,0,1-.23.24,0h0l.26-.06.61-.15.1,0,.12,0,.59-.16.27-.07h0l.22-.06,1-.29.22-.07,1-.31.23-.07.13,0,3.64,5,2.73,3.76a36.19,36.19,0,0,0,5-2,35.31,35.31,0,0,0,4.66-2.73l-1.31-4.46-1.75-6,.06,0,.2-.14.83-.57.21-.15.82-.59.17-.13.36-.26.36-.28.16-.13.81-.63.19-.15.78-.65.18-.16.06,0,5.24,3.31,4,2.49a37.07,37.07,0,0,0,3.9-3.74,36.08,36.08,0,0,0,3.31-4.26l-2.88-3.67-3.83-4.87.07-.11.14-.21.55-.83.14-.22.54-.85.13-.21h0l.15-.24.31-.52.06-.1.06-.1.31-.54.13-.23v0l.12-.2c.17-.3.33-.6.49-.9a2.12,2.12,0,0,0,.11-.21l.47-.9a2.12,2.12,0,0,1,.11-.21l.06-.12,6.13,1,4.6.73a37.26,37.26,0,0,0,2.11-5,36.3,36.3,0,0,0,1.37-5.23l-4.08-2.23-5.46-3s0,0,0-.06,0-.16,0-.24c.06-.33.13-.67.18-1l0-.24c0-.33.11-.67.16-1a1.52,1.52,0,0,1,0-.21l.06-.45.06-.45,0-.2.12-1,0-.24.09-1c0-.08,0-.16,0-.24V1415l6-1.37,4.55-1a37.31,37.31,0,0,0,.11-5.4,37.75,37.75,0,0,0-.67-5.36l-4.63-.56Zm-24.37,8.5a29.94,29.94,0,1,1-31.44-28.34A29.94,29.94,0,0,1,518.61,1409.07Z" transform="translate(-221.63 -113.89)"/>
    <path class="cls-2" d="M910.07,1457.74l-.06-.32c0-.21-.08-.41-.12-.62-.16-.83-.32-1.66-.5-2.5,0-.2-.09-.4-.13-.6-.19-.84-.37-1.67-.57-2.5-.05-.2-.09-.4-.14-.6a.06.06,0,0,1,0,0c-.06-.23-.11-.45-.16-.66-.13-.52-.25-1-.39-1.54,0-.09,0-.18-.07-.27s0-.19-.07-.28c-.13-.51-.27-1-.4-1.52-.07-.22-.13-.43-.19-.66a.43.43,0,0,1,0-.05c-.06-.19-.11-.39-.17-.58-.23-.83-.47-1.65-.73-2.47-.05-.19-.11-.39-.17-.58-.25-.82-.51-1.63-.78-2.44-.06-.2-.13-.4-.19-.59a3,3,0,0,1-.1-.32l12.72-9.22,9.53-6.9c-2.06-5.69-2.39-7.13-5.11-12.68s-3.66-6.69-6.9-11.79l-11.3,3.31L889,1405.75l-.09-.14c-.12-.17-.24-.34-.35-.52-.48-.71-1-1.41-1.46-2.11-.12-.17-.23-.34-.35-.5-.5-.7-1-1.4-1.51-2.09l-.32-.43-.68-.91c-.24-.3-.46-.61-.7-.91l-.32-.42c-.53-.68-1.06-1.36-1.6-2-.13-.16-.25-.32-.38-.47-.54-.67-1.09-1.33-1.64-2l-.4-.47-.11-.13,8.37-13.27,6.3-10a93.45,93.45,0,0,0-9.46-9.87c-4.59-4.14-5.88-4.85-10.79-8.38l-9.27,7.29-12.33,9.7a2.61,2.61,0,0,1-.27-.19l-.52-.34c-.7-.48-1.42-.95-2.13-1.41l-.52-.34c-.72-.47-1.44-.92-2.17-1.37l-.52-.33,0,0c-.2-.11-.38-.24-.57-.35l-1.36-.81-.25-.14a1.28,1.28,0,0,0-.25-.15l-1.35-.79-.61-.34h0l-.53-.3c-.74-.42-1.5-.84-2.25-1.23l-.55-.3-2.26-1.17-.57-.28-.29-.15,2.48-15.52,1.85-11.62c-5.47-2.57-6.72-3.35-12.57-5.35a93,93,0,0,0-13.22-3.46l-5.64,10.33-7.54,13.8-.16,0-.62-.11-2.52-.47-.6-.1-2.55-.41-.53-.08-1.12-.16-1.14-.15-.52-.07-2.57-.3-.61-.07-2.55-.25-.62,0-.17,0-3.46-15.3-2.61-11.5c-6-.35-7.49-.61-13.66-.29a91.54,91.54,0,0,0-13.56,1.7l-1.41,11.71-1.86,15.58-.31.06-.61.12-2.51.5-.59.13-2.52.57-.58.14h-.06l-.66.16L738,1348l-.28.07-.27.07-1.52.41-.66.19h0l-.58.16c-.83.23-1.66.47-2.47.73a5.76,5.76,0,0,0-.59.18c-.81.24-1.63.5-2.43.77l-.6.19-.31.11L719,1338.13l-6.9-9.52c-5.69,2.06-7.12,2.39-12.68,5.11s-6.68,3.66-11.79,6.9l3.32,11.3,4.43,15.07a1,1,0,0,0-.15.11l-.51.34c-.72.48-1.42,1-2.12,1.46l-.5.35c-.7.5-1.4,1-2.1,1.52-.14.1-.27.21-.42.31-.31.22-.61.46-.91.68l-.92.7-.4.32c-.69.52-1.37,1.07-2.05,1.61l-.46.36-2,1.66-.46.38-.13.12L669,1368.53l-10-6.3c-4.52,4-5.73,4.87-9.87,9.46a93.82,93.82,0,0,0-8.38,10.79l7.29,9.28,9.7,12.32-.19.29-.34.51c-.48.7-1,1.41-1.42,2.13l-.33.51c-.46.72-.93,1.45-1.38,2.18l-.31.51,0,.06-.36.57c-.27.45-.53.91-.81,1.36a2.53,2.53,0,0,1-.13.22v0l-.15.25c-.27.45-.53.9-.79,1.36-.12.2-.23.4-.34.6l0,0c-.09.18-.19.34-.29.52-.41.76-.83,1.51-1.23,2.26-.1.19-.19.37-.29.54q-.6,1.14-1.17,2.28l-.28.55c0,.1-.1.19-.15.3l-15.52-2.48-11.62-1.86c-2.57,5.48-3.36,6.73-5.35,12.58s-2.14,7.31-3.46,13.22l10.32,5.64,13.8,7.53,0,.18c0,.19-.08.39-.11.59-.17.85-.33,1.69-.47,2.54,0,.2-.07.39-.1.59-.15.85-.29,1.71-.42,2.56,0,.18,0,.35-.07.52-.06.38-.11.76-.17,1.13l-.15,1.14c0,.18,0,.35-.07.51-.11.87-.21,1.72-.3,2.59l-.06.58c-.1.87-.18,1.72-.25,2.58,0,.2,0,.4-.05.6s0,.12,0,.18l-15.3,3.46-11.51,2.61c-.35,6-.61,7.48-.29,13.66s.73,7.59,1.7,13.56l11.72,1.4,15.57,1.86.06.32.12.62c.16.84.33,1.66.51,2.5,0,.2.08.41.13.61q.27,1.24.57,2.49c0,.2.09.4.14.6,0,0,0,0,0,0,.05.23.1.46.16.68q.18.77.39,1.53l.06.26.07.28c.14.51.27,1,.41,1.52.07.23.12.44.18.66a.14.14,0,0,1,0,.06c.06.18.11.38.16.57.23.83.48,1.66.73,2.48l.17.58.78,2.44.2.58c0,.11.06.21.1.32L627.75,1537l-9.53,6.91c2.06,5.68,2.39,7.12,5.11,12.67s3.66,6.69,6.91,11.8l11.3-3.32,15.07-4.43c0,.05.07.09.1.15l.35.51c.48.71,1,1.42,1.46,2.12.1.16.23.33.35.49.49.7,1,1.4,1.51,2.1l.31.42.69.92c.23.3.47.6.69.91l.32.41c.53.69,1.07,1.37,1.61,2,.13.16.24.31.37.46.54.67,1.1,1.34,1.65,2l.39.46.11.13L658.15,1587l-6.3,10a93.39,93.39,0,0,0,9.45,9.87c4.6,4.14,5.89,4.85,10.8,8.39l9.27-7.3,12.33-9.69c.09,0,.18.12.28.19l.51.33c.7.48,1.41,1,2.13,1.42l.52.34c.72.46,1.44.92,2.18,1.37l.51.32,0,0,.59.36,1.35.81.24.14.24.15,1.38.78.58.34.06,0,.51.28c.76.42,1.51.85,2.28,1.25l.52.28,2.29,1.18.54.27.3.16-2.48,15.51-1.85,11.62c5.47,2.57,6.72,3.36,12.57,5.36s7.32,2.14,13.22,3.45l5.64-10.32,7.54-13.8.17,0,.6.12c.84.16,1.68.32,2.53.46l.59.11,2.57.41.52.07,1.14.17,1.13.15.51.07c.86.11,1.72.21,2.59.3l.58.07,2.58.25.59,0,.18,0,3.46,15.3,2.61,11.51c6,.35,7.49.61,13.66.29a91.54,91.54,0,0,0,13.56-1.7l1.41-11.71,1.86-15.58.32-.06.63-.12,2.48-.5.62-.14c.83-.18,1.66-.36,2.5-.56l.6-.14h0l.67-.17,1.53-.38.26-.07.29-.07,1.52-.41.66-.18,0,0,.56-.16c.84-.23,1.67-.48,2.5-.73l.56-.17,2.46-.78.57-.2a2.07,2.07,0,0,0,.33-.1l9.22,12.73,6.91,9.53c5.68-2.06,7.12-2.39,12.67-5.12s6.69-3.65,11.79-6.9l-3.31-11.3-4.43-15.07a1.21,1.21,0,0,0,.14-.1l.53-.35,2.1-1.45.51-.36,2.08-1.51c.15-.1.29-.21.43-.32l.92-.68.9-.69.42-.33c.69-.52,1.36-1.06,2-1.6l.48-.37c.66-.55,1.33-1.09,2-1.64l.47-.4.13-.12,13.27,8.38,10,6.3c4.52-4,5.73-4.87,9.87-9.46s4.85-5.88,8.39-10.79l-7.3-9.28-9.7-12.32c.07-.09.12-.18.18-.27l.36-.53,1.41-2.11.34-.54c.46-.71.91-1.43,1.36-2.15.11-.18.22-.37.33-.54v0c.13-.2.25-.4.37-.6.27-.45.53-.9.8-1.34l.15-.25a2,2,0,0,1,.14-.25l.79-1.37.33-.58,0-.06.29-.52c.43-.75.84-1.51,1.24-2.26l.29-.53c.4-.76.79-1.53,1.18-2.29l.27-.54.15-.3,15.51,2.47,11.63,1.86c2.57-5.48,3.35-6.73,5.35-12.58s2.15-7.31,3.46-13.22l-10.32-5.64-13.81-7.53a1,1,0,0,0,0-.17c0-.2.08-.41.13-.61.16-.84.31-1.68.46-2.52l.11-.62c.14-.84.28-1.69.4-2.53,0-.18.06-.35.08-.53.06-.38.11-.76.17-1.13l.15-1.13.06-.52c.12-.86.21-1.72.31-2.58,0-.2,0-.4.07-.6.09-.86.17-1.71.24-2.56,0-.21,0-.41.05-.61s0-.12,0-.18l15.3-3.46,11.51-2.6c.35-6,.61-7.49.29-13.67s-.73-7.59-1.7-13.56l-11.72-1.4Zm-61.65,21.52a75.73,75.73,0,1,1-79.54-71.71A75.72,75.72,0,0,1,848.42,1479.26Z" transform="translate(-221.63 -113.89)"/>
    <rect class="cls-3" x="732.89" y="1442.06" width="1788.36" height="112.18" rx="56.09"/>
    <path class="cls-4" d="M1602.38,784.18h73.2A512.83,512.83,0,0,1,1687.32,675L1448.48,261.31,821.87,1346.62H1443l-82.67-143.19Z" transform="translate(-221.63 -113.89)"/>
    <path class="cls-5" d="M2696.92,784.17c0,147.21-62.28,279.87-161.94,373.05q-16.2,15.21-33.75,28.92a509.26,509.26,0,0,1-220.41,100l47.73-82.68-168-291-74-128.22H1750.37l-63-109.17C1736,451.5,1931,282.63,2167,273.87c6.39-.24,12.84-.36,19.29-.36q13.36,0,26.58.69h0q11.34.58,22.5,1.65a510,510,0,0,1,97.74,19.08c8.43,2.52,16.74,5.28,25,8.22q19.21,6.84,37.74,15.21c6.84,3.06,13.59,6.3,20.25,9.66h0c135.27,68.31,236,195,269.1,347A511.7,511.7,0,0,1,2696.92,784.17Z" transform="translate(-221.63 -113.89)"/>
    <path class="cls-6" d="M1750.36,784.18l-63-109.19a512.83,512.83,0,0,0-11.74,109.19Z" transform="translate(-221.63 -113.89)"/>
    <path class="cls-7" d="M2280.82,1286.1,2169,1479.78l-50.07,86.72-22.26,38.55-10.17,17.61h-484.1L1443,1346.61h632.09l-43.71-75.69a513.67,513.67,0,0,0,249.45,15.18Z" transform="translate(-221.63 -113.89)"/>
    <path class="cls-8" d="M2031.38,1270.92l-281-486.74h-74.78C1675.58,1012.22,1825.06,1205.32,2031.38,1270.92Z" transform="translate(-221.63 -113.89)"/>
    <polygon class="cls-9" points="1372.56 536.89 1311.2 643.17 1433.92 643.17 1372.56 536.89"/>
    <circle class="cls-10" cx="1967.46" cy="578.26" r="146.5" transform="translate(-54.27 1446.68) rotate(-45)"/>
    <g>
      <path class="cls-11" d="M688,1545.81c-114.3,0-210.7,76.66-240.58,181.37H928.58C898.7,1622.47,802.3,1545.81,688,1545.81Z" transform="translate(-221.63 -113.89)"/>
      <path class="cls-11" d="M1344.35,1545.81c-114.3,0-210.7,76.66-240.59,181.37h481.18C1555.05,1622.47,1458.66,1545.81,1344.35,1545.81Z" transform="translate(-221.63 -113.89)"/>
      <path class="cls-11" d="M1031.65,1468.11c-163.28,0-301,109.5-343.66,259.07H1375.3C1332.61,1577.61,1194.92,1468.11,1031.65,1468.11Z" transform="translate(-221.63 -113.89)"/>
    </g>
    <g>
      <path class="cls-12" d="M1418.34,487.72c-30.54-2.53-68,17.74-78.93,48s11.8,62,40.52,72.42,87.69-19.36,98.66-49.6S1457,490.92,1418.34,487.72Z" transform="translate(-221.63 -113.89)"/>
      <path class="cls-12" d="M1317.12,446c-55.31-44.57-153.31-54.4-213.44-10.73s-57.52,134.14-15.91,191.44S1256,719.06,1350.6,660.34C1413.74,621.15,1387.16,502.44,1317.12,446Z" transform="translate(-221.63 -113.89)"/>
      <path class="cls-12" d="M1351.87,643.66c-40.82-33.71-112-42.58-154.82-11.47s-39.44,97.7-8.33,140.53,141.31,59.85,184.15,28.74S1403.57,686.34,1351.87,643.66Z" transform="translate(-221.63 -113.89)"/>
      <path class="cls-13" d="M1286.16,699.66C1326.28,785.44,1418.55,827,1471,802.51s45.13-105.85,5-191.63-103-109.55-155.45-85S1246.05,613.89,1286.16,699.66Z" transform="translate(-221.63 -113.89)"/>
      <path class="cls-13" d="M1261.34,747.24c9.34,20,41.1,36.23,55.56,29.47s10.51-24.64,1.17-44.6-29.8-33.17-44.25-26.4S1252,727.28,1261.34,747.24Z" transform="translate(-221.63 -113.89)"/>
      <path class="cls-12" d="M1248.16,650.86s-7.57-63.43,26.13-103.38,118.14-75.28,171.61-7.62c0,0,33.58,51.54-32,86.78s-67.27-5.8-87.92,41.13-60.68,33.21-64,43.47Z" transform="translate(-221.63 -113.89)"/>
      <path class="cls-14" d="M1413.32,1295.19c-2.82,5.55-5,14.07-6.51,25.11-1.08,7.62-1.86,16.47-2.43,26.31H1074.29c19.65-141.84,55.38-273.24,100.71-347.58,79.65-130.65,79.83-109.14,108.66-121.2,3.54-1.47,7.11-2.79,10.71-3.9,33.42-10.5,69.6-6.21,97.62,14.07a101.73,101.73,0,0,1,10.14,8.34l1.8,1.71c26.34,25.41,34.47,72.06,39.06,125.85,1.83,21.36,3.09,43.86,4.71,66.63C1453.4,1170.54,1484,1156,1413.32,1295.19Z" transform="translate(-221.63 -113.89)"/>
      <path class="cls-13" d="M1316.14,712.21l99.07,8.7c-1.18,13.57-14.72,142.33-28.6,189.21-6.33,14.06-31.85,16.28-57,5-22.62-10.18-37.09-27.8-35.21-41.48l-.11,0C1302.61,845.45,1312,759.61,1316.14,712.21Z" transform="translate(-221.63 -113.89)"/>
      <path class="cls-15" d="M1367.24,1346.61h-100c-31.89-88.47-55-198.57-78.84-335.94-13.32-76.59,118.47-102.78,127.92,27.36C1326.32,1175.28,1340.27,1273.56,1367.24,1346.61Z" transform="translate(-221.63 -113.89)"/>
      <g>
        <path class="cls-16" d="M1421.68,657.18C1431.6,673,1428,706,1411.15,716.5s-40.21-.42-50.12-16.28,1-32.9,17.89-43.45S1411.76,641.31,1421.68,657.18Z" transform="translate(-221.63 -113.89)"/>
        <path class="cls-16" d="M1440.94,645.13c9.92,15.86,41.08,27.06,58,16.51s17.23-36.33,7.31-52.19-30-13.49-46.9-2.94S1431,629.27,1440.94,645.13Z" transform="translate(-221.63 -113.89)"/>
        <path class="cls-16" d="M1413.66,649.2s7.86-12.61,23.63-14.77" transform="translate(-221.63 -113.89)"/>
        <line class="cls-16" x1="1281.4" y1="491.44" x2="1289.97" y2="486.08"/>
        <line class="cls-16" x1="1128.68" y1="586.93" x2="1137.25" y2="581.57"/>
      </g>
    </g>
    <g>
      <path class="cls-12" d="M2230.36,212.19c35.61-9.58,82.91,4.95,100.58,36.51s-4.18,72.29-36.4,90.33-106.42-2.42-124.09-34S2185.28,224.32,2230.36,212.19Z" transform="translate(-221.63 -113.89)"/>
      <path class="cls-12" d="M2724.32,467.1c49.8-53.34,148-77.53,215.52-41.83s77.93,128.1,43.91,192.4S2826,736,2721.32,689.94C2651.43,659.23,2661.27,534.65,2724.32,467.1Z" transform="translate(-221.63 -113.89)"/>
      <path class="cls-12" d="M2368.55,279.17s92.62,84.28,157,82.4,98.58-11,155.43,50.18,118-17.6,156.49,62-100.17,263.72-229.63,180.31c-106.63-68.7-72.51-94-151.26-93.68-31.11.15-86.77-9.25-129.59-55.1S2368.55,279.17,2368.55,279.17Z" transform="translate(-221.63 -113.89)"/>
      <path class="cls-13" d="M2392.8,423c-26.42,93.63-113,151.12-170.26,135s-63.34-99.81-36.93-193.43,86.23-128.18,143.45-112S2419.21,329.35,2392.8,423Z" transform="translate(-221.63 -113.89)"/>
      <path class="cls-13" d="M2425.87,467.08c-6.14,21.79-35.64,43.56-51.42,39.11s-14.75-23.23-8.6-45,24.69-38.57,40.47-34.11S2432,445.29,2425.87,467.08Z" transform="translate(-221.63 -113.89)"/>
      <path class="cls-12" d="M2423.21,367.18s-2.86-65.56-43.66-100.46-132.28-56.67-175.24,20.8c0,0-25.48,57.83,46.88,82.66s67.23-17.06,96,27.07,67,23.59,72.09,33.44Z" transform="translate(-221.63 -113.89)"/>
      <path class="cls-15" d="M2501.23,1186.14a509.26,509.26,0,0,1-220.41,100,514.24,514.24,0,0,1-94.56,8.76c-6.93,0-13.86-.15-20.73-.42,12-105,32.76-196.89,27.21-232.11-10-63.57-22.65-111.36-32.22-149.94-17.13-68.94-24.54-108.36,10-155.49,45.27-61.92,99.09-124.41,145.32-155.31A145.77,145.77,0,0,1,2342.68,587c10.56-4.2,48.42-7.74,73.65,3.75a45.2,45.2,0,0,1,15,10.59,174.13,174.13,0,0,1,31,49.32c10.56,25.08,17.58,56.34,20.31,97C2489.68,851.28,2484.43,1020.24,2501.23,1186.14Z" transform="translate(-221.63 -113.89)"/>
      <path class="cls-13" d="M2400.15,431l-102,6c.81,14,10.95,146.58,23.83,195.13,6.09,14.62,32.23,17.65,58.39,6.76,23.52-9.79,38.89-27.46,37.37-41.56l.11,0C2410.15,568.22,2403.05,479.8,2400.15,431Z" transform="translate(-221.63 -113.89)"/>
      <path class="cls-14" d="M2535,1157.22q-16.2,15.21-33.75,28.92a508.22,508.22,0,0,1-98.34,60.57c29.4-135.12,24.27-266.07-25.65-486.24-12.63-55.71,43.38-123.57,85.17-109.77,15.48,5.13,29,21.45,36.36,53.67C2540.41,886.32,2552.14,1026.12,2535,1157.22Z" transform="translate(-221.63 -113.89)"/>
    </g>
    <path class="cls-17" d="M2031.38,1270.92c-206.32-65.6-355.8-258.7-355.8-486.74h-73.2l-242.06,419.25L1443,1346.62h632.09Z" transform="translate(-221.63 -113.89)"/>
    <path class="cls-18" d="M2328.55,1203.42l-47.73,82.68a514.24,514.24,0,0,1-94.56,8.76c-6.93,0-13.86-.15-20.73-.42a509.8,509.8,0,0,1-134.16-23.52l-281-486.75h336.11l74,128.22Z" transform="translate(-221.63 -113.89)"/>
    <g>
      <path class="cls-14" d="M2118.91,1464.12V1566.5l-22.26,38.55-10.17,17.61H1789.07V1464.12a166.2,166.2,0,0,1,1.59-23,164.31,164.31,0,0,1,47.6-94.5c1.29-1.26,2.61-2.52,3.93-3.75q2.83-2.65,5.85-5.13,5.63-4.73,11.7-9c1.53-1.08,3.12-2.13,4.68-3.15s3.18-2,4.77-3c1.35-.78,2.7-1.56,4-2.31,1-.57,2-1.11,3-1.65q1.93-1.08,4-2.07c1.2-.6,2.37-1.17,3.57-1.71,3.66-1.74,7.41-3.36,11.25-4.8,3.54-1.38,7.17-2.61,10.86-3.72,1-.3,1.89-.57,2.85-.84a158.35,158.35,0,0,1,21.45-4.59c1.26-.18,2.52-.36,3.78-.51.51-.06,1-.12,1.47-.15l3.15-.36,3.36-.27c1.71-.12,3.42-.21,5.16-.27.93-.06,1.89-.09,2.85-.09,1.32,0,2.67-.06,4-.06q2.61,0,5.22.09c.57,0,1.14,0,1.68.06,1.53.06,3.06.15,4.59.24,2.46.18,4.89.39,7.35.69,1.41.15,2.85.33,4.26.54.33,0,.69.09,1,.15,1.32.18,2.64.39,4,.63s2.7.48,4.08.78c1.17.21,2.31.45,3.45.72,1.83.39,3.66.84,5.46,1.29,2.25.57,4.5,1.2,6.72,1.89,1,.3,2,.6,3,.93s1.71.54,2.58.87l1.83.63c1.47.51,2.91,1,4.35,1.62.63.24,1.26.48,1.89.75,2.43,1,4.83,2,7.2,3.09,1.2.54,2.34,1.11,3.51,1.68,2.55,1.2,5.07,2.52,7.53,3.9,1.56.87,3.12,1.74,4.68,2.67a165.85,165.85,0,0,1,31.23,24.18c.33.3.63.6.93.9a165.17,165.17,0,0,1,48.33,116.61Z" transform="translate(-221.63 -113.89)"/>
      <path class="cls-5" d="M1842.2,1342.86l40.41,226.22,155.83-246.64a165,165,0,0,0-196.24,20.42Z" transform="translate(-221.63 -113.89)"/>
      <path class="cls-13" d="M2031.82,1135.12c-39.94,98.15-140.69,149.9-200.68,125.49s-56.48-115.73-16.53-213.89,108.89-128.31,168.88-103.9S2071.77,1037,2031.82,1135.12Z" transform="translate(-221.63 -113.89)"/>
      <path class="cls-13" d="M2014.74,1138.59,1904,1127.78c-1.5,15.16-13.1,159.58-7.48,214,4.07,16.76,31.69,24.45,61.69,17.17,27-6.54,46.51-22.94,47.27-38.37l.12,0C2002.21,1287.94,2009.58,1191.58,2014.74,1138.59Z" transform="translate(-221.63 -113.89)"/>
      <path class="cls-12" d="M1844.18,965.63c2.38-3.34,4.93-6.21,7.44-9.15-4.93-7.15-8.8-15.7-5.29-23.35,4.35-9.47,16.81-11.2,27.22-11.64-.79-9.27-.5-19,3.49-27.36s12.4-15.23,21.7-15c8.93.2,13.85,3,21.31-3.27,4.73-4,6.35-11.13,11.57-14.65C1937.8,857,1946,863.8,1948,871s1,15.16,4.31,21.81c2.75,5.47,8,9.13,12.46,13.34,6.43,6.1,11.16,13.59,14.89,21.66,22.88,8.52,43.12,22,56.73,36.58a114.93,114.93,0,0,1,21.5,34,19.26,19.26,0,0,0,3.64,2.13c2.85,1.16,6,1.4,9,2.09,13.91,3.16,24.32,16,27.18,30s-.9,28.66-7.66,41.22c-3.64,6.78-8.32,13.89-7.09,21.49.54,3.36,2.21,6.42,3.49,9.58,3.72,9.2,3.95,20.05-.63,28.86s-14.33,15-24.22,14.26a42.26,42.26,0,0,1-10.17-2.5c-5.21-1.77-12.28-3.65-19.38-6-15-3.2-33.19-11.26-46.51-37.76-25.76-51.26-25.28-5.3-100.61-40.94S1844.18,965.63,1844.18,965.63Z" transform="translate(-221.63 -113.89)"/>
      <path class="cls-14" d="M2169,1479.78l-50.07,86.72-22.26,38.55c-15.06-30.42-31.62-63-49.35-98.15-46.77-92.61-13.26-165.15,35.58-145.62,17.67,7,37.32,26.13,55.95,60.66Q2154.81,1451.55,2169,1479.78Z" transform="translate(-221.63 -113.89)"/>
      <path class="cls-13" d="M2062.28,1179.73c-9.29,22.85-43.87,42.84-60.41,36.11s-13.15-26.94-3.85-49.79,31.41-38.76,48-32S2071.58,1156.89,2062.28,1179.73Z" transform="translate(-221.63 -113.89)"/>
    </g>
    <polygon class="cls-19" points="1428.6 969.26 1298.01 969.26 1232.71 1082.36 1298.01 1195.45 1428.6 1195.45 1493.89 1082.36 1428.6 969.26"/>
    <g>
      <ellipse class="cls-2" cx="1465.7" cy="128.17" rx="181.37" ry="128.17"/>
      <g>
        <g>
          <circle class="cls-1" cx="1616.57" cy="214.42" r="14.64" transform="translate(-180.64 521.07) rotate(-22.5)"/>
          <circle class="cls-1" cx="1687.34" cy="214.42" r="14.64" transform="translate(-175.25 548.15) rotate(-22.5)"/>
          <circle class="cls-1" cx="1758.1" cy="214.42" r="14.64" transform="translate(-169.86 575.23) rotate(-22.5)"/>
        </g>
        <g>
          <circle class="cls-1" cx="1616.57" cy="269.69" r="14.64" transform="translate(-201.79 525.27) rotate(-22.5)"/>
          <circle class="cls-1" cx="1687.34" cy="269.69" r="14.64" transform="translate(-196.4 552.35) rotate(-22.5)"/>
          <circle class="cls-1" cx="1758.1" cy="269.69" r="14.64" transform="translate(-191.02 579.43) rotate(-22.5)"/>
        </g>
      </g>
      <polygon class="cls-2" points="1494.08 195.11 1573.68 286.56 1545.94 172.99 1494.08 195.11"/>
    </g>
    <g>
      <circle class="cls-11" cx="2132.59" cy="1303.27" r="100.4"/>
      <polyline class="cls-20" points="2083.09 1286.91 2131.09 1348.4 2182.09 1271.77"/>
    </g>
    <polygon class="cls-11" points="1793.22 106.28 1733.22 11.69 1673.23 106.28 1717.47 106.28 1717.47 283.15 1748.97 283.15 1748.97 106.28 1793.22 106.28"/>
    <g>
      <polygon class="cls-2" points="2397.96 1034.6 2397.96 1124.5 2320.09 1079.55 2397.96 1034.6"/>
      <path class="cls-21" d="M2758.87,752.65h204.79a70.52,70.52,0,0,1,70.52,70.52h0a70.52,70.52,0,0,1-70.52,70.52H2832.72a73.85,73.85,0,0,0-73.85,73.86h0a73.85,73.85,0,0,0,73.85,73.85h304.21a76,76,0,0,1,76,76h0a76,76,0,0,1-76,76H2580.66" transform="translate(-221.63 -113.89)"/>
    </g>
    <g>
      <polygon class="cls-11" points="3064.77 1268.23 3064.77 1358.14 3142.63 1313.19 3064.77 1268.23"/>
      <path class="cls-22" d="M3147.13,986.29h-204.8a70.52,70.52,0,0,0-70.52,70.52h0a70.52,70.52,0,0,0,70.52,70.52h130.94a73.85,73.85,0,0,1,73.86,73.85h0a73.86,73.86,0,0,1-73.86,73.86h-304.2a76,76,0,0,0-76,76h0a76,76,0,0,0,76,76h556.26" transform="translate(-221.63 -113.89)"/>
    </g>
    <g>
      <path class="cls-4" d="M2855.35,1361c0,4.44-.12,8.82-.33,13.2a273.94,273.94,0,0,1-4.32,36.2c-14.64,79.35-60.3,143.7-81.72,170.34-6.9,8.61-11.28,13.29-11.28,13.29s-4.38-4.68-11.28-13.29c-20.85-26-64.62-87.54-80.46-164a276.38,276.38,0,0,1-5.22-37.1c-.45-6.15-.69-12.39-.69-18.66a271.76,271.76,0,0,1,5.88-55.56c1.77-8.7,3.93-17.22,6.39-25.5a368,368,0,0,1,22.35-57.06q5.35-11,10.95-20.91a444.12,444.12,0,0,1,40.8-60.72c6.9-8.61,11.28-13.29,11.28-13.29s4.38,4.68,11.28,13.29a445.54,445.54,0,0,1,39,57.45c3.72,6.57,7.47,13.5,11.1,20.79a374.46,374.46,0,0,1,22.86,56.52c2.52,8.19,4.77,16.59,6.69,25.2A276.19,276.19,0,0,1,2855.35,1361Z" transform="translate(-221.63 -113.89)"/>
      <path class="cls-23" d="M2855,1374.16a273.94,273.94,0,0,1-4.32,36.2L2769,1492.08V1643.4h-22.56V1497.18L2666,1416.72a276.38,276.38,0,0,1-5.22-37.1l85.68,85.67v-79.4l-80.49-80.49c1.77-8.7,3.93-17.22,6.39-25.5l74.1,74.1v-79.38l-51.75-51.78q5.35-11,10.95-20.91l40.8,40.8V1141.21c6.9-8.61,11.28-13.29,11.28-13.29s4.38,4.68,11.28,13.29v96.42l39-39c3.72,6.57,7.47,13.5,11.1,20.79L2769,1269.52v79.38l72.93-72.93c2.52,8.19,4.77,16.59,6.69,25.2L2769,1380.79v79.4Z" transform="translate(-221.63 -113.89)"/>
    </g>
    <g>
      <path class="cls-4" d="M2997.26,1565.15c-3.14,3.14-6.32,6.15-9.57,9.1A274.66,274.66,0,0,1,2959,1596.8c-66.46,45.75-144.25,59-178.24,62.66-11,1.21-17.37,1.42-17.37,1.42s.21-6.41,1.42-17.37c3.61-33.1,16.21-107.6,59.06-172.85a275.16,275.16,0,0,1,22.55-29.93c4-4.67,8.27-9.25,12.7-13.68a271.78,271.78,0,0,1,43.45-35.13c7.4-4.9,14.95-9.4,22.55-13.51a367.59,367.59,0,0,1,56.15-24.55c7.7-2.65,15.21-5,22.53-7a443.09,443.09,0,0,1,71.78-14.08c11-1.21,17.38-1.43,17.38-1.43s-.22,6.41-1.43,17.38a445,445,0,0,1-13.06,68.18c-2,7.27-4.27,14.82-6.85,22.55a375.25,375.25,0,0,1-23.81,56.13q-6,11.35-13.08,22.55A276.25,276.25,0,0,1,2997.26,1565.15Z" transform="translate(-221.63 -113.89)"/>
      <path class="cls-23" d="M2987.69,1574.25A274.66,274.66,0,0,1,2959,1596.8H2843.47l-107,107-15.95-16,103.39-103.39V1470.66a275.16,275.16,0,0,1,22.55-29.93V1561.9l56.15-56.15V1391.92c7.4-4.9,14.95-9.4,22.55-13.51V1483.2l56.13-56.13,0-73.21c7.7-2.65,15.21-5,22.53-7v57.7l71.78-71.78c11-1.21,17.38-1.43,17.38-1.43s-.22,6.41-1.43,17.38l-68.17,68.18h55.11c-2,7.27-4.27,14.82-6.85,22.55h-70.81l-56.13,56.13h103.13q-6,11.35-13.08,22.55h-112.6L2866,1574.25Z" transform="translate(-221.63 -113.89)"/>
    </g>
    <g>
      <path class="cls-13" d="M2434.86,1591.54a187.17,187.17,0,0,0-179.93,135.64h359.85A187.17,187.17,0,0,0,2434.86,1591.54Z" transform="translate(-221.63 -113.89)"/>
      <path class="cls-13" d="M2696.21,1545.81c-114.3,0-210.7,76.66-240.58,181.37H2936.8C2906.91,1622.47,2810.52,1545.81,2696.21,1545.81Z" transform="translate(-221.63 -113.89)"/>
    </g>
    <g>
      <path class="cls-22" d="M888.16,910.81a153.76,153.76,0,1,1,153.75-153.75" transform="translate(-221.63 -113.89)"/>
      <polygon class="cls-11" points="762.45 605.72 866.21 605.72 814.33 695.59 762.45 605.72"/>
    </g>
    <circle class="cls-13" cx="1453.95" cy="355.06" r="29.93"/>
    <circle class="cls-13" cx="789.45" cy="1088.55" r="29.93"/>
    <circle class="cls-13" cx="2320.1" cy="1217.42" r="29.93"/>
    <circle class="cls-13" cx="1372.56" cy="294.5" r="20.56"/>
    <circle class="cls-13" cx="2365.94" cy="1303.27" r="20.56"/>
    <circle class="cls-13" cx="1943.92" cy="518.03" r="20.56"/>
  </g>
</svg>
