<svg xmlns="http://www.w3.org/2000/svg" xmlns:xlink="http://www.w3.org/1999/xlink" width="135.08" height="135.08" viewBox="0 0 135.08 135.08">
  <defs>
    <style>
      .cls-1 {
        fill: #ffecb3;
      }

      .cls-2 {
        isolation: isolate;
      }

      .cls-3 {
        clip-path: url(#clip-path);
      }

      .cls-4 {
        fill: #00bebc;
      }

      .cls-5 {
        fill: #008c87;
      }

      .cls-19, .cls-6 {
        fill: #dbe5eb;
      }

      .cls-7 {
        fill: #ff9267;
      }

      .cls-8 {
        fill: #f87948;
      }

      .cls-9 {
        fill: #00736b;
      }

      .cls-10 {
        fill: #ee5c1d;
      }

      .cls-11 {
        fill: #ffba83;
      }

      .cls-12 {
        fill: #ffdbb6;
      }

      .cls-13 {
        fill: #642308;
      }

      .cls-14 {
        fill: #fff;
      }

      .cls-15 {
        fill: #893412;
      }

      .cls-16 {
        fill: #a84b1b;
      }

      .cls-17 {
        fill: #a7e2e2;
      }

      .cls-18 {
        fill: #bdf3f2;
      }

      .cls-19 {
        mix-blend-mode: multiply;
      }
    </style>
    <clipPath id="clip-path">
      <circle class="cls-1" cx="67.54" cy="67.54" r="67.54"/>
    </clipPath>
  </defs>
  <g class="cls-2">
    <g id="Layer_1" data-name="Layer 1">
      <g>
        <circle class="cls-1" cx="67.54" cy="67.54" r="67.54"/>
        <g class="cls-3">
          <g>
            <g>
              <g>
                <g>
                  <path class="cls-4" d="M93.67,90.31C90.46,85.15,77.74,80,69.2,79v-.17c-.42,0-.87,0-1.34,0s-.91,0-1.34,0V79C58,80,45.26,85.15,42.06,90.31c-3.56,5.75,8.47,19.21,8.47,19.21l17.33-1.07,17.34,1.07S97.23,96.06,93.67,90.31Z"/>
                  <path class="cls-5" d="M81.64,90.1c-1.76-3.32-8.76-6.65-13.45-7.28v-.11l-.74,0-.74,0v.11c-4.69.63-11.69,4-13.45,7.28-2,3.7,4.66,12.36,4.66,12.36l9.53-.69,9.53.69S83.6,93.8,81.64,90.1Z"/>
                </g>
                <g>
                  <polygon class="cls-6" points="81.24 95.73 80.02 123.77 79.89 126.82 79.57 134.13 55.3 134.13 55.12 129.51 55.06 128.03 54.48 113.06 54.39 110.88 53.78 95.41 67.41 104.65 81.24 95.73"/>
                  <path class="cls-5" d="M55.3,134.13H12c6.09-18.53,22.79-23.64,25.84-25.76,1.75-1.21,4.53-3.43,7.29-5.7,4.35-3.57,8.64-7.26,8.64-7.26Z"/>
                  <path class="cls-5" d="M123.07,134.13c-6.09-18.53-22.79-23.64-25.84-25.76-4.49-3.12-16-12.65-16-12.65l-1.67,38.41Z"/>
                </g>
                <g>
                  <path class="cls-7" d="M81.24,95.72s-7.75,20.48-13.93,20.41S53.78,95.41,53.78,95.41a10.9,10.9,0,0,0,.63-1.18c3.09-6.58,2.81-19.34,2.81-19.34H77.6s-.29,12.77,2.8,19.34A11.62,11.62,0,0,0,81.24,95.72Z"/>
                  <path class="cls-8" d="M80.4,94.23a49.26,49.26,0,0,1-6.65,4,11,11,0,0,1-12.68,0,48.71,48.71,0,0,1-6.66-4c3.09-6.58,2.81-19.34,2.81-19.34H77.6S77.31,87.66,80.4,94.23Z"/>
                </g>
                <g>
                  <polygon class="cls-9" points="34.09 134.13 30.34 134.13 28.73 120.51 34.09 134.13"/>
                  <polygon class="cls-9" points="100.99 134.13 104.74 134.13 106.35 120.51 100.99 134.13"/>
                </g>
                <path class="cls-4" d="M55.3,134.13H49.19c-2.83-4.86-7-16.86-7.89-20.68-.81-3.3.93-6.12,3.84-10.78,4.35-3.57,8.64-7.26,8.64-7.26Z"/>
                <path class="cls-4" d="M79.57,134.13h6.12c2.82-4.86,7-16.86,7.88-20.68.81-3.3-.92-6.16-3.83-10.82-4.36-3.57-8.65-7.22-8.65-7.22Z"/>
              </g>
              <g>
                <g>
                  <g>
                    <path class="cls-7" d="M48.84,59.47S46.54,47.15,42.93,49s-3.78,16.51,5.91,20.48Z"/>
                    <path class="cls-10" d="M46.58,63.7a20.93,20.93,0,0,0-.18-2.42,22.11,22.11,0,0,0-.61-2.92,20.84,20.84,0,0,0-2.17-5c-.36-.59-.67-1-.9-1.36l-.36-.48.77,2.08c.32.88.7,2,1.09,3.26L44,57a2.88,2.88,0,0,0-.84.64,3.31,3.31,0,0,0-.66,1.13,3.59,3.59,0,0,0,.05,2.3,2.75,2.75,0,0,0,.3.62l.14.21,0-.25c0-.15,0-.38.07-.64a11.28,11.28,0,0,1,.45-1.89,7.52,7.52,0,0,1,.38-1,4.91,4.91,0,0,1,.44-.76h0c.12.4.25.81.37,1.24.28,1,.53,1.93.75,2.79s.4,1.65.54,2.32.26,1.2.33,1.58l.12.59.05-.6C46.56,65,46.58,64.4,46.58,63.7Z"/>
                  </g>
                  <g>
                    <path class="cls-7" d="M86,59.47S88.28,47.15,91.89,49,95.66,65.47,86,69.44Z"/>
                    <path class="cls-10" d="M88.24,63.7a20.93,20.93,0,0,1,.18-2.42,20.29,20.29,0,0,1,2.78-7.87c.36-.59.67-1,.9-1.36l.36-.48s-.3.79-.77,2.08c-.32.88-.7,2-1.09,3.26l.2.1a2.91,2.91,0,0,1,.85.64,3.31,3.31,0,0,1,.66,1.13,3.59,3.59,0,0,1,0,2.3,3.19,3.19,0,0,1-.31.62,1.48,1.48,0,0,1-.14.21l0-.25c0-.15,0-.38-.08-.64a11.17,11.17,0,0,0-.44-1.89,9.4,9.4,0,0,0-.38-1,5.87,5.87,0,0,0-.44-.76h0c-.13.4-.25.81-.37,1.24-.28,1-.54,1.93-.76,2.79s-.4,1.65-.54,2.32-.25,1.2-.32,1.58-.12.59-.12.59,0-.22,0-.6A14.81,14.81,0,0,1,88.24,63.7Z"/>
                  </g>
                </g>
                <path class="cls-11" d="M86.77,74.12a20.65,20.65,0,0,1-5.85,11.8,30.39,30.39,0,0,1-6.77,5.19c-.73.42-1.42.79-2.08,1.12a8.14,8.14,0,0,1-4.36,1.47h-.3a8.12,8.12,0,0,1-4.66-1.47c-5.3-2.61-13.4-8.16-14.71-18.11A164.47,164.47,0,0,1,47.28,50c.13-4.67.36-8.73.54-11.36.12-2,.22-3.14.22-3.14a33.54,33.54,0,0,1,6.69-6.21,22.32,22.32,0,0,1,12.68-4.46,21.55,21.55,0,0,1,11.4,3.61,33.63,33.63,0,0,1,8,7.06S88.74,59.13,86.77,74.12Z"/>
                <g>
                  <path class="cls-12" d="M82.87,64.82c.45.06,1.07.21,1.15.74s-.4.78-.82.93a31.48,31.48,0,0,1-3.81,1.14c-1,.22-2.82.89-3.82.56s-.26-1.41.25-1.8A9.89,9.89,0,0,1,82.87,64.82Z"/>
                  <path class="cls-12" d="M52,64.82c-.45.06-1.08.21-1.16.74s.41.78.82.93a32,32,0,0,0,3.81,1.14c1,.22,2.83.89,3.82.56s.27-1.41-.24-1.8A9.91,9.91,0,0,0,52,64.82Z"/>
                </g>
                <g>
                  <g>
                    <path class="cls-13" d="M83.3,58.2a7.16,7.16,0,0,0-5.72-2.35,7,7,0,0,0-5.38,3,7.19,7.19,0,0,1,5.28-4.33,5.64,5.64,0,0,1,3.88.87A4.68,4.68,0,0,1,83.3,58.2Z"/>
                    <g>
                      <path class="cls-13" d="M78.14,58.4c0,1.77-.94,3.2-2.11,3.2s-2.11-1.43-2.11-3.2.94-3.2,2.11-3.2S78.14,56.63,78.14,58.4Z"/>
                      <path class="cls-14" d="M80.36,58a4.43,4.43,0,0,0-4,.78,2.86,2.86,0,0,0,2,.54A3.92,3.92,0,0,0,80.36,58Z"/>
                    </g>
                  </g>
                  <g>
                    <path class="cls-13" d="M51.51,58.2a7.17,7.17,0,0,1,5.73-2.35,7,7,0,0,1,5.37,3,7.19,7.19,0,0,0-5.27-4.33,5.63,5.63,0,0,0-3.88.87A4.65,4.65,0,0,0,51.51,58.2Z"/>
                    <g>
                      <path class="cls-13" d="M53,58.4c0,1.77.94,3.2,2.11,3.2s2.11-1.43,2.11-3.2-.94-3.2-2.11-3.2S53,56.63,53,58.4Z"/>
                      <path class="cls-14" d="M55,58.24a4.49,4.49,0,0,1,4,.78,2.8,2.8,0,0,1-2,.54A3.79,3.79,0,0,1,55,58.24Z"/>
                    </g>
                  </g>
                </g>
                <g>
                  <path class="cls-7" d="M74.93,77.57l-.62-.27c-.19-.08-.43-.19-.72-.3s-.59-.24-1-.36a26,26,0,0,0-2.5-.78c-.94-.24-2-.47-3.08-.65s-2.16-.29-3.13-.36-1.86-.07-2.61,0c-.38,0-.72,0-1,0a7.33,7.33,0,0,0-.77.06l-.68,0,.61-.3a6.78,6.78,0,0,1,.73-.32,9.53,9.53,0,0,1,1-.35,13.71,13.71,0,0,1,9.42.55A14,14,0,0,1,73,75.91a9.55,9.55,0,0,1,.84.65,6.85,6.85,0,0,1,.59.53Z"/>
                  <path class="cls-7" d="M60.21,72.39l.11.21a2.42,2.42,0,0,1,.19.62,2.82,2.82,0,0,1-2.08,3.21,2.4,2.4,0,0,1-.64.08h-.23s.15-.3.38-.73.47-.93.79-1.43.69-.92,1-1.3Z"/>
                </g>
                <path class="cls-15" d="M59.92,47.51a1.51,1.51,0,0,1,.85-.59,1.14,1.14,0,0,1,1.07.82,3.33,3.33,0,0,1-1.22,3.66,7.67,7.67,0,0,1-3.85,1.36,24.73,24.73,0,0,1-4.71.18c-.45,0-2.78-.38-2.34-1.25.28-.54,1.91-.39,2.4-.39A11.44,11.44,0,0,0,59.92,47.51Z"/>
                <path class="cls-15" d="M73,47.51a1.51,1.51,0,0,0-.85-.59,1.14,1.14,0,0,0-1.07.82,3.33,3.33,0,0,0,1.22,3.66,7.67,7.67,0,0,0,3.85,1.36,24.73,24.73,0,0,0,4.71.18c.45,0,2.78-.38,2.34-1.25-.28-.54-1.91-.39-2.4-.39A11.44,11.44,0,0,1,73,47.51Z"/>
                <path class="cls-7" d="M86.77,74.12a20.65,20.65,0,0,1-5.85,11.8,30.39,30.39,0,0,1-6.77,5.19c-.73.42-1.42.79-2.08,1.12a8.14,8.14,0,0,1-4.36,1.47C72.52,91.43,78.92,87.9,82,80.78c3.5-8.09,4.87-22.39,2.79-31-1,.33-2.29.63-3.14,0a3.16,3.16,0,0,1-.84-2.43,22.69,22.69,0,0,1,.82-7.2c-6.95,1.29-14,2.59-21,2.07a31.66,31.66,0,0,1-12.78-3.57c.12-2,.22-3.14.22-3.14a33.54,33.54,0,0,1,6.69-6.21,99.29,99.29,0,0,1,24.08-.85,33.63,33.63,0,0,1,8,7.06S88.74,59.13,86.77,74.12Z"/>
                <path class="cls-12" d="M70.5,81.45a9.46,9.46,0,0,0-7.22.11,10,10,0,0,0,1.63,2.24,2.91,2.91,0,0,0,2.36.88,3.33,3.33,0,0,0,1.77-1A9.66,9.66,0,0,0,70.5,81.45Z"/>
                <g>
                  <path class="cls-15" d="M101.64,34.44a33.23,33.23,0,0,1-6.18,5.4,50.79,50.79,0,0,1-1.08,6.5c-.51,2.41-1,4.48-1,4.48A5,5,0,0,0,91.89,49l-4.24,7.53-1-9.27a11.24,11.24,0,0,1-3,0C83,47,84.9,38,84.9,38h0a33,33,0,0,1-9.42,1.19c-2.69,0-5.37,0-8.06,0s-5.36.08-8.05,0a33,33,0,0,1-9.42-1.19h0s1.89,9,1.15,9.27a11.24,11.24,0,0,1-3,0l-1,9.27L42.92,49a5,5,0,0,0-1.48,1.86s-.57-2.06-1.07-4.8c-.88-4.72-1.58-11.47,1.1-13.12-1.1-2.42-.23-5.74,1.56-7.7a17.43,17.43,0,0,1,6.74-4.09C63.22,15.84,78,14.5,92.37,15.26c1.06.06,2.27.21,2.86,1.09.34.52,0,1.32-.26,1.87a23.76,23.76,0,0,1-3,4.48,39.43,39.43,0,0,1,7.1.75,1.72,1.72,0,0,1,1.34.76c.25.54-.09,1.14-.43,1.63a61.64,61.64,0,0,1-4.65,5.91,25.37,25.37,0,0,1,5.08.06c.7.07,1.53.28,1.75.95A1.92,1.92,0,0,1,101.64,34.44Z"/>
                  <path class="cls-13" d="M94.38,46.34c-.51,2.41-1,4.48-1,4.48A5,5,0,0,0,91.89,49l-4.24,7.53-1-9.27a11.24,11.24,0,0,1-3,0C83,47,84.9,38,84.9,38h0a33,33,0,0,1-9.42,1.19c-2.69,0-5.37,0-8.06,0s-5.36.08-8.05,0a33,33,0,0,1-9.42-1.19h0s1.89,9,1.15,9.27a11.24,11.24,0,0,1-3,0l-1,9.27L42.92,49a5,5,0,0,0-1.48,1.86s-.57-2.06-1.07-4.8a19.94,19.94,0,0,1,1.72-1.72,5.23,5.23,0,0,0,2.42,2.34l.15-3.7,2.49.29a14.18,14.18,0,0,1-2.61-7.85,168.57,168.57,0,0,0,44.22-2.52q-1,5.27-1.93,10.54l3.09-.57c-.29,1.17-.58,2.34-.88,3.51a3.73,3.73,0,0,1,4.34-.6A5.89,5.89,0,0,1,94.38,46.34Z"/>
                  <path class="cls-16" d="M72,27.46a28.71,28.71,0,0,1-8.3-2.58L69,21.09c-1.7-.43-3.4-1.33-5.09-1.76a74.69,74.69,0,0,1,21.5-2.63l-2.77,2.21c1.3,0,2.45.52,3.75.53L82,25l5.36,0-1.42,1.76,8.28,0A74.8,74.8,0,0,1,66.6,33.09c1.41-.55,2.47-1.62,3.87-2.16l-3.2-.87Z"/>
                </g>
                <g>
                  <g>
                    <path class="cls-17" d="M95.85,35.33c-5.48.2-7.45,7.45-7.45,7.45s4.09-1.93,7.45-1.4c1.66.27,3-1.35,3-3A3,3,0,0,0,95.85,35.33Z"/>
                    <path class="cls-18" d="M95.78,39.23a4.62,4.62,0,0,1-.69-1.2,1.7,1.7,0,0,1-.19-1.44A1.26,1.26,0,0,1,96.16,36a2.39,2.39,0,0,1,1.76,1,2,2,0,0,1,.15,2.21A1.45,1.45,0,0,1,95.78,39.23Z"/>
                  </g>
                  <g>
                    <path class="cls-17" d="M93.06,29.18c-4.5,1.1-4.89,7.43-4.89,7.43s3-2.29,5.92-2.42a2.43,2.43,0,0,0,2-3A2.52,2.52,0,0,0,93.06,29.18Z"/>
                    <path class="cls-18" d="M93.67,32.42a3.85,3.85,0,0,1-.78-.88,1.45,1.45,0,0,1-.4-1.16,1.06,1.06,0,0,1,.94-.67,2,2,0,0,1,1.64.54,1.69,1.69,0,0,1,.49,1.81A1.22,1.22,0,0,1,93.67,32.42Z"/>
                  </g>
                  <g>
                    <path class="cls-17" d="M92.15,45.41c-1.73-1.61-4.55,0-4.55,0a6.66,6.66,0,0,1,2.7,1.86,1.24,1.24,0,0,0,1.84,0A1.29,1.29,0,0,0,92.15,45.41Z"/>
                    <path class="cls-18" d="M90.93,46.58a2.38,2.38,0,0,1,.16-.58c.08-.2.18-.43.38-.5a.57.57,0,0,1,.56.22,1,1,0,0,1,.22.85.87.87,0,0,1-.63.72A.63.63,0,0,1,90.93,46.58Z"/>
                  </g>
                </g>
                <g>
                  <g>
                    <path class="cls-17" d="M36.12,74.89c4.46-3.2,10.46,1.31,10.46,1.31s-4.41,1-6.74,3.47c-1.14,1.22-3.22.79-4.25-.53A3,3,0,0,1,36.12,74.89Z"/>
                    <path class="cls-18" d="M38.58,77.92a4.94,4.94,0,0,0-.2-1.37,1.69,1.69,0,0,0-.73-1.25,1.27,1.27,0,0,0-1.34.33,2.43,2.43,0,0,0-.76,1.89,2,2,0,0,0,1.24,1.84A1.46,1.46,0,0,0,38.58,77.92Z"/>
                  </g>
                  <g>
                    <path class="cls-17" d="M38.68,65.82c4.61-.5,7.14,5.32,7.14,5.32s-3.65-1.11-6.4-.26a2.43,2.43,0,0,1-2.9-2.16A2.53,2.53,0,0,1,38.68,65.82Z"/>
                    <path class="cls-18" d="M39.22,69.07A3.82,3.82,0,0,0,39.65,68a1.43,1.43,0,0,0,0-1.23,1.07,1.07,0,0,0-1.11-.31,2,2,0,0,0-1.35,1.07,1.71,1.71,0,0,0,.14,1.87A1.23,1.23,0,0,0,39.22,69.07Z"/>
                  </g>
                  <g>
                    <path class="cls-17" d="M43.59,81.06c.37-2.34,3.58-2.8,3.58-2.8a6.63,6.63,0,0,0-1,3.11,1.24,1.24,0,0,1-1.46,1.14A1.28,1.28,0,0,1,43.59,81.06Z"/>
                    <path class="cls-18" d="M45.26,81.23a1.89,1.89,0,0,0-.48-.36.76.76,0,0,0-.61-.16.57.57,0,0,0-.3.51,1,1,0,0,0,.35.81.85.85,0,0,0,.93.18A.62.62,0,0,0,45.26,81.23Z"/>
                  </g>
                </g>
                <g>
                  <path class="cls-7" d="M71.53,68.55a3.43,3.43,0,0,0-2-1.74c-.65.37-1.53.84-2.19,1.2l-2.18-1.08a3.94,3.94,0,0,0-1.89,1.95,17.11,17.11,0,0,0,3.86,2.52A14,14,0,0,0,71.53,68.55Z"/>
                  <path class="cls-12" d="M66.85,65.81a3,3,0,0,0-1.25.87c.51.29,1.08.57,1.58.86l1.84-1A2.6,2.6,0,0,0,66.85,65.81Z"/>
                  <g>
                    <path class="cls-15" d="M64.9,69.28a1.27,1.27,0,0,1-.37-.36.45.45,0,0,1,0-.5.48.48,0,0,1,.54-.1,1.27,1.27,0,0,1,.44.39,5.31,5.31,0,0,1,1,1.58A5.77,5.77,0,0,1,64.9,69.28Z"/>
                    <path class="cls-15" d="M69.91,69.28a1.16,1.16,0,0,0,.37-.36.47.47,0,0,0,0-.5.48.48,0,0,0-.54-.1,1.18,1.18,0,0,0-.44.39,5.55,5.55,0,0,0-1,1.58A5.63,5.63,0,0,0,69.91,69.28Z"/>
                  </g>
                </g>
              </g>
            </g>
            <path class="cls-19" d="M80,123.77l-.13,3a74,74,0,0,1-24.77,2.69L55.06,128a72.76,72.76,0,0,0,24.86-2.76c-9.17-2.54-18.53-5.61-25.45-12.21l-.08-2.18C61.17,118,70.67,121.17,80,123.77Z"/>
          </g>
        </g>
      </g>
    </g>
  </g>
</svg>
