<svg xmlns="http://www.w3.org/2000/svg" xmlns:xlink="http://www.w3.org/1999/xlink" width="500" height="500" viewBox="0 0 500 500">
  <defs>
    <style>
      .cls-1 {
        fill: none;
      }

      .cls-2 {
        isolation: isolate;
      }

      .cls-3 {
        fill: #fbe2d9;
      }

      .cls-4 {
        fill: #282c57;
      }

      .cls-5 {
        fill: #e34c46;
      }

      .cls-10, .cls-6 {
        fill: #b06e5d;
      }

      .cls-7 {
        fill: #e9d6d2;
      }

      .cls-12, .cls-15, .cls-17, .cls-7, .cls-8 {
        mix-blend-mode: multiply;
      }

      .cls-8 {
        fill: #d4afa6;
      }

      .cls-9 {
        fill: #f29e80;
      }

      .cls-10 {
        opacity: 0.55;
      }

      .cls-11, .cls-20 {
        fill: #fff;
      }

      .cls-13 {
        fill: #ca9e92;
      }

      .cls-14 {
        fill: #484b70;
      }

      .cls-15 {
        fill: #c3c4d0;
      }

      .cls-16, .cls-19 {
        fill: #d3e9f4;
      }

      .cls-17 {
        fill: #c7c8d3;
      }

      .cls-18 {
        clip-path: url(#clip-path);
      }

      .cls-19 {
        opacity: 0.85;
      }

      .cls-19, .cls-20 {
        mix-blend-mode: soft-light;
      }
    </style>
    <clipPath id="clip-path">
      <path class="cls-1" d="M257.75,441.5c-1.22-10.61-40.15-337.21-40.54-340.5l-.15-.64.06-1c-.12-5-3-5.11-4.34-5.18-15.37-.79-52.28-.81-53.95-.81-1.92,0-48.23.45-72.38.45H82.52c0-.18,0-.36,0-.53,0,.64-.05,1.46,0,2.52.11,6.4.93,14.44,1.59,20.9,2,19,34,305.24,35.92,317.53.72,4.56,2.62,7.19,4,7.36,3.55.42,16,.91,55.23.91,16.68,0,34.46-.08,48.74-.15,10.18-.05,18.84-.09,24.61-.09,2.35,0,4,0,5.16,0A4.23,4.23,0,0,0,257.75,441.5Z"/>
    </clipPath>
  </defs>
  <g class="cls-2">
    <g id="BACKGROUND">
      <path class="cls-3" d="M299.61,64.5c-14.75,5.54-27.53,8.3-45.71.89-27.13-11.07-42.21-38.9-101-24S35.42,129.94,27.14,235.87,93.5,435.92,227.08,446,438.45,384,465.76,289.66s-24-170.48-57.93-203.58C390.69,69.36,368.3,56.4,344,54.54a67.77,67.77,0,0,0-29.63,4.11C309.12,60.73,304.27,62.75,299.61,64.5Z"/>
    </g>
    <g id="OBJECTS">
      <g>
        <path class="cls-4" d="M340.16,265.74s-9.81,41.33-14.84,65.43-2.65,26.76.79,39.74,12.19,49.27,13.52,55.63,1.85,10.6,1.85,10.6,5.83.26,10.6,0a35.63,35.63,0,0,0,7.41-1.06s-1.59-27.82-3.71-44.51-4.5-32.32-4-35.23,7.95-29.14,9.8-36.29,2.92-13,2.92-13,5.3,28.87,8.47,47.15,10.6,60.4,11.93,67,2.91,11.93,2.91,11.93,7.68-.8,11.66-1.06a20.39,20.39,0,0,0,6.35-1.33s-3.18-81.33-2.65-103-3.41-56.81-4.22-62.58-6.37-12.92-6.37-12.92-17.12,6.93-30.42,8.1-20.71,2-20.71,2Z"/>
        <path class="cls-4" d="M360.75,159.71s-2.78-.6-5.69,2.38A15.84,15.84,0,0,0,350.75,174c.33,4.38,2.92,8.88,3.25,8.88s1.39-4.37,3.37-7,2.92-4.24,3-4.9,1.46-6.16,1.79-7.49S360.75,159.71,360.75,159.71Z"/>
        <path class="cls-5" d="M356.71,163.22s-11.92,2.58-18.48,5.56S325.52,181.1,321,191s-9.74,24.43-11.33,25.23-14.5-14.11-14.5-14.11-11.33,6.36-11.33,8.35,15.7,27.41,27,30.79,17.88-8.94,21.65-14.3S340,215.27,340,215.27s14.31-24.83,14.71-26S356.71,163.22,356.71,163.22Z"/>
        <path class="cls-6" d="M388.4,431.24s1.49,4,.2,6.36-8.64,6.66-12,8.55-6.66,2.58-7.45,4.76,1.09,3.38,3.38,3.58,22.75-2,27.91-2.78,8.84-2.29,9.24-7.35-4.87-14-5.16-15.2S388.2,430.35,388.4,431.24Z"/>
        <path class="cls-6" d="M342,435.12s.2,4.07-4.67,6.75-20.76,4.57-22.25,6.76-2.29,4.47,7.75,4.87,30.79,1,35.86-1.39,2.68-8.94,1.89-10.53a72.2,72.2,0,0,1-2.39-7.75Z"/>
        <path class="cls-7" d="M404.5,429.16c-.3-1.19-16.3,1.19-16.1,2.08,0,0,1.46,3.89.24,6.28a33.1,33.1,0,0,1,10.37-.11,9,9,0,0,1,4.4,1.89,7.3,7.3,0,0,1,2.28,3.42c.76,2.71-.47,5.51-1.91,7.76-.14.22-.3.43-.44.64,3.59-.95,6-2.71,6.32-6.76C410.06,439.29,404.79,430.35,404.5,429.16Z"/>
        <path class="cls-7" d="M360.59,441.58a72.2,72.2,0,0,1-2.39-7.75L342,435.12a7,7,0,0,1-1.59,4.2,38.49,38.49,0,0,1,9.8,1.11c2.56.73,5.19,2.13,5.49,5,.28,2.71-1.14,5.47-2.47,7.72l-.07.11a19.88,19.88,0,0,0,5.53-1.19C363.77,449.72,361.38,443.17,360.59,441.58Z"/>
        <path class="cls-8" d="M336.52,220.94l-5-35.73.11,43c.28-.43.56-.83.81-1.19C333.89,225,335.3,222.84,336.52,220.94Z"/>
        <g>
          <path class="cls-9" d="M289.76,197.39l-8.95-10.92c-.39-.5-4.27-4.87-6.85-6.36s-5-3.78-5.27-4.47-.39-3.78-2.38-3.68-2.48,4.27-1.09,6.76a27.48,27.48,0,0,0,4.57,5.36s-4.77.3-8,.3-12.52-.8-13.91.1-.69,3,2.68,3.38,5.77-.1,9.44.39,3.48,1,3.48,1-4.17,2-3.18,4a4.4,4.4,0,0,0,3.08,2.29,2,2,0,0,0-.93,2.15c.3,1,1.72,1.82,1.72,1.82a1.78,1.78,0,0,0-.29,2.38c.89,1.39,4.47,1.1,6.26,1a7,7,0,0,0,3.57-1.79l4.17-.4,3.68,5.47Z"/>
          <path class="cls-6" d="M268.21,187.3c.44,1.82,2,3.1,3.26,4.32a14.56,14.56,0,0,0,2.55,1.85,6.12,6.12,0,0,0,1.22.56c.42.14.83.33,1.25.46a.29.29,0,0,0,.28-.49,2.21,2.21,0,0,0-1-.48,6.8,6.8,0,0,1-1.22-.5,26.42,26.42,0,0,1-2.5-1.66,15.74,15.74,0,0,1-2-1.81,5.58,5.58,0,0,1-1.53-2.33.15.15,0,0,0-.28.08Z"/>
          <path class="cls-6" d="M275.53,196.06a4.5,4.5,0,0,0-2-.77c-.25,0-.6-.12-.94-.16a1.33,1.33,0,0,0,0-.9c-.42-1.29-1.8-1.9-3-2.32-.87-.32-4.73-1.21-5.8-1-.17,0-.12.2,0,.24,1,.23,2.09.34,3.06.63a32.67,32.67,0,0,1,4.63,1.56,1.67,1.67,0,0,1,.86,1.1,1.21,1.21,0,0,1-.59,1.08,7.53,7.53,0,0,1-3,.43,53.5,53.5,0,0,1-5.34-.44,1.51,1.51,0,0,0-.28.21,17.36,17.36,0,0,0,1.75.32,21.67,21.67,0,0,0,5.85.22,3.51,3.51,0,0,0,1.22-.5c.33.08.71.06,1,.11a5,5,0,0,1,1.9.56c.84.52.5,1.26-.1,1.8a4.3,4.3,0,0,1-2.26,1,18.16,18.16,0,0,1-2.66.13l-5.65.1a1,1,0,0,0-.13.14,18,18,0,0,0,3.77.26,22.93,22.93,0,0,0,5-.16,1.13,1.13,0,0,1,.8.65,1.08,1.08,0,0,1-.21,1l.34-.29.39,0a1.29,1.29,0,0,0-.28-1.27,1.61,1.61,0,0,0-.29-.24l.66-.24C275.43,198.75,277,197.23,275.53,196.06Z"/>
          <path class="cls-6" d="M282.84,198.86a2.5,2.5,0,0,0,.39-2.39.16.16,0,0,0-.26,0,2.75,2.75,0,0,0-.2,1.1,2,2,0,0,1-.48,1.09,4.45,4.45,0,0,1-1.79,1c-.74.27-1.5.52-2.27.74l-1.13.28-.26.08,1.09-.11.18.27.38-.08a21.76,21.76,0,0,0,2.52-.81A4.11,4.11,0,0,0,282.84,198.86Z"/>
        </g>
        <g>
          <path class="cls-9" d="M379.76,144.94a115,115,0,0,0-1.19,11.62,56.51,56.51,0,0,0,1,8.75s-10.13,8.74-11,10.23-4.67,13-6.95,13.21-5.56-3.68-5.56-5.36,3.08-14.91,3.47-18.28.8-7.16,0-8.65S379.76,144.94,379.76,144.94Z"/>
          <path class="cls-10" d="M359.62,164c2.08.25,5.23-.15,9.81-2.58,4.18-2.22,7.29-6.16,9.49-9.93.35-3.31.84-6.56.84-6.56s-21.06,10-20.27,11.52C360.2,157.79,360,161,359.62,164Z"/>
          <path class="cls-9" d="M355.92,109.44s-7.16,16.29-8.21,27.42,1.45,22.52,15,22.52,21.46-22.25,22.12-24,2.12-13.37-.53-16.55S356.84,108.65,355.92,109.44Z"/>
          <path class="cls-9" d="M381.85,140.47c0-.3,5.16-5.66,7.94-2.68s-.69,9.44-4.67,9.83-4.47-4.27-4.47-4.27Z"/>
          <path class="cls-4" d="M382.24,141.17s-2.38-2.59-2.18-8.35a42.24,42.24,0,0,1,2.28-11.42s-10.33,3.27-20.86-.9-10.73-16.79-9.24-20.86,3.88-5.17,5.86-4.67,2.69,4.17,2.69,4.17,2.38-6,6.25-4.37,1.3,10.43,1.3,10.43,4.27-6.25,7.05-5-.7,9.73-.6,11.12a3.44,3.44,0,0,0,1.69,2.29s4.87-3.38,9.34-1.29,2.78,5.86,2.78,5.86,8.15-2.49,6.26,6S382.24,141.17,382.24,141.17Z"/>
          <path class="cls-6" d="M363.07,127.4c-.65,1-.4,2.43-.47,3.55a21.76,21.76,0,0,1-.59,4.4,4.69,4.69,0,0,1-2.82,3.46,5,5,0,0,1-2.14.18c-.76-.07-1.43-.38-2.18-.48s-1.69,0-1.89.87a3.39,3.39,0,0,0,.76,2.45c1,1.5,3.23,3.46,5.17,2.43.28-.15.11-.5-.14-.53a9.39,9.39,0,0,1-1.76-.19,4.14,4.14,0,0,1-1.41-.77,6.1,6.1,0,0,1-1.84-2.54c-.21-.62-.14-1,.61-1a7,7,0,0,1,1.93.29,4.45,4.45,0,0,0,1.57.33,5.16,5.16,0,0,0,1.5-.32c4.75-1.79,3.52-8,4.12-11.9a.23.23,0,0,0-.42-.18Z"/>
          <path class="cls-4" d="M370.44,129.54a5.52,5.52,0,0,0-3.89,2.06c-1.51,2-1.06,3-.16,2.62s1.85-1.82,4.48-2.13,4.11-.21,4.29-1S373.33,129.14,370.44,129.54Z"/>
          <path class="cls-4" d="M355.88,126.17c-2,0-2.81,1.62-3,1.35s-.78-1.16,1.13-2.41a5.33,5.33,0,0,1,5.51,0c1.2.77,1.94,2.08,1.49,2.7C359.93,129.22,357.87,126.17,355.88,126.17Z"/>
          <path class="cls-4" d="M357.4,132.16a1.56,1.56,0,0,0-2.36.28,3.63,3.63,0,0,0-.81,2.8,1.82,1.82,0,0,0,1.38,1.58c1,.12,1.73-1,2.05-1.71a3.31,3.31,0,0,0,0-2.53A1.54,1.54,0,0,0,357.4,132.16Z"/>
          <path class="cls-6" d="M370.35,137.4a5.26,5.26,0,0,0-2.69-.43,7.55,7.55,0,0,0-1.5.23l-.24.08.28-.3a7.05,7.05,0,0,1,1.39-1,6.54,6.54,0,0,1,1.54-.65,7.43,7.43,0,0,1,.79-.17,4.32,4.32,0,0,0,.88-.1.29.29,0,0,0,0-.56,2.15,2.15,0,0,0-.91,0,6.83,6.83,0,0,0-.92.2,7.69,7.69,0,0,0-1.71.7,7.9,7.9,0,0,0-1.51,1.06,5.43,5.43,0,0,0-.63.64,1.5,1.5,0,0,0-.43.81.24.24,0,0,0,.31.23.16.16,0,0,0,.12,0c.42-.08.82-.26,1.26-.32s.91-.1,1.36-.13a4.31,4.31,0,0,1,2.61.56c.2.13.88.52.93,0S370.68,137.56,370.35,137.4Z"/>
          <path class="cls-4" d="M357.61,148.72s16.88-7.36,17.08-6.46-.1,9-7.75,11.32S357.61,148.72,357.61,148.72Z"/>
          <path class="cls-11" d="M360.09,148.74a2.67,2.67,0,0,0,2.27.37,14.59,14.59,0,0,0,6.27-2.56,6.14,6.14,0,0,0,2.12-2.43,2.19,2.19,0,0,0,.18-.87c-3.54,1.31-8.69,3.48-11.43,4.65A3,3,0,0,0,360.09,148.74Z"/>
          <path class="cls-5" d="M371.17,149.12a8.12,8.12,0,0,0-3.11,1.58,7.77,7.77,0,0,0-2.1,3.13c.32-.07.64-.15,1-.25a10.12,10.12,0,0,0,6.05-4.67A5.62,5.62,0,0,0,371.17,149.12Z"/>
        </g>
        <path class="cls-5" d="M331.28,178.72s1.79,21.45,2.78,37.15,3.38,36.36,4,39.14,1,7.15,1,7.15,24.83-1.39,38-4,17.48-5.56,17.48-5.56.8-23,2-36.56,2.18-29.6,2.18-29.6L400.42,169s-13.91-.4-16.89-1.39-5.76-1.79-5.76-1.79a135.75,135.75,0,0,1-13.91,7.55c-1.39,5.57-2.95,12-4,12.12s.08-9.93-.07-14.6C351.33,168.93,331.28,178.72,331.28,178.72Z"/>
        <g class="cls-12">
          <path class="cls-13" d="M359.45,185.6c-.05,20.46-.79,41,.74,61.39.19,2.48.43,4.95.76,7.41a24.94,24.94,0,0,0,1.24,5.93c0,.08.18.08.17,0-.14-1.69-.55-3.36-.81-5-.35-2.25-.59-4.51-.77-6.78-.38-4.94-.52-9.91-.63-14.86-.23-10.33-.21-20.66-.14-31,0-5.68.07-11.36.06-17a.31.31,0,0,0-.62,0Z"/>
        </g>
        <path class="cls-7" d="M389.3,226.6c-1,12.49-1.41,22.39-1.61,28.88a30.08,30.08,0,0,0,6.77-2.85s.8-23,2-36.56,2.18-29.6,2.18-29.6L400.42,169l-1.75-.06C396.38,179.84,390.71,208.16,389.3,226.6Z"/>
        <path class="cls-14" d="M394.86,249.05s-22.43,7.94-31.39,9.14a187.1,187.1,0,0,1-25,1.59l.4,8s6,1.45,24.9-2.12a175.09,175.09,0,0,0,31.66-8.88Z"/>
        <path class="cls-14" d="M358.8,168.94l-.12-.17a9.19,9.19,0,0,1-1.59-3.75,7.14,7.14,0,0,1,.27-3.55,5.83,5.83,0,0,1,.68-1.4,8.26,8.26,0,0,0-3,2A15.84,15.84,0,0,0,350.75,174c.33,4.38,2.52,8.15,2.85,8.15s1.42-3.06,3.18-6.16c.79-1.4,1.83-2.61,2.72-3.95S359.5,169.88,358.8,168.94Z"/>
        <path class="cls-14" d="M363.67,173.52c3.7,3.24,6.1,11.5,6.72,11.62,1.19.23,3.2-1,6.75-4.17a37.2,37.2,0,0,0,7.65-10.2c1.06-2.25.86-3.31-.2-5.3a17.77,17.77,0,0,0-3.9-4.7,4.87,4.87,0,0,0-2-1.26s.53,2.65-.16,3.51a31.1,31.1,0,0,1-7.82,6.56C366.9,171.91,363.36,173.25,363.67,173.52Z"/>
        <path class="cls-14" d="M296.31,202.56s-5.76-7.05-6.46-6.76a37.1,37.1,0,0,0-7.74,6.76c-2.39,3-2.09,3.38-1.69,4.27s3.37,5.86,3.67,5.76,4.67-4.17,7.45-6.26S296.31,202.56,296.31,202.56Z"/>
        <g>
          <path class="cls-9" d="M405.19,239.81s-8.64,10.53-11,15.7-.59,9.14,2.88,11.82,7.44,4.13,11.26,3.34c2.92-.59,3.33-2.61,3-3.08a1.94,1.94,0,0,0-.83-.63s2.29-.92,2.49-2.51-1.66-2.05-3-1.36a7.48,7.48,0,0,1-2.16.66s3.48-2.68,3.38-4.47-1.29-1.78-2.48-.79-2.39,2.28-3.38,2-2.28-1.4-1.69-1.49,6.86-1.89,7.65-4.38c.71-2.21-1.69-3.87-1.29-5s3.08-3.48,3.08-3.48S407.58,238.12,405.19,239.81Z"/>
          <g>
            <path class="cls-6" d="M400.65,262.28A9,9,0,0,0,406.7,264a5.49,5.49,0,0,0,1.29-.28l-.22,0a16.91,16.91,0,0,0,1.43-1.26,5.77,5.77,0,0,1-2.62.92,9.48,9.48,0,0,1-5.72-1.5C400.63,261.76,400.43,262.12,400.65,262.28Z"/>
            <path class="cls-6" d="M411,267.32a1.9,1.9,0,0,0-.58-.36,7.24,7.24,0,0,0,.95-.52,11.58,11.58,0,0,1-1.53.43,16.25,16.25,0,0,1-3.68.37,14.58,14.58,0,0,1-7.21-2.09c-.16-.09-.35.14-.2.26a11.45,11.45,0,0,0,7.41,2.51,17.75,17.75,0,0,0,4-.4C410.43,267.46,410.73,267.4,411,267.32Z"/>
          </g>
        </g>
        <path class="cls-5" d="M389.93,168.55s8.37-.3,11.55.3,10.6,5.1,18.28,12.05,19.87,17.42,22.59,23.58,3.37,8.87.52,13.91-19.4,23.91-22,26-3.45,2.71-3.45,2.71L407,236.34s3.44-6.23,6.42-12a78,78,0,0,1,5.83-9.61,43.11,43.11,0,0,0-9.07-6.82c-5.37-3-15.83-9.4-17.49-11.72S380.65,178.88,389.93,168.55Z"/>
        <path class="cls-14" d="M407.18,234.15s-4.37,6.66-4.27,6.95,3.27,1.89,5.56,4.57a60.42,60.42,0,0,0,4.17,4.47s5.86-3.08,6.66-3.67-1.86-4.44-5.37-7.62A34,34,0,0,0,407.18,234.15Z"/>
        <g>
          <path class="cls-6" d="M362,256.11c-2.44-2.4-11.72-.36-12.69.71s.82,12.29,2.73,12.6,10-.52,10.83-.65C365.51,268.38,364.47,258.52,362,256.11Zm-1.83,11a49.87,49.87,0,0,1-7.09.46c-1.26-.22-2.41-7.92-1.78-8.65s6.72-2.14,8.31-.49S361.91,266.88,360.21,267.15Z"/>
          <path class="cls-6" d="M350.91,262.67c.49-.16,5.47-1.38,4.91,0-.25.63-2.25.78-2.82.88a11,11,0,0,0-1.79.28A2,2,0,0,1,350.91,262.67Z"/>
        </g>
        <path class="cls-14" d="M386,429.72s.53,5.56,1.33,5.7a58.58,58.58,0,0,0,13.25-.67c6.62-1.06,7.55-2.25,7.55-2.25l-1.2-5.43s-6.62,1.59-12.18,2.25A47.61,47.61,0,0,1,386,429.72Z"/>
        <path class="cls-14" d="M339.34,433.19s.28,5.59,1.07,5.75a58.21,58.21,0,0,0,13.26-.07c6.67-.76,7.65-1.91,7.65-1.91l-.95-5.48s-6.69,1.29-12.28,1.71A48.13,48.13,0,0,1,339.34,433.19Z"/>
      </g>
      <g>
        <g>
          <polygon class="cls-6" points="41.84 428.26 109.29 428.68 110.95 439.44 36.47 438.61 41.84 428.26"/>
          <path class="cls-15" d="M96,430.2q.91,4.56,2,9.09l13,.15-1.66-10.76-13.62-.08C95.77,429.13,95.86,429.67,96,430.2Z"/>
          <path class="cls-7" d="M38.93,433.86l-2.46,4.75,74.48.83-.68-4.4C91.59,434.64,55,433.89,38.93,433.86Z"/>
          <path class="cls-6" d="M87.78,264.82S31.5,430.33,30.67,436.54s-.41,9.93,4.55,9.1,7.87-12,13.66-28.13S95.22,286.75,95.22,286.75Z"/>
          <path class="cls-15" d="M81.74,301.82c1.2,4.9,2.1,9.88,2.89,14.87l10.59-29.94-7.44-21.93s-3.58,10.5-8.93,26.31C79.82,294.69,80.86,298.23,81.74,301.82Z"/>
          <path class="cls-6" d="M158.53,79.44s-52.85.5-76.13.44c-13.66,0-15,7.51-14.9,16.11.11,6.8.92,14.81,1.66,21.93,1.65,16.14,33.84,304.77,36,318.21,1.65,10.34,7.44,16.55,14.48,17.38,16.21,1.9,132.41.41,137.38.82s13.65-5.38,12.41-16.13S228.88,97.64,228.88,97.64s.41-16.55-15.72-17.38S158.53,79.44,158.53,79.44Z"/>
          <path class="cls-16" d="M179.27,442.5c-39.22,0-51.68-.49-55.23-.91-1.41-.17-3.31-2.8-4-7.36-2-12.29-34-298.54-35.92-317.53-.66-6.46-1.48-14.5-1.59-20.9a26.23,26.23,0,0,1,.14-3.72,15.25,15.25,0,0,1,2.67-.2h3.9c24.14,0,70.46-.43,72.38-.45,1.67,0,38.58,0,53.95.81,1.38.07,4.22.22,4.34,5.18l-.06,1,.14.63c.4,3.3,39.33,329.9,40.55,340.51.19,1.66-.35,2.41-.77,2.74-1.09,0-3-.05-7.12-.05-5.77,0-14.43,0-24.61.09C213.73,442.42,196,442.5,179.27,442.5Z"/>
          <path class="cls-17" d="M260.51,439.57C259.29,429,220.36,102.36,220,99.06l-.14-.63.06-1c-.12-5-3-5.11-4.34-5.18-15.37-.79-52.28-.81-53.95-.81-1.92,0-48.24.45-72.38.45h-3.9a15.25,15.25,0,0,0-2.67.2c0,.4-.1,1-.12,1.73h3.93c24.15,0,70.46-.43,72.38-.45,1.67,0,38.58,0,53.95.81,1.38.07,4.22.22,4.34,5.18l-.06,1,.15.64c.39,3.29,39.32,329.89,40.54,340.5a4.23,4.23,0,0,1,0,.78l2,0C260.16,442,260.7,441.23,260.51,439.57Z"/>
        </g>
        <g>
          <path class="cls-16" d="M82.57,92.79c0-.12,0-.24,0-.34C82.59,92.55,82.58,92.67,82.57,92.79Z"/>
          <path class="cls-16" d="M82.54,93.26c0-.15,0-.3,0-.43C82.56,93,82.55,93.11,82.54,93.26Z"/>
          <path class="cls-16" d="M257.75,441.5c-1.22-10.61-40.15-337.21-40.54-340.5l-.15-.64.06-1c-.12-5-3-5.11-4.34-5.18-15.37-.79-52.28-.81-53.95-.81-1.92,0-48.23.45-72.38.45H82.52c0-.18,0-.36,0-.53,0,.64-.05,1.46,0,2.52.11,6.4.93,14.44,1.59,20.9,2,19,34,305.24,35.92,317.53.72,4.56,2.62,7.19,4,7.36,3.55.42,16,.91,55.23.91,16.68,0,34.46-.08,48.74-.15,10.18-.05,18.84-.09,24.61-.09,2.35,0,4,0,5.16,0A4.23,4.23,0,0,0,257.75,441.5Z"/>
          <path class="cls-16" d="M82.61,92.39c0-.11,0-.22,0-.31C82.63,92.17,82.62,92.28,82.61,92.39Z"/>
          <path class="cls-16" d="M259,442.29h0Z"/>
          <path class="cls-16" d="M258.42,442.28h0Z"/>
          <path class="cls-16" d="M259.74,442.31h0Z"/>
        </g>
        <g class="cls-18">
          <g>
            <g>
              <path class="cls-4" d="M183.81,268.47s9.8,41.32,14.84,65.43,2.65,26.76-.8,39.74-12.18,49.27-13.51,55.63-1.85,10.6-1.85,10.6-5.83.26-10.6,0a35.67,35.67,0,0,1-7.42-1.06s1.59-27.82,3.71-44.51,4.51-32.32,4-35.23-7.95-29.14-9.81-36.3-2.91-13-2.91-13S154.14,338.67,151,357s-10.59,60.4-11.92,67-2.91,11.92-2.91,11.92-7.68-.79-11.66-1.06a20.36,20.36,0,0,1-6.36-1.32s3.18-81.33,2.65-103,3.42-56.82,4.23-62.58S131.36,255,131.36,255s17.12,6.93,30.41,8.1,20.72,2,20.72,2Z"/>
              <path class="cls-4" d="M163.21,162.44s2.79-.6,5.7,2.38a15.87,15.87,0,0,1,4.31,11.92c-.34,4.37-2.92,8.88-3.25,8.88s-1.39-4.37-3.38-7-2.91-4.24-3-4.9-1.45-6.16-1.79-7.49S163.21,162.44,163.21,162.44Z"/>
              <path class="cls-5" d="M167.25,166s11.93,2.58,18.48,5.56,12.72,12.32,17.29,22.25,9.73,24.44,11.32,25.24,14.51-14.11,14.51-14.11,11.32,6.36,11.32,8.34-15.69,27.42-27,30.8-17.88-8.94-21.66-14.31S183.94,218,183.94,218s-14.3-24.83-14.7-26S167.25,166,167.25,166Z"/>
              <path class="cls-6" d="M135.56,434s-1.49,4-.19,6.36,8.64,6.66,12,8.54,6.65,2.59,7.45,4.77-1.1,3.38-3.38,3.58-22.75-2-27.92-2.78-8.84-2.29-9.23-7.36,4.86-14,5.16-15.19S135.76,433.08,135.56,434Z"/>
              <path class="cls-6" d="M182,437.85s-.2,4.07,4.67,6.75,20.76,4.57,22.25,6.76,2.28,4.47-7.75,4.86-30.8,1-35.86-1.39-2.68-8.94-1.89-10.53a71.65,71.65,0,0,0,2.38-7.75Z"/>
              <path class="cls-7" d="M119.47,431.89c.3-1.2,16.29,1.19,16.09,2.08,0,0-1.45,3.89-.23,6.28a33.41,33.41,0,0,0-10.37-.12,9,9,0,0,0-4.4,1.9,7.18,7.18,0,0,0-2.28,3.42c-.76,2.7.47,5.51,1.9,7.76.14.22.3.42.45.64-3.59-1-6-2.72-6.32-6.77C113.91,442,119.17,433.08,119.47,431.89Z"/>
              <path class="cls-7" d="M163.38,444.3a71.65,71.65,0,0,0,2.38-7.75l16.2,1.3a6.91,6.91,0,0,0,1.59,4.19,38.5,38.5,0,0,0-9.8,1.12c-2.56.73-5.2,2.13-5.5,5-.27,2.71,1.15,5.46,2.48,7.72l.07.11a19.38,19.38,0,0,1-5.53-1.2C160.2,452.45,162.59,445.89,163.38,444.3Z"/>
              <path class="cls-8" d="M187.45,223.66l5-35.73-.11,43-.82-1.19C190.08,227.71,188.67,225.57,187.45,223.66Z"/>
              <g>
                <path class="cls-9" d="M234.21,200.12s8.54-10.43,8.94-10.93,4.27-4.87,6.86-6.36,5-3.77,5.26-4.47.4-3.77,2.39-3.67,2.48,4.27,1.09,6.75a27.33,27.33,0,0,1-4.57,5.37s4.77.3,7.95.3,12.51-.8,13.9.1.7,3-2.68,3.37-5.76-.1-9.44.4-3.47,1-3.47,1,4.17,2,3.18,4a4.42,4.42,0,0,1-3.08,2.28,2,2,0,0,1,.92,2.16c-.29,1-1.72,1.82-1.72,1.82a1.79,1.79,0,0,1,.3,2.38c-.89,1.39-4.47,1.09-6.26,1a6.92,6.92,0,0,1-3.57-1.78l-4.18-.4-3.67,5.46Z"/>
                <path class="cls-6" d="M255.76,190c-.44,1.82-1.95,3.1-3.26,4.31A14.11,14.11,0,0,1,250,196.2a6.39,6.39,0,0,1-1.22.56c-.42.13-.83.33-1.25.46a.3.3,0,0,1-.28-.49,2.29,2.29,0,0,1,1-.49,6.9,6.9,0,0,0,1.23-.5,27.67,27.67,0,0,0,2.5-1.65,16.52,16.52,0,0,0,2-1.81,5.85,5.85,0,0,0,1.53-2.33.15.15,0,0,1,.28.08Z"/>
                <path class="cls-6" d="M248.44,198.79a4.23,4.23,0,0,1,2-.77,8.26,8.26,0,0,1,.94-.16,1.39,1.39,0,0,1,0-.9c.43-1.29,1.81-1.9,3-2.33.87-.31,4.73-1.21,5.8-1,.16,0,.12.2,0,.24-1,.23-2.09.34-3.07.63a31.73,31.73,0,0,0-4.62,1.56,1.69,1.69,0,0,0-.87,1.09,1.22,1.22,0,0,0,.6,1.08,7.4,7.4,0,0,0,3,.44c.95.07,5.31-.43,5.34-.45a3,3,0,0,1,.28.22,15.08,15.08,0,0,1-1.76.31,21.58,21.58,0,0,1-5.84.23,3.43,3.43,0,0,1-1.22-.5c-.34.07-.72.06-1,.1a5.23,5.23,0,0,0-1.9.57c-.84.51-.5,1.25.1,1.8a4.3,4.3,0,0,0,2.26,1,19.52,19.52,0,0,0,2.65.13l5.65.1a1.47,1.47,0,0,1,.14.14,18,18,0,0,1-3.78.26,22.84,22.84,0,0,1-5-.17,1.15,1.15,0,0,0-.8.66,1.08,1.08,0,0,0,.21,1,3.88,3.88,0,0,1-.34-.29l-.39,0a1.28,1.28,0,0,1,.27-1.28,1.33,1.33,0,0,1,.3-.23,6.42,6.42,0,0,1-.66-.24C248.53,201.48,247,200,248.44,198.79Z"/>
                <path class="cls-6" d="M241.13,201.59a2.45,2.45,0,0,1-.39-2.39.15.15,0,0,1,.26,0,2.9,2.9,0,0,1,.2,1.1,2,2,0,0,0,.48,1.09,4.53,4.53,0,0,0,1.78,1c.75.27,1.51.52,2.27.73.38.11.76.19,1.14.29l.25.07-1.09-.1-.18.27-.38-.08a23.13,23.13,0,0,1-2.52-.82A4.11,4.11,0,0,1,241.13,201.59Z"/>
              </g>
              <g>
                <path class="cls-9" d="M144.21,147.67a115,115,0,0,1,1.19,11.62,56.31,56.31,0,0,1-1,8.74s10.13,8.74,11,10.24,4.67,13,7,13.21,5.56-3.68,5.56-5.37-3.08-14.9-3.48-18.28-.79-7.15,0-8.64S144.21,147.67,144.21,147.67Z"/>
                <path class="cls-10" d="M164.35,166.74c-2.08.25-5.24-.15-9.81-2.58-4.18-2.22-7.3-6.16-9.49-9.93-.36-3.31-.84-6.56-.84-6.56s21.06,10,20.26,11.52C163.76,160.52,164,163.67,164.35,166.74Z"/>
                <path class="cls-9" d="M168.05,112.17s7.15,16.29,8.21,27.42-1.46,22.52-15,22.52-21.45-22.26-22.12-24-2.12-13.38.53-16.56S167.12,111.37,168.05,112.17Z"/>
                <path class="cls-9" d="M142.12,143.2c0-.3-5.16-5.67-8-2.68s.7,9.43,4.67,9.83,4.47-4.27,4.47-4.27Z"/>
                <path class="cls-4" d="M141.72,143.89s2.39-2.58,2.19-8.34a42.17,42.17,0,0,0-2.29-11.43s10.34,3.28,20.87-.89,10.73-16.79,9.24-20.86-3.88-5.17-5.87-4.67-2.68,4.17-2.68,4.17-2.38-6-6.26-4.37-1.29,10.43-1.29,10.43-4.27-6.26-7-5,.69,9.74.59,11.13a3.38,3.38,0,0,1-1.68,2.28s-4.87-3.37-9.34-1.29-2.78,5.86-2.78,5.86-8.15-2.48-6.26,6S141.72,143.89,141.72,143.89Z"/>
                <path class="cls-6" d="M160.47,130.31c.61,3.9-.62,10.12,4.13,11.9a5.27,5.27,0,0,0,1.36.31,4.28,4.28,0,0,0,1.7-.32,7.37,7.37,0,0,1,1.8-.3c.8,0,1,.33.74,1a6,6,0,0,1-1.83,2.54,4.12,4.12,0,0,1-1.42.78,9.28,9.28,0,0,1-1.75.18c-.26,0-.42.39-.14.54,1.93,1,4.18-.93,5.17-2.44a3.41,3.41,0,0,0,.76-2.44c-.21-.85-1.15-1-1.89-.88s-1.34.42-2,.49a5.29,5.29,0,0,1-2.27-.18,4.7,4.7,0,0,1-2.82-3.46,21.76,21.76,0,0,1-.59-4.41c-.08-1.11.18-2.56-.47-3.54a.24.24,0,0,0-.43.18Z"/>
                <path class="cls-4" d="M153.53,132.27a5.52,5.52,0,0,1,3.89,2.06c1.5,2,1.05,3,.16,2.62s-1.85-1.82-4.48-2.13-4.11-.21-4.29-1S150.64,131.87,153.53,132.27Z"/>
                <path class="cls-4" d="M168.09,128.89c2,0,2.81,1.63,3,1.35s.78-1.15-1.14-2.41a5.28,5.28,0,0,0-5.5,0c-1.21.77-1.95,2.08-1.49,2.7C164,132,166.1,128.9,168.09,128.89Z"/>
                <path class="cls-4" d="M166.56,134.89a1.57,1.57,0,0,1,2.37.28,3.6,3.6,0,0,1,.8,2.79,1.79,1.79,0,0,1-1.37,1.58c-1,.13-1.73-.95-2.05-1.7a3.31,3.31,0,0,1,0-2.53A2.19,2.19,0,0,1,166.56,134.89Z"/>
                <path class="cls-6" d="M153.61,140.12a5.21,5.21,0,0,1,2.7-.42,6.33,6.33,0,0,1,1.5.23l.23.07c-.09-.09-.18-.2-.28-.29a7,7,0,0,0-1.38-1,6.61,6.61,0,0,0-1.55-.65,7.25,7.25,0,0,0-.78-.17,5,5,0,0,1-.88-.11.29.29,0,0,1,0-.55,2.15,2.15,0,0,1,.91,0,7.15,7.15,0,0,1,.92.19,8.78,8.78,0,0,1,1.71.7,8.42,8.42,0,0,1,1.51,1.07,5.43,5.43,0,0,1,.63.64,1.45,1.45,0,0,1,.42.81.23.23,0,0,1-.3.22l-.12,0c-.43-.08-.83-.26-1.26-.32s-.91-.1-1.37-.13a4.25,4.25,0,0,0-2.61.56c-.19.13-.87.52-.92,0S153.29,140.28,153.61,140.12Z"/>
                <path class="cls-4" d="M166.36,151.44s-16.89-7.35-17.09-6.45.1,9,7.75,11.32S166.36,151.44,166.36,151.44Z"/>
                <path class="cls-11" d="M163.87,151.46a2.65,2.65,0,0,1-2.26.38,14.81,14.81,0,0,1-6.28-2.56,6.36,6.36,0,0,1-2.12-2.43A2.6,2.6,0,0,1,153,146c3.54,1.3,8.69,3.47,11.44,4.65A2.64,2.64,0,0,1,163.87,151.46Z"/>
                <path class="cls-5" d="M152.8,151.85a8.12,8.12,0,0,1,3.11,1.58,7.62,7.62,0,0,1,2.09,3.12c-.31-.06-.64-.14-1-.24a10.25,10.25,0,0,1-6.05-4.67A5.69,5.69,0,0,1,152.8,151.85Z"/>
              </g>
              <path class="cls-5" d="M192.69,181.44s-1.79,21.46-2.79,37.16-3.37,36.36-4,39.14-1,7.15-1,7.15-24.84-1.39-37.95-4-17.49-5.57-17.49-5.57-.79-23-2-36.55-2.19-29.61-2.19-29.61l-1.79-17.48s13.91-.4,16.89-1.39,5.76-1.79,5.76-1.79a136.94,136.94,0,0,0,13.91,7.55c1.39,5.56,3,12,4,12.12s-.08-9.93.07-14.6C172.64,171.65,192.69,181.44,192.69,181.44Z"/>
              <g class="cls-12">
                <path class="cls-13" d="M164.52,188.33c0,20.45.79,41-.75,61.39-.18,2.47-.42,4.95-.75,7.4a24.93,24.93,0,0,1-1.25,5.94c0,.08-.17.08-.16,0,.14-1.69.55-3.37.81-5,.35-2.25.59-4.52.76-6.79.39-4.94.52-9.9.63-14.86.23-10.33.22-20.65.15-31,0-5.68-.07-11.36-.06-17a.31.31,0,0,1,.62,0Z"/>
              </g>
              <path class="cls-7" d="M134.67,229.33c1,12.48,1.41,22.39,1.61,28.88a30,30,0,0,1-6.78-2.86s-.79-23-2-36.55-2.19-29.61-2.19-29.61l-1.79-17.48,1.76-.06C127.58,182.57,133.25,210.88,134.67,229.33Z"/>
              <path class="cls-14" d="M129.11,251.78s22.43,7.93,31.39,9.14a187,187,0,0,0,25,1.59l-.39,7.94s-6,1.46-24.91-2.11a174.8,174.8,0,0,1-31.65-8.88Z"/>
              <path class="cls-14" d="M165.16,171.67l.13-.17a9.19,9.19,0,0,0,1.59-3.75,7.26,7.26,0,0,0-.27-3.55,5.52,5.52,0,0,0-.69-1.4,8.28,8.28,0,0,1,3,2,15.87,15.87,0,0,1,4.31,11.92c-.34,4.37-2.52,8.15-2.85,8.15s-1.42-3.06-3.18-6.16c-.8-1.4-1.84-2.62-2.72-3.95S164.46,172.61,165.16,171.67Z"/>
              <path class="cls-14" d="M160.3,176.24c-3.71,3.25-6.11,11.51-6.72,11.63-1.19.23-3.2-1-6.76-4.17a37.2,37.2,0,0,1-7.65-10.2c-1.06-2.26-.86-3.31.2-5.3a17.6,17.6,0,0,1,3.91-4.7,4.89,4.89,0,0,1,1.95-1.26s-.53,2.65.17,3.51a30.81,30.81,0,0,0,7.81,6.55C157.06,174.63,160.61,176,160.3,176.24Z"/>
              <path class="cls-14" d="M227.65,205.29s5.77-7.06,6.46-6.76a36.83,36.83,0,0,1,7.75,6.76c2.38,3,2.09,3.37,1.69,4.27s-3.38,5.86-3.68,5.76-4.67-4.17-7.45-6.26S227.65,205.29,227.65,205.29Z"/>
              <g>
                <path class="cls-9" d="M118.78,242.54s8.64,10.53,11,15.7.6,9.13-2.88,11.82-7.43,4.12-11.26,3.34c-2.91-.59-3.32-2.61-3-3.08a2.08,2.08,0,0,1,.84-.64s-2.29-.91-2.49-2.5,1.65-2.06,3-1.36a7.84,7.84,0,0,0,2.15.66s-3.47-2.68-3.37-4.47,1.29-1.79,2.48-.79,2.38,2.28,3.38,2,2.28-1.39,1.69-1.49-6.86-1.89-7.65-4.37c-.71-2.21,1.68-3.87,1.29-5s-3.08-3.47-3.08-3.47S116.39,240.85,118.78,242.54Z"/>
                <g>
                  <path class="cls-6" d="M123.32,265a9,9,0,0,1-6.06,1.71,5.22,5.22,0,0,1-1.29-.28l.22,0a17.85,17.85,0,0,1-1.42-1.26,5.73,5.73,0,0,0,2.62.92,9.57,9.57,0,0,0,5.72-1.5C123.34,264.49,123.54,264.85,123.32,265Z"/>
                  <path class="cls-6" d="M112.94,270.05a2.07,2.07,0,0,1,.58-.37,6.82,6.82,0,0,1-1-.51,12.17,12.17,0,0,0,1.54.43,16.81,16.81,0,0,0,3.67.37,14.62,14.62,0,0,0,7.22-2.09c.16-.1.35.13.2.26a11.53,11.53,0,0,1-7.42,2.51,18.26,18.26,0,0,1-4-.4C113.53,270.19,113.24,270.13,112.94,270.05Z"/>
                </g>
              </g>
              <path class="cls-5" d="M134,171.28s-8.38-.3-11.56.3-10.59,5.1-18.27,12-19.87,17.42-22.59,23.58-3.38,8.87-.53,13.9,19.41,23.91,22,26,3.44,2.71,3.44,2.71L117,239.06s-3.45-6.22-6.43-12a77.85,77.85,0,0,0-5.82-9.61,42.78,42.78,0,0,1,9.07-6.82c5.36-3,15.83-9.4,17.48-11.72S143.31,181.61,134,171.28Z"/>
              <path class="cls-14" d="M116.79,236.88s4.37,6.65,4.27,7-3.28,1.89-5.56,4.57-4.17,4.47-4.17,4.47-5.87-3.08-6.66-3.67,1.85-4.44,5.36-7.62A34.25,34.25,0,0,1,116.79,236.88Z"/>
              <g>
                <path class="cls-6" d="M161.06,271.5c.81.12,8.91,1,10.83.65s3.69-11.54,2.72-12.61-10.25-3.11-12.68-.7S158.46,271.11,161.06,271.5Zm3.26-10.31c1.59-1.64,7.67-.23,8.3.5s-.52,8.43-1.77,8.64a50,50,0,0,1-7.09-.45C162.06,269.6,162.73,262.84,164.32,261.19Z"/>
                <path class="cls-6" d="M173.05,265.4c-.49-.16-5.46-1.38-4.9,0,.25.62,2.25.77,2.82.87a12,12,0,0,1,1.78.29A1.93,1.93,0,0,0,173.05,265.4Z"/>
              </g>
              <path class="cls-14" d="M138,432.45s-.53,5.56-1.32,5.69a57.64,57.64,0,0,1-13.25-.66c-6.62-1.06-7.55-2.25-7.55-2.25l1.19-5.43s6.63,1.59,12.19,2.25A48.67,48.67,0,0,0,138,432.45Z"/>
              <path class="cls-14" d="M184.62,435.92s-.28,5.58-1.07,5.75a58.17,58.17,0,0,1-13.26-.07c-6.66-.77-7.64-1.92-7.64-1.92l.95-5.47s6.69,1.29,12.27,1.7A47.66,47.66,0,0,0,184.62,435.92Z"/>
            </g>
            <path class="cls-19" d="M276,187.21c-1.39-.9-10.72-.1-13.9-.1s-7.95-.3-7.95-.3a27.33,27.33,0,0,0,4.57-5.37c1.39-2.48.89-6.65-1.09-6.75s-2.09,3-2.39,3.67-2.68,3-5.26,4.47-6.46,5.87-6.86,6.36L235,199.12a6.9,6.9,0,0,0-.92-.59c-.69-.3-6.46,6.76-6.46,6.76l.49.4c-2.7,3.08-12.43,14-13.8,13.31-1.59-.8-6.75-15.3-11.32-25.24s-10.73-19.27-17.29-22.25c-4.43-2-11.32-3.85-15.32-4.83-.15-.22-.3-.46-.46-.67a15,15,0,0,0-1-1.19c-.24-.24-.47-.45-.71-.65L168,164c-.22-.18-.44-.34-.65-.48l0,0a6.71,6.71,0,0,0-.72-.42h0a6.41,6.41,0,0,0-2.58-.71v-.46c11.12-1.46,13.23-12,12.24-22.34-.71-7.43-4.13-17.15-6.32-22.8,3-5.26,2.77-11.72,1.79-14.42-1.49-4.08-3.88-5.17-5.87-4.67s-2.68,4.17-2.68,4.17-2.38-6-6.26-4.37-1.29,10.43-1.29,10.43-4.27-6.26-7-5,.69,9.74.59,11.13a3.38,3.38,0,0,1-1.68,2.28s-4.87-3.37-9.34-1.29-2.78,5.86-2.78,5.86-8.15-2.48-6.26,6c1.06,4.77,4.95,9.57,8.14,12.85a2.93,2.93,0,0,0-3.08.75c-2.78,3,.7,9.44,4.67,9.84,2.9.29,3.95-2.11,4.3-3.43.4.73.83,1.48,1.28,2.24.15,1.1.36,2.69.55,4.35v.15c0,.18.05.37.07.56.19,1.86.35,3.75.35,5.07A37.62,37.62,0,0,1,145,164a11.67,11.67,0,0,1,.19-1.76,4.89,4.89,0,0,0-1.95,1.26,17.6,17.6,0,0,0-3.91,4.7,6.44,6.44,0,0,0-.89,2.52c-1.47.21-3.44.39-5.46.53a70.85,70.85,0,0,0-10.54.33c-3.17.59-10.59,5.1-18.27,12s-19.87,17.42-22.59,23.58-3.38,8.87-.53,13.9,19.41,23.91,22,26l1.56,1.23c-.15.44-.15.75,0,.89.79.59,6.66,3.67,6.66,3.67s.7-.67,1.77-1.8a5,5,0,0,1,.91,1.3c.39,1.1-2,2.76-1.29,5,.79,2.48,7,4.27,7.65,4.37s-.7,1.19-1.69,1.49-2.19-1-3.38-2-2.39-1-2.48.79c-.06,1.07,1.15,2.45,2.14,3.39l.1.1.17.16.11.1.15.13.1.09.13.11.09.08.11.09.07.06.07.06.09.07h0l0,0-.21,0a7.44,7.44,0,0,1-1.94-.62c-1.36-.7-3.21-.23-3,1.36a3.08,3.08,0,0,0,1.54,2h0a6.45,6.45,0,0,0,1,.51l0,0-.08,0-.08,0-.13.07-.1.08a.67.67,0,0,0-.14.11h0a1.68,1.68,0,0,0-.26.27c-.34.47.07,2.49,3,3.08a12.72,12.72,0,0,0,8.85-1.75c-1.31,11.12-4.21,40-3.75,58.81.47,19.05-1.92,83.94-2.51,99.61l-1.2-.27-1.19,5.43a4.2,4.2,0,0,0,1.64.86,46.44,46.44,0,0,0-2.6,6.65,13,13,0,0,0-.59,4.34,8.06,8.06,0,0,0,.19,1.27c0,.09,0,.17,0,.25a7.89,7.89,0,0,0,.36,1.07l.07.14a5.09,5.09,0,0,0,.47.86l.08.12a6.18,6.18,0,0,0,.66.78l.13.12a7.19,7.19,0,0,0,1.79,1.23l.12.06a11.21,11.21,0,0,0,1.11.47h0a23,23,0,0,0,4.19,1c5.17.79,25.63,3,27.92,2.78s4.17-1.39,3.38-3.58-4.08-2.88-7.45-4.77-10.73-6.16-12-8.54a.3.3,0,0,1,0-.08,5,5,0,0,1-.48-2,15.91,15.91,0,0,0,1.81-.11c.79-.13,1.32-5.69,1.32-5.69l-.91,0c.56-2.16,1.3-5.17,2-8.52,1.33-6.62,8.74-48.74,11.92-67s8.48-47.16,8.48-47.16,1.06,5.83,2.91,13,9.28,33.38,9.81,36.3-1.86,18.54-4,35.23c-1.6,12.63-2.9,31.62-3.44,40.12l-1.14-.21-.95,5.47a4.64,4.64,0,0,0,2,.89,30,30,0,0,1-1.28,3.73,13.38,13.38,0,0,0-1.2,4.18,6.84,6.84,0,0,0-.05.79h0a6.22,6.22,0,0,0,1,3.83,5.32,5.32,0,0,0,2.13,1.72l.49.21.22.07.35.12.31.08.33.09.39.09.3.06.48.1.27,0,.57.1.22,0,.67.1H170l.79.1h0c8.37.93,22.56.5,30.33.19,10-.39,9.24-2.68,7.75-4.86s-17.39-4.08-22.25-6.76a9.61,9.61,0,0,1-3.08-2.56,3.29,3.29,0,0,1-.23-.33l.23,0c.79-.17,1.07-5.75,1.07-5.75s-.54.07-1.55.12c.29-1.77.71-4.08,1.27-6.77,1.33-6.36,10.07-42.65,13.51-55.63s5.83-15.63.8-39.74c-4.36-20.86-12.28-54.6-14.34-63.32a6,6,0,0,0,.83-.13l.39-7.94h-.34c.18-1.46.43-3.33.74-4.77.5-2.33,2.25-17.21,3.39-31.2l1,1.48.22.33,1,1.37h0l.81,1.18h0c3.88,5.79,10.29,16.27,20.84,13.12,9.9-2.95,23.14-22.75,26.31-29a4.06,4.06,0,0,0,.41.31c.3.1,3.28-4.87,3.68-5.76.28-.62.5-1-.19-2.19l2.67-4,3.79.36h0l.39,0a6.92,6.92,0,0,0,3.57,1.78c1.79.1,5.37.4,6.26-1a1.79,1.79,0,0,0-.3-2.38h0s1.43-.83,1.72-1.82a1.8,1.8,0,0,0-.64-1.94h0a3,3,0,0,0-.28-.22,4.42,4.42,0,0,0,3.08-2.28c1-2-3.18-4-3.18-4s-.2-.49,3.47-1,6.06,0,9.44-.4S277.43,188.1,276,187.21ZM120.28,244.42a3,3,0,0,0,.78-.59c.1-.3-4.27-7-4.27-7s-.29.14-.77.42c-1.24-2.26-3.45-6.34-5.46-10.22a77.85,77.85,0,0,0-5.82-9.61,42.78,42.78,0,0,1,9.07-6.82c3.3-1.83,8.53-5,12.46-7.66.35,4.93.79,10.56,1.25,15.81.52,5.91,1,13.64,1.3,20.48,0,.48.05,1,.07,1.45.22,4.48.38,8.47.48,11.14l-.26-.09-.32,4.55A120.29,120.29,0,0,0,120.28,244.42Z"/>
            <path class="cls-20" d="M157.57,75.3c-9.11,10-21.17,17.81-31.19,26.9-4.87,4.42-15.81,11.83-19.94,19.16a3,3,0,0,0,3.27,4.42c7.42-1.89,15.79-9.63,21.45-12.85,5.25-3,10.49-6.7,15.92-9.53a1,1,0,0,1,1.18,1.59c-20.37,20-45.64,33.47-63.78,55.61-6.93,8.46-6.13,12.61-6.13,23.62,0,10.53-2.51,47.61,5.63,55.66,8.9,8.8,24.06-2.45,32.61-7.28a340.68,340.68,0,0,0,32.22-21c5.12-3.71,19.54-16.32,28.5-19.55a2,2,0,0,1,2.43,2.85c-5.64,9.94-23.49,19.17-26.65,29.73a2,2,0,0,0,2.27,2.59c4.85-.84,9.46-6.09,13.06-8.69,6.41-4.63,13.08-8.72,19.15-13.83,11.27-9.48,22.88-18.48,34.42-27.64,5.07-4,7.57-7.77,11.17-1.8,3.84,6.38,2.9,18.25,3.43,25.39.48,6.48,3.14,14.36-1.41,18.55-2.66,2.45-9.11,4.56-12.42,6.72-5,3.3-10,7-14.71,10.75-19.64,15.72-57.58,52.44-61.75,47.94-2.62-2.82,23.44-21.89,25.77-33.16a2,2,0,0,0-2.59-2.34c-8.35,2.72-19,13.26-25.24,17.83-8.71,6.34-17.47,12.6-25.93,19.24s-26.25,16.19-27.77,27.48c-1.27,9.34,2.84,3.77,4.15,13.11s2.19,18.57,3.34,27.78c1.43,11.51,3.32,22.87,5.51,34.21,3.85.59,8.54-1.49,11.88-3.47,13-7.66,36.29-29.24,41.87-24.28,1.87,1.66-13.32,8.78-9.72,12.62,4.85,5.19,17.36-7.83,23-11.38,8.14-5.13,15.05-11.7,22.63-17.62,9.7-7.6,19.51-15,29.24-22.45,3.83-2.94,24-17.26,29-15.37,3.87,1.46-1,26.81-1.57,30.51-4.19-9.1-17.73,2.78-23.08,6.37-11.65,7.83-42.8,25.19-37.59,30.6,4.79,5,31.41-20.72,35.56-14.44S199.67,376.47,194,379.73c-12.29,7.09-25.29,14.55-36.46,23.33-8.82,6.93-18.34,12.88-27.07,19.8-4.66,3.69-12.94,9.28-14,15.55-1.4,7.94,6,10.44,13.13,9.85,17.63-1.49,40.21-11.11,54.57-20.23,7.65-4.85,15.47-9.49,23.09-14.29,5.75-3.63,18.3-14.93,19.82-11.51,3,6.73-28.73,22.91-26.6,27.44,3,6.4,26.24-14.82,36.32-21.68,7.89-5.37,15.11-10.56,23.88-14.24.53,4.28-2.92,5.7-5.93,8-8.77,6.62-16.93,13.63-25.39,20.69-7.52,6.27-15.73,11.59-23,18.21-6.33,5.77-12.37,13.27-20,17.31-8.15,4.32-19.27,3.2-28.26,4.57-12.25,1.87-27.24.4-39.49,2.24-18.24,2.73-19-9-23.3-24.79a559,559,0,0,1-15-80.55C79,348.08,77,337.06,75.09,325.86c-2.43-14.27-.94-27.7-1.59-42-.9-19.62-3.73-39.18-4.41-58.76-.5-14.62-.73-28.4-2.5-42.91-.75-6.1-2.19-12.53-2.64-18.62-1.16-15.8,12.09-20.45,22.77-28.72,6.41-5,9.59-10.16,7.28-14.43a5.83,5.83,0,0,1,1.07-7.19c12.25-10.94,23.38-17.39,37.42-25.6C138.62,84.06,150,75.29,157.57,75.3Z"/>
            <path class="cls-11" d="M134.13,159.11a3.6,3.6,0,0,1-2.09-1.23,5.37,5.37,0,0,1-.73-2.28.22.22,0,0,0-.41,0,.09.09,0,0,0,0,.05l0,0a7.12,7.12,0,0,1-.86,2.14,3.66,3.66,0,0,1-1.83,1.41c-.2.08-.31.41-.06.52a5.89,5.89,0,0,1,2.67,3.68.26.26,0,0,0,.5,0c0-.17,0-.31,0-.48a4.72,4.72,0,0,1,.18-.53,5,5,0,0,1,2.68-2.9A.23.23,0,0,0,134.13,159.11Z"/>
            <path class="cls-11" d="M118.19,137.7a2.51,2.51,0,0,1-1.45-.85,3.86,3.86,0,0,1-.51-1.59.15.15,0,0,0-.28,0s0,0,0,0l0,0a4.9,4.9,0,0,1-.6,1.48,2.48,2.48,0,0,1-1.27,1c-.14.06-.22.29,0,.37a4.15,4.15,0,0,1,1.86,2.55.18.18,0,0,0,.34,0c0-.12,0-.22,0-.33s.08-.25.12-.37a4.4,4.4,0,0,1,.38-.75,3.65,3.65,0,0,1,1.49-1.26A.16.16,0,0,0,118.19,137.7Z"/>
            <path class="cls-11" d="M184.56,124.42a2.54,2.54,0,0,1-1.45-.85,3.82,3.82,0,0,1-.51-1.58.14.14,0,0,0-.28,0,0,0,0,0,1,0,0s0,0,0,0a5.23,5.23,0,0,1-.6,1.49,2.63,2.63,0,0,1-1.27,1c-.14,0-.22.28-.05.36a4.08,4.08,0,0,1,1.86,2.55.18.18,0,0,0,.34,0c0-.11,0-.21,0-.33a2.72,2.72,0,0,1,.13-.37,4.35,4.35,0,0,1,.37-.75,3.72,3.72,0,0,1,1.49-1.26A.16.16,0,0,0,184.56,124.42Z"/>
            <path class="cls-11" d="M215.85,177.23a2.48,2.48,0,0,1-1.45-.85,3.72,3.72,0,0,1-.51-1.59.15.15,0,0,0-.29,0v0l0,0a5,5,0,0,1-.6,1.48,2.57,2.57,0,0,1-1.27,1c-.14.06-.22.28-.05.37a4,4,0,0,1,1.86,2.55.18.18,0,0,0,.34,0c0-.12,0-.22,0-.33s.09-.25.13-.37a4,4,0,0,1,.37-.75,3.82,3.82,0,0,1,1.49-1.27A.15.15,0,0,0,215.85,177.23Z"/>
            <path class="cls-11" d="M123.4,115a4.1,4.1,0,0,1-2.35-1.37,6.26,6.26,0,0,1-.82-2.57.24.24,0,0,0-.46,0,.13.13,0,0,1,0,.06l0,0a8,8,0,0,1-1,2.4,4.14,4.14,0,0,1-2,1.57c-.23.09-.36.46-.08.59,1.61.76,2.47,2.52,3,4.13a.29.29,0,0,0,.55,0c0-.19,0-.35,0-.54s.14-.4.21-.6a6.72,6.72,0,0,1,.6-1.2,6.14,6.14,0,0,1,2.41-2.05A.26.26,0,0,0,123.4,115Z"/>
            <path class="cls-11" d="M109.49,153.88a3.68,3.68,0,0,1-2.13-1.25,5.56,5.56,0,0,1-.75-2.33.22.22,0,0,0-.41,0,.09.09,0,0,0,0,0l0,0a7.51,7.51,0,0,1-.88,2.18,3.72,3.72,0,0,1-1.86,1.43c-.21.08-.32.42-.07.54a6,6,0,0,1,2.73,3.75.26.26,0,0,0,.5,0c0-.17,0-.32,0-.49s.13-.37.19-.54a6,6,0,0,1,.55-1.1,5.49,5.49,0,0,1,2.19-1.86A.23.23,0,0,0,109.49,153.88Z"/>
            <path class="cls-11" d="M184.4,162a2.5,2.5,0,0,1-1.45-.86,3.68,3.68,0,0,1-.51-1.58.15.15,0,0,0-.29,0v0l0,0a5,5,0,0,1-.6,1.49,2.57,2.57,0,0,1-1.27,1c-.14.05-.22.28,0,.36a4.07,4.07,0,0,1,1.86,2.56c.06.15.3.17.34,0s0-.22,0-.33.09-.25.13-.38a3.94,3.94,0,0,1,.37-.74,3.82,3.82,0,0,1,1.49-1.27A.15.15,0,0,0,184.4,162Z"/>
            <path class="cls-11" d="M194.83,108.83a3.35,3.35,0,0,1-2-1.15,5.1,5.1,0,0,1-.69-2.13.2.2,0,0,0-.38,0s0,0,0,0,0,0,0,0a6.68,6.68,0,0,1-.81,2,3.45,3.45,0,0,1-1.7,1.31c-.2.08-.3.38-.07.49a5.53,5.53,0,0,1,2.51,3.44.23.23,0,0,0,.45,0c0-.16,0-.29,0-.45a5,5,0,0,1,.18-.5,4.68,4.68,0,0,1,.5-1,4.92,4.92,0,0,1,2-1.7A.22.22,0,0,0,194.83,108.83Z"/>
            <path class="cls-11" d="M199.29,144a4.07,4.07,0,0,1-2.36-1.39,6,6,0,0,1-.83-2.58.24.24,0,0,0-.46,0,.07.07,0,0,0,0,.05s0,0,0,0a7.83,7.83,0,0,1-1,2.42,4.19,4.19,0,0,1-2.07,1.59c-.23.09-.36.47-.08.6,1.63.76,2.49,2.54,3,4.16a.29.29,0,0,0,.55,0c.05-.19,0-.35.05-.54a4.27,4.27,0,0,1,.21-.6,6,6,0,0,1,.61-1.22,5.9,5.9,0,0,1,2.42-2.06A.26.26,0,0,0,199.29,144Z"/>
          </g>
        </g>
      </g>
    </g>
  </g>
</svg>
