<svg xmlns="http://www.w3.org/2000/svg" xmlns:xlink="http://www.w3.org/1999/xlink" width="135.08" height="135.08" viewBox="0 0 135.08 135.08">
  <defs>
    <style>
      .cls-1 {
        fill: #ffecb3;
      }

      .cls-2 {
        isolation: isolate;
      }

      .cls-3 {
        clip-path: url(#clip-path);
      }

      .cls-4 {
        fill: #00bebc;
      }

      .cls-5 {
        fill: #008c87;
      }

      .cls-17, .cls-6 {
        fill: #dbe5eb;
      }

      .cls-7 {
        fill: #ff9267;
      }

      .cls-8 {
        fill: #f87948;
      }

      .cls-9 {
        fill: #00736b;
      }

      .cls-10 {
        fill: #ee5c1d;
      }

      .cls-11 {
        fill: #ffba83;
      }

      .cls-12 {
        fill: #ffdbb6;
      }

      .cls-13 {
        fill: #893412;
      }

      .cls-14 {
        fill: #642308;
      }

      .cls-15 {
        fill: #a84b1b;
      }

      .cls-16 {
        fill: #fff;
      }

      .cls-17 {
        mix-blend-mode: multiply;
      }
    </style>
    <clipPath id="clip-path">
      <circle class="cls-1" cx="67.54" cy="67.54" r="67.54"/>
    </clipPath>
  </defs>
  <g class="cls-2">
    <g id="Layer_1" data-name="Layer 1">
      <g>
        <circle class="cls-1" cx="67.54" cy="67.54" r="67.54"/>
        <g class="cls-3">
          <g>
            <g>
              <g>
                <g>
                  <g>
                    <path class="cls-4" d="M93.67,92.07C90.46,86.9,77.74,81.73,69.2,80.75v-.17c-.42,0-.87,0-1.34,0s-.91,0-1.34,0v.17c-8.53,1-21.26,6.15-24.46,11.32-3.56,5.74,8.47,19.2,8.47,19.2l17.33-1.07,17.34,1.07S97.23,97.81,93.67,92.07Z"/>
                    <path class="cls-5" d="M81.64,91.85c-1.76-3.32-8.76-6.64-13.45-7.28v-.11l-.74,0-.74,0v.11c-4.69.64-11.69,4-13.45,7.28-2,3.7,4.66,12.36,4.66,12.36l9.53-.69,9.53.69S83.6,95.55,81.64,91.85Z"/>
                  </g>
                  <g>
                    <polygon class="cls-6" points="81.24 97.48 80 125.91 79.94 127.42 79.92 127.61 79.86 129.16 79.57 135.88 55.3 135.88 55.14 131.74 55.08 130.26 54.48 114.98 54.39 112.76 53.77 97.16 67.41 106.4 81.24 97.48"/>
                    <path class="cls-5" d="M55.3,135.88H12c6.09-18.53,22.79-23.64,25.84-25.76,1.75-1.21,4.53-3.43,7.29-5.7,4.35-3.57,8.64-7.26,8.64-7.26Z"/>
                    <path class="cls-5" d="M123.07,135.88c-6.09-18.53-22.79-23.64-25.84-25.76-4.49-3.12-16-12.65-16-12.65l-1.67,38.41Z"/>
                  </g>
                  <g>
                    <path class="cls-7" d="M81.24,97.47S73.49,118,67.31,117.88,53.78,97.16,53.78,97.16A10.9,10.9,0,0,0,54.41,96c3.09-6.58,2.81-19.34,2.81-19.34H77.6S77.31,89.41,80.4,96A11.62,11.62,0,0,0,81.24,97.47Z"/>
                    <path class="cls-8" d="M80.4,96a48.23,48.23,0,0,1-6.65,4,11,11,0,0,1-12.68,0,47.71,47.71,0,0,1-6.66-4c3.09-6.58,2.81-19.34,2.81-19.34H77.6S77.31,89.41,80.4,96Z"/>
                  </g>
                  <g>
                    <polygon class="cls-9" points="34.09 135.88 30.34 135.88 28.73 122.26 34.09 135.88"/>
                    <polygon class="cls-9" points="100.99 135.88 104.74 135.88 106.35 122.26 100.99 135.88"/>
                  </g>
                  <path class="cls-4" d="M55.3,135.88H49.19c-2.83-4.86-7-16.86-7.89-20.67-.81-3.31.93-6.13,3.84-10.79,4.35-3.57,8.64-7.26,8.64-7.26Z"/>
                  <path class="cls-4" d="M79.57,135.88h6.12c2.82-4.86,7-16.86,7.88-20.67.81-3.31-.92-6.17-3.83-10.83-4.36-3.57-8.65-7.22-8.65-7.22Z"/>
                </g>
                <g>
                  <g>
                    <g>
                      <path class="cls-7" d="M48.84,61.45s-2.3-12.33-5.91-10.52-3.78,16.51,5.91,20.48Z"/>
                      <path class="cls-10" d="M46.58,65.68a20.94,20.94,0,0,0-.18-2.43,22.11,22.11,0,0,0-.61-2.92,20.84,20.84,0,0,0-2.17-4.95c-.36-.59-.67-1.05-.9-1.36l-.36-.48s.29.8.77,2.08c.32.88.7,2,1.09,3.27A1,1,0,0,0,44,59a2.88,2.88,0,0,0-.84.64,3.26,3.26,0,0,0-.66,1.14,3.57,3.57,0,0,0,.05,2.29,2.75,2.75,0,0,0,.3.62l.14.21,0-.25c0-.15,0-.38.07-.64a11.28,11.28,0,0,1,.45-1.89,7.52,7.52,0,0,1,.38-1,4.37,4.37,0,0,1,.44-.75h0c.12.4.25.82.37,1.24.28,1,.53,1.93.75,2.79s.4,1.65.54,2.32.26,1.2.33,1.58l.12.59.05-.6C46.56,66.93,46.58,66.37,46.58,65.68Z"/>
                    </g>
                    <g>
                      <path class="cls-7" d="M86,61.45s2.3-12.33,5.91-10.52S95.66,67.44,86,71.41Z"/>
                      <path class="cls-10" d="M88.24,65.68a20.94,20.94,0,0,1,.18-2.43,20.29,20.29,0,0,1,2.78-7.87c.36-.59.67-1.05.9-1.36l.36-.48s-.3.8-.77,2.08c-.32.88-.7,2-1.09,3.27a.88.88,0,0,1,.2.09,2.91,2.91,0,0,1,.85.64,3.26,3.26,0,0,1,.66,1.14,3.57,3.57,0,0,1,0,2.29,3.19,3.19,0,0,1-.31.62,1.48,1.48,0,0,1-.14.21l0-.25c0-.15,0-.38-.08-.64a11.17,11.17,0,0,0-.44-1.89,9.4,9.4,0,0,0-.38-1,5.13,5.13,0,0,0-.44-.75h0c-.13.4-.25.82-.37,1.24-.28,1-.54,1.93-.76,2.79s-.4,1.65-.54,2.32-.25,1.2-.32,1.58-.12.59-.12.59,0-.21,0-.6A14.62,14.62,0,0,1,88.24,65.68Z"/>
                    </g>
                  </g>
                  <path class="cls-11" d="M86.77,76.09A20.68,20.68,0,0,1,80.92,87.9a31,31,0,0,1-6.77,5.19c-.73.41-1.42.78-2.08,1.11a8.14,8.14,0,0,1-4.36,1.47h-.3a8.13,8.13,0,0,1-4.66-1.48C57.45,91.59,49.35,86,48,76.09A164.38,164.38,0,0,1,47.28,52c.13-4.67.36-8.73.54-11.35.12-2,.22-3.15.22-3.15a33.54,33.54,0,0,1,6.69-6.21A22.32,22.32,0,0,1,67.41,26.8a21.55,21.55,0,0,1,11.4,3.61,33.63,33.63,0,0,1,8,7.06S88.74,61.1,86.77,76.09Z"/>
                  <g>
                    <path class="cls-12" d="M82.87,66.79c.45.07,1.07.21,1.15.74s-.4.78-.82.93a31.48,31.48,0,0,1-3.81,1.14c-1,.22-2.82.89-3.82.56s-.26-1.41.25-1.8A9.89,9.89,0,0,1,82.87,66.79Z"/>
                    <path class="cls-12" d="M52,66.79c-.45.07-1.08.21-1.16.74s.41.78.82.93a32,32,0,0,0,3.81,1.14c1,.22,2.83.89,3.82.56s.27-1.41-.24-1.8A9.91,9.91,0,0,0,52,66.79Z"/>
                  </g>
                  <path class="cls-7" d="M86.77,76.09A20.68,20.68,0,0,1,80.92,87.9a31,31,0,0,1-6.77,5.19c-.73.41-1.42.78-2.08,1.11a8.14,8.14,0,0,1-4.36,1.47C72.52,93.4,78.92,89.87,82,82.76c3.5-8.09,4.87-22.4,2.79-31-1,.33-2.29.63-3.14,0a3.15,3.15,0,0,1-.84-2.43,22.69,22.69,0,0,1,.82-7.2c-6.95,1.29-14,2.59-21,2.07a31.65,31.65,0,0,1-12.78-3.56c.12-2,.22-3.15.22-3.15a33.54,33.54,0,0,1,6.69-6.21,99.29,99.29,0,0,1,24.08-.85,33.63,33.63,0,0,1,8,7.06S88.74,61.1,86.77,76.09Z"/>
                  <path class="cls-12" d="M70.13,87.91a9.37,9.37,0,0,0-7.22.11,9.68,9.68,0,0,0,1.63,2.23,2.92,2.92,0,0,0,2.36.89,3.4,3.4,0,0,0,1.77-1A9.66,9.66,0,0,0,70.13,87.91Z"/>
                  <g>
                    <path class="cls-13" d="M101.64,36.41a33.23,33.23,0,0,1-6.18,5.4,50.79,50.79,0,0,1-1.08,6.5c-.51,2.41-1,4.49-1,4.49a5,5,0,0,0-1.48-1.87l-4.24,7.53-1-9.27a11.24,11.24,0,0,1-3,0C83,49,84.9,39.92,84.9,39.92h0a33,33,0,0,1-9.42,1.18c-2.69,0-5.37,0-8.06,0s-5.36.08-8.05,0a33,33,0,0,1-9.42-1.18h0s1.89,9,1.15,9.27a11.24,11.24,0,0,1-3,0l-1,9.27-4.24-7.53a5,5,0,0,0-1.48,1.87s-.57-2.07-1.07-4.81c-.88-4.72-1.58-11.47,1.1-13.12-1.1-2.41-.23-5.74,1.56-7.7a17.55,17.55,0,0,1,6.74-4.09c13.45-5.27,28.18-6.61,42.6-5.84,1.06.05,2.27.2,2.86,1.09.34.51,0,1.31-.26,1.86a23.76,23.76,0,0,1-3,4.48,40.35,40.35,0,0,1,7.1.75,1.71,1.71,0,0,1,1.34.77c.25.53-.09,1.14-.43,1.62a63,63,0,0,1-4.65,5.92,24.65,24.65,0,0,1,5.08.05c.7.07,1.53.28,1.75.95A1.92,1.92,0,0,1,101.64,36.41Z"/>
                    <path class="cls-14" d="M94.38,48.31c-.51,2.41-1,4.49-1,4.49a5,5,0,0,0-1.48-1.87l-4.24,7.53-1-9.27a11.24,11.24,0,0,1-3,0C83,49,84.9,39.92,84.9,39.92h0a33,33,0,0,1-9.42,1.18c-2.69,0-5.37,0-8.06,0s-5.36.08-8.05,0a33,33,0,0,1-9.42-1.18h0s1.89,9,1.15,9.27a11.24,11.24,0,0,1-3,0l-1,9.27-4.24-7.53a5,5,0,0,0-1.48,1.87s-.57-2.07-1.07-4.81a19.94,19.94,0,0,1,1.72-1.72,5.23,5.23,0,0,0,2.42,2.34l.15-3.7,2.49.29a14.15,14.15,0,0,1-2.61-7.85,168.57,168.57,0,0,0,44.22-2.52q-1,5.27-1.93,10.54l3.09-.57c-.29,1.17-.58,2.34-.88,3.52a3.71,3.71,0,0,1,4.34-.61A5.89,5.89,0,0,1,94.38,48.31Z"/>
                    <path class="cls-15" d="M72,29.43a28.71,28.71,0,0,1-8.3-2.58L69,23.06c-1.7-.43-3.4-1.33-5.09-1.76a74.68,74.68,0,0,1,21.5-2.62l-2.77,2.21c1.3,0,2.45.51,3.75.52L82,26.94l5.36,0-1.42,1.76,8.28,0A75,75,0,0,1,66.6,35.06c1.41-.54,2.47-1.62,3.87-2.16L67.27,32Z"/>
                  </g>
                  <g>
                    <path class="cls-7" d="M71.53,70.52a3.43,3.43,0,0,0-2-1.74c-.65.37-1.53.84-2.19,1.2L65.17,68.9a3.94,3.94,0,0,0-1.89,1.95,16.77,16.77,0,0,0,3.86,2.52A14,14,0,0,0,71.53,70.52Z"/>
                    <path class="cls-12" d="M66.85,67.79a2.87,2.87,0,0,0-1.25.87c.51.28,1.08.56,1.58.85l1.84-1A2.56,2.56,0,0,0,66.85,67.79Z"/>
                    <g>
                      <path class="cls-13" d="M64.9,71.25a1.27,1.27,0,0,1-.37-.36.44.44,0,0,1,0-.49.45.45,0,0,1,.54-.1,1.15,1.15,0,0,1,.44.38,5.31,5.31,0,0,1,1,1.58A5.77,5.77,0,0,1,64.9,71.25Z"/>
                      <path class="cls-13" d="M69.91,71.25a1.16,1.16,0,0,0,.37-.36.4.4,0,0,0-.53-.59,1.08,1.08,0,0,0-.44.38,5.55,5.55,0,0,0-1,1.58A5.63,5.63,0,0,0,69.91,71.25Z"/>
                    </g>
                  </g>
                </g>
              </g>
              <g>
                <g>
                  <g>
                    <path class="cls-14" d="M83.91,61a7.18,7.18,0,0,0-5.72-2.35,7.05,7.05,0,0,0-5.38,3,7.22,7.22,0,0,1,5.28-4.34,5.69,5.69,0,0,1,3.88.87A4.71,4.71,0,0,1,83.91,61Z"/>
                    <g>
                      <path class="cls-14" d="M80.77,61.16c0,1.77-.94,3.2-2.11,3.2s-2.11-1.43-2.11-3.2.94-3.2,2.11-3.2S80.77,59.4,80.77,61.16Z"/>
                      <path class="cls-16" d="M83,60.8a4.49,4.49,0,0,0-4,.78,2.8,2.8,0,0,0,2,.54A3.79,3.79,0,0,0,83,60.8Z"/>
                    </g>
                  </g>
                  <g>
                    <path class="cls-14" d="M52.3,62.19a7.15,7.15,0,0,1,5.07-3.56,7,7,0,0,1,5.89,1.71,7.17,7.17,0,0,0-6.1-3.06A5.69,5.69,0,0,0,53.57,59,4.69,4.69,0,0,0,52.3,62.19Z"/>
                    <g>
                      <path class="cls-14" d="M55.41,61.69c.39,1.72,1.63,2.91,2.77,2.65s1.74-1.86,1.35-3.59-1.63-2.91-2.77-2.65S55,60,55.41,61.69Z"/>
                      <path class="cls-16" d="M57.67,61.29a4.47,4.47,0,0,1,4.12-.13,2.85,2.85,0,0,1-1.85,1A3.86,3.86,0,0,1,57.67,61.29Z"/>
                    </g>
                  </g>
                  <path class="cls-13" d="M73.58,55.08a1.48,1.48,0,0,1-1,.08A1.14,1.14,0,0,1,72,53.91,3.34,3.34,0,0,1,75,51.37a7.78,7.78,0,0,1,4,.78,24.81,24.81,0,0,1,4.16,2.23c.37.25,2.2,1.74,1.38,2.26-.51.33-1.84-.63-2.26-.87A11.44,11.44,0,0,0,73.58,55.08Z"/>
                  <path class="cls-13" d="M61.24,55.08a1.47,1.47,0,0,0,1,.08,1.15,1.15,0,0,0,.5-1.25,3.33,3.33,0,0,0-2.9-2.54,7.8,7.8,0,0,0-4,.78,25.11,25.11,0,0,0-4.15,2.23c-.38.25-2.21,1.74-1.39,2.26.52.33,1.85-.63,2.27-.87A11.43,11.43,0,0,1,61.24,55.08Z"/>
                </g>
                <g>
                  <path class="cls-14" d="M78.28,74.68c0,1.8-1.09,4.11-2.24,5.93s-2.26,3-2.53,3-3.25,0-6.1,0-5.82,0-6.11,0-1.21-1-2.22-2.54c-1.25-1.88-2.55-4.44-2.55-6.4l.39.12.61.19a19.15,19.15,0,0,0,2.67.67c.41,0,3.76,0,7.26-.08,3.49.08,6.75.12,7.16.08a13,13,0,0,0,1.79-.41L78,74.77Z"/>
                  <path class="cls-16" d="M75.19,78.55a3.42,3.42,0,0,1,0,.36c0,.28,0,.69-.1,1.15a5.47,5.47,0,0,1-1.58,3.56c-.28,0-3.25,0-6.1,0s-5.82,0-6.11,0a7.93,7.93,0,0,1-1.87-4.09,2.68,2.68,0,0,1,0-.69l-.17-.23A10.83,10.83,0,0,1,57.53,75a19.15,19.15,0,0,0,2.67.67c.41,0,3.76,0,7.26-.08,3.49.08,6.75.12,7.16.08a13,13,0,0,0,1.79-.41C76.07,76.37,75.63,77.48,75.19,78.55Z"/>
                </g>
              </g>
            </g>
            <path class="cls-17" d="M79.93,127.6l-.07,1.56a73.93,73.93,0,0,1-24.72,2.58l-.06-1.48A72.69,72.69,0,0,0,79.93,127.6Z"/>
            <path class="cls-17" d="M80,125.91l-.06,1.51c-9.22-2.56-18.59-5.69-25.46-12.44l-.09-2.22C61.1,120.05,70.61,123.29,80,125.91Z"/>
          </g>
        </g>
      </g>
    </g>
  </g>
</svg>
