<svg id="Layer_1" data-name="Layer 1" xmlns="http://www.w3.org/2000/svg" xmlns:xlink="http://www.w3.org/1999/xlink" width="3600" height="1884" viewBox="0 0 3600 1884">
  <defs>
    <style>
      .cls-1 {
        fill: #a2b8aa;
      }

      .cls-2 {
        fill: #8fa898;
      }

      .cls-11, .cls-22, .cls-3, .cls-9 {
        fill: none;
      }

      .cls-4 {
        fill: url(#linear-gradient);
      }

      .cls-5 {
        fill: #fcebe1;
      }

      .cls-6 {
        fill: #c2d0c7;
      }

      .cls-7 {
        fill: #ffc7c7;
      }

      .cls-8 {
        clip-path: url(#clip-path);
      }

      .cls-11, .cls-9 {
        stroke: #7e8c83;
        stroke-miterlimit: 10;
      }

      .cls-9 {
        stroke-width: 7.29px;
      }

      .cls-10 {
        clip-path: url(#clip-path-2);
      }

      .cls-11 {
        stroke-width: 5.19px;
      }

      .cls-12 {
        clip-path: url(#clip-path-3);
      }

      .cls-13 {
        fill: #2d334a;
      }

      .cls-14 {
        fill: #828392;
      }

      .cls-15 {
        fill: #fff;
      }

      .cls-16 {
        fill: #383e56;
      }

      .cls-17 {
        fill: #685f6a;
      }

      .cls-18 {
        fill: #ffaca8;
      }

      .cls-19 {
        fill: #ff817a;
      }

      .cls-20 {
        fill: #ffbfbf;
      }

      .cls-21 {
        fill: #ffb5b5;
      }

      .cls-22 {
        stroke: #6f907b;
        stroke-linecap: round;
        stroke-linejoin: round;
        stroke-width: 5.18px;
      }

      .cls-23 {
        fill: #6f907b;
      }

      .cls-24 {
        fill: #ff9b96;
      }

      .cls-25 {
        fill: #ff948f;
      }

      .cls-26 {
        fill: #ff7e78;
      }

      .cls-27 {
        fill: #ffb1ad;
      }

      .cls-28 {
        fill: #e6e6e9;
      }

      .cls-29 {
        fill: #d2d3d8;
      }

      .cls-30 {
        fill: url(#linear-gradient-2);
      }

      .cls-31 {
        fill: url(#linear-gradient-3);
      }

      .cls-32 {
        fill: url(#linear-gradient-4);
      }

      .cls-33 {
        fill: #aec1b5;
      }

      .cls-34 {
        fill: url(#linear-gradient-5);
      }

      .cls-35 {
        fill: url(#linear-gradient-6);
      }

      .cls-36 {
        fill: url(#linear-gradient-7);
      }

      .cls-37 {
        fill: #848593;
      }
    </style>
    <linearGradient id="linear-gradient" x1="1800" y1="261.16" x2="1800" y2="1860.89" gradientUnits="userSpaceOnUse">
      <stop offset="0" stop-color="#fcc"/>
      <stop offset="1" stop-color="#fbe4d7"/>
    </linearGradient>
    <clipPath id="clip-path">
      <path class="cls-1" d="M2024.88,1537.48s-64-361.46,364.26-442.08c0,0,12.91,57.31,6.86,130.68-13.86,8.63-36.8,21.85-58.32,29.52,0,0,30.07-2.06,56.8-14.07C2379.78,1367.48,2306.09,1530.26,2024.88,1537.48Z"/>
    </clipPath>
    <clipPath id="clip-path-2">
      <path class="cls-2" d="M2128.73,1553.79s47.72-257,353.43-203.69c0,0-5.73,41.44-28.11,88.85-11.4,2.29-30,5.37-46.27,5.1,0,0,20.56,6.15,41.39,4.82C2407.88,1529.18,2318,1619.29,2128.73,1553.79Z"/>
    </clipPath>
    <clipPath id="clip-path-3">
      <rect class="cls-3" x="1177.72" y="500.2" width="1148.68" height="1197.32"/>
    </clipPath>
    <linearGradient id="linear-gradient-2" x1="994.15" y1="1697.73" x2="994.15" y2="1612.17" gradientUnits="userSpaceOnUse">
      <stop offset="0" stop-color="#fcc"/>
      <stop offset="1" stop-color="#fff"/>
    </linearGradient>
    <linearGradient id="linear-gradient-3" x1="1113.01" y1="1697.73" x2="1113.01" y2="1612.17" xlink:href="#linear-gradient-2"/>
    <linearGradient id="linear-gradient-4" x1="829.61" y1="1697.73" x2="829.61" y2="1612.17" xlink:href="#linear-gradient-2"/>
    <linearGradient id="linear-gradient-5" x1="2688.29" y1="1701.56" x2="2688.29" y2="1641.9" xlink:href="#linear-gradient-2"/>
    <linearGradient id="linear-gradient-6" x1="2771.17" y1="1701.56" x2="2771.17" y2="1641.9" xlink:href="#linear-gradient-2"/>
    <linearGradient id="linear-gradient-7" x1="2573.56" y1="1701.56" x2="2573.56" y2="1641.9" xlink:href="#linear-gradient-2"/>
  </defs>
  <path class="cls-4" d="M2620.19,593.31a759.57,759.57,0,0,0-206.46,28.44c-168.79-217.32-432.57-357.21-729.07-357.21-439.77,0-807.6,307.68-900.11,719.49A181.83,181.83,0,0,0,569,1198.28c-199.77,51.34-347.4,232.66-347.4,448.45A460.85,460.85,0,0,0,287,1884H3159.88c135.1-136.92,218.5-325,218.5-532.5C3378.38,932.76,3038.92,593.31,2620.19,593.31Z"/>
  <g>
    <path class="cls-5" d="M1718.68,1515c-1.46-.93-148-94.68-296.67-235.93-87.35-83-158.35-166-211-246.59-66-101-103.25-198.61-110.74-290.13-7-85.84,9.64-156.43,49.55-209.81,41.1-55,98-79.33,138.5-90.09,43-11.4,89.1-13.59,129.94-6.16,39.09,7.11,66.5,21.86,75.21,40.48l-7.25,3.39c-7.48-16-33.42-29.46-69.39-36-39.71-7.22-84.62-5.08-126.45,6-39.28,10.43-94.43,34-134.16,87.15-38.7,51.77-54.84,120.53-48,204.37,7.39,90.15,44.2,186.49,109.43,286.35,52.3,80.07,122.88,162.55,209.76,245.13,148.08,140.74,294.1,234.14,295.56,235.07Z"/>
    <path class="cls-5" d="M1137.15,892.63c-.15-.23-14.83-23.75-41.06-51.09-24.11-25.12-63.22-58.72-112.58-76.08l2.66-7.55c50.91,17.91,91.09,52.44,115.83,78.24,26.77,27.93,41.34,51.29,42,52.27Z"/>
  </g>
  <g>
    <path class="cls-5" d="M2144.66,1227.49l12.87,3.14c.21-.85,20.7-85.94,30.21-210.45,8.78-114.92,9.76-288-35.42-460.19l-12.81,3.36C2225.1,889.47,2145.48,1224.15,2144.66,1227.49Z"/>
    <path class="cls-5" d="M2146.35,482.11c12.88,52.5,4.6,99.65,4.6,99.65s-29.15-38-42-90.48-4.6-99.65-4.6-99.65S2133.47,429.61,2146.35,482.11Z"/>
    <path class="cls-5" d="M2228.31,558.77c-28,46.21-67.26,73.67-67.26,73.67s6.27-47.46,34.32-93.67,67.26-73.66,67.26-73.66S2256.36,512.56,2228.31,558.77Z"/>
    <path class="cls-5" d="M2063.63,608.27c-50.26-19.91-83.92-54-83.92-54s47.85-1.77,98.11,18.14,83.92,54,83.92,54S2113.9,628.18,2063.63,608.27Z"/>
    <path class="cls-5" d="M2075.26,713.66c-53.87-4.54-95.92-27.42-95.92-27.42s45.29-15.52,99.16-11,95.93,27.43,95.93,27.43S2129.14,718.21,2075.26,713.66Z"/>
    <path class="cls-5" d="M2085.46,817.87c-53.27-9.28-93.14-35.78-93.14-35.78s46.49-11.46,99.75-2.17,93.13,35.78,93.13,35.78S2138.72,827.16,2085.46,817.87Z"/>
    <path class="cls-5" d="M2087.88,917.85c-52.89-11.2-91.78-39.12-91.78-39.12s46.87-9.77,99.76,1.43,91.78,39.12,91.78,39.12S2140.77,929.05,2087.88,917.85Z"/>
    <path class="cls-5" d="M2077.52,1035.5c-53.87-4.54-95.93-27.43-95.93-27.43s45.29-15.51,99.17-11,95.92,27.42,95.92,27.42S2131.39,1040.05,2077.52,1035.5Z"/>
    <path class="cls-5" d="M2263,667.1c-43.44,32.17-90.13,42.78-90.13,42.78s23.75-41.57,67.19-73.74,90.12-42.78,90.12-42.78S2306.47,634.92,2263,667.1Z"/>
    <path class="cls-5" d="M2284.48,916.39c-52.69,12.11-99.72,3.14-99.72,3.14s38.4-28.58,91.08-40.69,99.72-3.14,99.72-3.14S2337.17,904.29,2284.48,916.39Z"/>
    <path class="cls-5" d="M2275.68,1048.79c-54-1.46-97.34-21.9-97.34-21.9s44.33-18.08,98.37-16.62,97.34,21.89,97.34,21.89S2329.72,1050.24,2275.68,1048.79Z"/>
    <path class="cls-5" d="M2278,791.2c-47.83,25.17-95.59,28.53-95.59,28.53s29.8-37.45,77.64-62.63,95.6-28.53,95.6-28.53S2325.84,766,2278,791.2Z"/>
  </g>
  <g>
    <path class="cls-6" d="M2659.38,861.43c-41.55,22.87-91.77,11.36-91.77,11.36s17.16-48.57,58.71-71.44S2718.09,790,2718.09,790,2700.93,838.56,2659.38,861.43Z"/>
    <path class="cls-6" d="M2619.2,1071.52c-44.77,15.66-92.38-4-92.38-4s25-45.06,69.74-60.72,92.38,4,92.38,4S2664,1055.86,2619.2,1071.52Z"/>
    <path class="cls-6" d="M2591.64,642.12c4.62,47.2-25.76,88.81-25.76,88.81S2528,696,2523.39,648.8,2549.15,560,2549.15,560,2587,594.92,2591.64,642.12Z"/>
    <path class="cls-6" d="M2522.35,795.19c37,29.75,45.4,80.56,45.4,80.56s-51.45,2.6-88.4-27.14S2434,768.05,2434,768.05,2485.41,765.45,2522.35,795.19Z"/>
    <path class="cls-6" d="M2481.78,985.85c36.94,29.74,45.39,80.56,45.39,80.56s-51.45,2.6-88.39-27.14-45.4-80.56-45.4-80.56S2444.83,956.11,2481.78,985.85Z"/>
    <path class="cls-6" d="M2365.2,1416.31l-7.84-5.65c.66-.91,66.17-92.39,123.27-225.75,33.5-78.25,57.59-155.39,71.61-229.28,17.49-92.21,19.25-179.59,5.24-259.71l9.51-1.67c14.23,81.31,12.45,169.9-5.28,263.31-14.17,74.61-38.49,152.45-72.29,231.36C2431.9,1323.21,2365.86,1415.39,2365.2,1416.31Z"/>
  </g>
  <g>
    <path class="cls-7" d="M2690.8,1208c-.12,29.53,21.14,53.55,21.14,53.55s21.44-23.86,21.55-53.39-21.15-53.54-21.15-53.54S2690.91,1178.46,2690.8,1208Z"/>
    <path class="cls-7" d="M2587.94,1292.58c4.79,29.14,29.73,49.3,29.73,49.3s17.18-27.08,12.4-56.22-29.73-49.3-29.73-49.3S2583.15,1263.44,2587.94,1292.58Z"/>
    <path class="cls-7" d="M2830.86,1179.64c-27.18,11.55-40.86,40.56-40.86,40.56s30.38,10.28,57.55-1.26,40.87-40.55,40.87-40.55S2858,1168.1,2830.86,1179.64Z"/>
    <path class="cls-7" d="M2767.85,1263.14c-27.27-11.32-57.57-.79-57.57-.79s13.92,28.89,41.19,40.22,57.56.8,57.56.8S2795.12,1274.47,2767.85,1263.14Z"/>
    <path class="cls-7" d="M2675.73,1342.15c-27.27-11.32-57.57-.79-57.57-.79s13.92,28.89,41.19,40.22,57.57.8,57.57.8S2703,1353.48,2675.73,1342.15Z"/>
    <path class="cls-7" d="M2475.2,1534.19l5.43,2.6c.3-.63,30.77-63.7,86.64-134.67,32.78-41.63,67.76-77.8,104-107.49,45.18-37.05,92.42-64.06,140.39-80.28l-1.93-5.69c-48.68,16.46-96.57,43.84-142.34,81.37-36.56,30-71.86,66.48-104.91,108.48C2506.2,1470,2475.5,1533.56,2475.2,1534.19Z"/>
  </g>
  <g>
    <path class="cls-1" d="M2024.88,1537.48s-64-361.46,364.26-442.08c0,0,12.91,57.31,6.86,130.68-13.86,8.63-36.8,21.85-58.32,29.52,0,0,30.07-2.06,56.8-14.07C2379.78,1367.48,2306.09,1530.26,2024.88,1537.48Z"/>
    <g class="cls-8">
      <g>
        <path class="cls-9" d="M2414.7,1063.93s-172.41,288.92-398.65,484.2"/>
        <path class="cls-9" d="M2099.12,1470.26s164.16-.07,232.7-32.2"/>
        <path class="cls-9" d="M2093.13,1235s10.2,98.8,51.77,187.19"/>
        <path class="cls-9" d="M2397.66,1299.05s-152.72,68.8-205.12,73.25"/>
        <path class="cls-9" d="M2216.36,1134.66s7.72,103.24,28.88,165.64"/>
        <path class="cls-9" d="M2421.15,1173.17s-61.43,45.24-114.3,50.61"/>
        <path class="cls-9" d="M2023.47,1366s20.57,96,46,132.76"/>
        <path class="cls-9" d="M2340.31,1068.7s-10.07,65.92,6.26,99.32"/>
      </g>
    </g>
  </g>
  <g>
    <path class="cls-2" d="M2128.73,1553.79s47.72-257,353.43-203.69c0,0-5.73,41.44-28.11,88.85-11.4,2.29-30,5.37-46.27,5.1,0,0,20.56,6.15,41.39,4.82C2407.88,1529.18,2318,1619.29,2128.73,1553.79Z"/>
    <g class="cls-10">
      <g>
        <path class="cls-11" d="M2507.07,1335.51s-187.21,149.53-386.9,223.18"/>
        <path class="cls-11" d="M2195,1527.53s109.47,41,163.21,36.72"/>
        <path class="cls-11" d="M2249.87,1369.19S2232,1437.62,2237.58,1507"/>
        <path class="cls-11" d="M2436.91,1488s-119,7.69-155.09-2.45"/>
        <path class="cls-11" d="M2357.13,1333.07s-20.67,70.77-22.16,117.67"/>
        <path class="cls-11" d="M2484.05,1410s-52.27,14.81-88.87,5.16"/>
        <path class="cls-11" d="M2170.66,1439.1s-10.29,69.18-2.51,100"/>
        <path class="cls-11" d="M2456.27,1320.09s-23.2,41.43-20.66,67.79"/>
      </g>
    </g>
  </g>
  <g class="cls-12">
    <g>
      <path class="cls-13" d="M1279.88,865.12c30.2-118.66,201.26-203.75,305.24-111.69,9.76,8.65,19,18.62,30.39,24,17.89,8.4,37.34,3.71,54.35-3,38.22-15.08,73-39.81,114.05-45.75,65.74-9.51,141.1,38.37,167.48,109.15,24.4,65.47,5.59,139.76-37.78,183.61s-107.31,59.66-169.87,53.4c-15.61-1.56-31.5-4.38-46.53-1.61-27.88,5.14-48.16,28.4-73.43,40.72-23.6,11.51-51.89,13.1-78.43,4.41-34.31-11.23-63.84-38.19-97.21-53.38-39.08-17.8-83.14-19.38-118.64-45.7C1284.33,985.76,1266.39,918.15,1279.88,865.12Z"/>
      <path class="cls-14" d="M1945.58,913.32c-40.93-30.64-126,20.54-127.09,21.34-12.58,9.42-10.8,39.49,1.57,53.45l354.7,284.19c4.22,5.24,13.29-1.77,18.82-5.92a13,13,0,0,0,4.1-5.12c9.18-13.32,14.52-47.11,7.05-61.41C2165.86,1125.4,1998.8,953.15,1945.58,913.32Z"/>
      <path class="cls-13" d="M1438.65,574.71c66.58-68,214.8-58.55,248.83,43.9,3.2,9.63,5.53,19.94,11.1,28,8.75,12.62,23.66,17.06,37.71,19.18,31.58,4.76,64.6,1.68,94.54,13.71,47.92,19.23,79.94,80.81,70.08,138.7-9.12,53.55-50.74,96.17-97,108.76s-95.44-1.72-135.07-30.33c-9.88-7.13-19.47-15.23-30.66-19.23-20.75-7.41-43.46.33-65.26-1.24-20.36-1.46-40-11.42-54.47-27.61-18.69-20.93-28-50.58-44.56-73.81-19.34-27.21-48.36-45.45-62-77C1394.6,657.58,1408.9,605.12,1438.65,574.71Z"/>
      <path class="cls-13" d="M1577.15,999.9c-86.64,39.39-221.44-23-216.17-130.8.49-10.13,2-20.58-.26-30.08-3.6-14.94-15.9-24.46-28.24-31.51-27.73-15.85-59.63-24.9-83.21-46.92-37.74-35.25-45.35-104.23-15.26-154.65,27.84-46.65,82-71.36,129.73-66.39s88.38,36.07,115,77.05c6.64,10.23,12.65,21.24,21.64,29C1517.07,660,1541,661,1560.8,670.33c18.46,8.72,33.18,25.11,40.82,45.43,9.87,26.27,7.89,57.29,14.9,84.91,8.21,32.36,28.68,59.85,30,94.18C1648.16,938.53,1615.88,982.29,1577.15,999.9Z"/>
      <path class="cls-15" d="M1634.91,1720.2c13.15-163.55,47.06-205.52,67.69-321.34-2.64-100.71,28.15-340.51,52.32-412.91,30.36-90.93,76.8-140.29,152.28-102.53,23.76,11.88,101.23,112.25,112.79,165,14.53,66.32,14.22,72.63-26.83,177-14.59,37.09-16.44,264.55-.08,331.63,4.7,19.28-.19,239.54,9,259.94C1988,1826.74,1641.66,1716.84,1634.91,1720.2Z"/>
      <path class="cls-15" d="M1757.1,1647.36c4.49-76.09,117.1-104.14,144.48-107.33a39.7,39.7,0,0,1,5.49-1.68,40.37,40.37,0,0,1,48.47,32l117.31,626A18.61,18.61,0,0,1,2049,2217.5c-23.42-2.67-119-8.41-127.83-30.81C1875.11,2070.09,1751.26,1746.29,1757.1,1647.36Z"/>
      <path class="cls-15" d="M1833.54,1647.36c-4.49-76.09-117.11-104.14-144.49-107.33a39.57,39.57,0,0,0-5.48-1.68,40.37,40.37,0,0,0-48.47,32l-117.31,626a18.6,18.6,0,0,0,23.8,21.22c23.42-2.67,119-8.41,127.84-30.81C1715.53,2070.09,1839.37,1746.29,1833.54,1647.36Z"/>
      <path class="cls-16" d="M1634.91,1501.16s-80.21,153.13-109.38,406.51-83.85,322.65-83.85,322.65,113,144,306.24,91.14,304.5-153.05,373.73-142.15c0,0-80-613-117.5-641.94Z"/>
      <path class="cls-14" d="M1836.68,1089.44c23.07-41-42.41-168-42.78-169.24-5.33-18.62-50.24-10.75-69.14,15.9-.28.4-.53.81-.78,1.23L1526,1281.59c-4.35,4.35,3.57,12.64,8.27,17.71a13.94,13.94,0,0,0,5.43,3.63c13.88,8,51.14,15.84,63.57,7.85C1668,1269.17,1806.67,1142.81,1836.68,1089.44Z"/>
      <path class="cls-13" d="M2014.17,696.28c-16.76-17.18-57.17-35.15-81-27s-23.61,21.21-15.84,43.83,58.9,68.46,84,66C2038.69,775.48,2040.52,723.31,2014.17,696.28Z"/>
      <path class="cls-15" d="M1823.84,779.24l89,13.46c-1.47,10.06-4.84,111.78-17.24,146.1-5.33,10.2-36.81,4.34-55-5.19-16.4-8.58-39.22-17.49-37.22-27.59l-2.8-7.53C1807.92,877.91,1818.65,814.37,1823.84,779.24Z"/>
      <path class="cls-15" d="M1834.28,754.72c-21.33,62.71,5.06,128.4,43.38,141.43s87.28-28.91,108.61-91.61-12.1-107.8-50.42-120.83S1855.61,692,1834.28,754.72Z"/>
      <path class="cls-13" d="M1873.34,658c38.42-14.13,109.6-5.46,119.77,61.32,0,0,2,33.6-31.37,43.8l-80.59-24.13a16.88,16.88,0,0,0-20.32,9.42l-7.33,16.8c-27.65,14.44-46.34-5.69-52-.5l14-46.46S1834.91,672.09,1873.34,658Z"/>
      <path class="cls-15" d="M1802.85,760.08c-6.29,15.21.76,40.89,11.77,45.44s18.86-6.63,25.14-21.83S1843,750.58,1832,746,1809.13,744.88,1802.85,760.08Z"/>
      <path class="cls-17" d="M1759.12,928s57.38-10.46,56,88.15-66.45,198.48-100.11,195.83c0,0-32.5,151.72-34.16,188.16s-32.59,110.69-1.91,125.29,144.33,58.95,186.69,61.88,131.44,22.31,146.42,6.92,34.92-59.93,10.21-108.32c0,0,19.08-22.75-1-63.61s-18.86-183.07-14.85-194.83,51.4-105.45,44.8-135.15c0,0-7.25-34-31.9-72.06C1991,976.39,1938,912.13,1938,912.13s30.47,53.49,9.2,82.65S1810.67,911,1787.71,909.6,1759.12,928,1759.12,928Z"/>
      <path class="cls-14" d="M1787.71,909.6s83.18,196.77,129.32,226.3c0,0-78.8,330.33-79.08,483.5l-234.64-99.77s36-74.46,53.21-115.08,59.36-290.79,59.36-290.79S1702.68,906.6,1787.71,909.6Z"/>
      <path class="cls-18" d="M1776.52,982.85c-15.26,5-22.68,27.82-22.68,27.82s-19.53-13.92-34.78-8.88c-9.84,3.24-21.52,13.19-15.79,31.22,5.88,18.47,32.78,13.94,43.9,11.09s20.8,9.44,20.8,9.44.47-15.63,11.11-20,35-16.67,28.7-35C1801.66,980.65,1786.36,979.61,1776.52,982.85Z"/>
      <g>
        <path class="cls-15" d="M1827.65,1157.5c37.59,21.12,96.7,58.58,154.11,92.54l62.5-75-201.59-57.57Z"/>
        <path class="cls-14" d="M2140.85,1315.25c46.57,6.24,61.69-64.09,62.19-65.21,5.86-13.17-13.82-32.57-30-38.23L2044.26,1175l-62.5,75C2043.34,1286.45,2111.79,1311.36,2140.85,1315.25Z"/>
      </g>
      <g>
        <path class="cls-15" d="M1959.2,1181.55l18.43,36.35c-40.62,21.56-107.33,62.17-170.19,97.35l-16.36-90Z"/>
        <path class="cls-14" d="M1520.24,1304.93c-5.53-13.31,12.61-40.48,28.92-45.74l241.92-34,16.36,90c-59.28,33.18-192.62,52.82-220,55.81C1540.78,1376.17,1520.71,1306.06,1520.24,1304.93Z"/>
      </g>
      <path class="cls-19" d="M2108.8,1072.67c-35.41-6.91-75,29.63-75,29.63s-23-48.72-58.39-55.6c-22.85-4.44-56.66,2.22-65.22,43.85-8.77,42.66,48.92,63.31,73.84,69.93s30.4,41.33,30.4,41.33,18.09-30.11,43.68-26.9,86.81,5.7,94.68-37.13C2160.48,1096,2131.64,1077.13,2108.8,1072.67Z"/>
      <g>
        <path class="cls-15" d="M1940.85,1186.38c6.58,7.83,13.52,13.17,29.11,11.95,12.45-1,20.92-4.62,26.29-10.63,5.55-6.2,8.38-15.09,4.07-22.21-1.1-1.81-1.77-3.65-1.25-5l0-.06c2.8-7,7-3.89,14.89-19.74s-1.43-21.69-4-22.62-4.41,7.46-5.94,11.19-11.12,10.07-14.8,14.5c-2.15,2.59-8.88,6.82-14.1,9.88a108,108,0,0,0-14,9.77c-6.41,5.29-13.29,8.38-17.41,14.36C1942.42,1179.69,1941.7,1184.36,1940.85,1186.38Z"/>
        <path class="cls-15" d="M1983.49,1163.14c-20.18,12-42.35,22.69-42.74,23.9l11.4,42.65c5.54,3.28,9.24,5.62,52-5.15l15.76-4.1,3.29-18.94a41.46,41.46,0,0,0,.57-8.9l-.16-3.92a39,39,0,0,0-8-22l-3-3.93c-1.66-2.38-29.92,2.5-29.16.4Z"/>
        <path class="cls-15" d="M2038.63,1153.24l-44.45,12.62a6.62,6.62,0,0,0-4.56,8.18h0a6.63,6.63,0,0,0,8.18,4.57l44.45-12.63a6.62,6.62,0,0,0,4.56-8.18h0A6.62,6.62,0,0,0,2038.63,1153.24Z"/>
        <path class="cls-15" d="M2081,1141.75l-13,4.08h0c-4,1.49-6.24,5.45-4.86,8.65h0c1.32,3,5.44,4.22,9.2,2.6l15.69-6.77c2.43-1,3.64-3.54,2.66-5.45h0C2089.07,1141.8,2085,1140.49,2081,1141.75Z"/>
        <path class="cls-15" d="M2092,1156.13l-12.61,5.31h0c-3.84,1.88-5.52,6.27-3.67,9.58h0c1.78,3.16,6.11,4.1,9.68,2.1l14.91-8.36a4.34,4.34,0,0,0,1.91-6h0C2100.15,1155.6,2095.85,1154.5,2092,1156.13Z"/>
        <path class="cls-15" d="M2055.93,1168.83l-39.87,8.4a6.68,6.68,0,0,0-5.16,7.91h0a6.68,6.68,0,0,0,7.91,5.16l39.88-8.4a6.67,6.67,0,0,0,5.15-7.91h0A6.68,6.68,0,0,0,2055.93,1168.83Z"/>
        <path class="cls-15" d="M2077.86,1161.91l-23.37,7.79a6.54,6.54,0,0,0-4.13,8.27h0a6.52,6.52,0,0,0,8.26,4.12l23.37-7.79a6.53,6.53,0,0,0,4.13-8.26h0A6.53,6.53,0,0,0,2077.86,1161.91Z"/>
        <path class="cls-15" d="M2086.1,1184.78l-12.36,2.34h0c-3.82.94-6.09,4.45-5,7.65h0c1.08,3.07,4.86,4.67,8.45,3.57l15-4.58c2.32-.71,3.58-2.94,2.76-4.88h0C2093.64,1185.78,2089.91,1184.05,2086.1,1184.78Z"/>
        <path class="cls-15" d="M2054.56,1190.05l-33.41,2.77c-3.92.32-6.87,3.25-6.58,6.54h0c.3,3.28,3.72,5.68,7.65,5.35l33.41-2.77c3.93-.32,6.87-3.25,6.58-6.54h0C2061.91,1192.12,2058.49,1189.72,2054.56,1190.05Z"/>
        <path class="cls-15" d="M2073.55,1187.25l-16.5,2.7c-3.88.64-6.55,3.73-6,6.9h0c.58,3.18,4.21,5.24,8.09,4.6l16.5-2.7c3.88-.64,6.55-3.73,6-6.9h0C2081.05,1188.67,2077.43,1186.61,2073.55,1187.25Z"/>
        <path class="cls-15" d="M2064.27,1208.7l-11.9,1.58h0c-3.69.7-6.16,3.92-5.4,7h0c.73,3,4.16,4.7,7.65,3.84l14.57-3.58c2.25-.56,3.65-2.61,3-4.5h0C2071.3,1210.05,2067.94,1208.21,2064.27,1208.7Z"/>
        <path class="cls-15" d="M2035.53,1210l-33.28-2.19a5.83,5.83,0,0,0-6.21,5.43h0a5.84,5.84,0,0,0,5.44,6.21l33.29,2.19a5.83,5.83,0,0,0,6.2-5.44h0A5.83,5.83,0,0,0,2035.53,1210Z"/>
        <path class="cls-15" d="M2053.57,1210l-17.66.23a5.8,5.8,0,0,0-5.71,5.87h0a5.79,5.79,0,0,0,5.87,5.7l17.65-.23a5.78,5.78,0,0,0,5.71-5.87h0A5.77,5.77,0,0,0,2053.57,1210Z"/>
        <path class="cls-15" d="M2066.35,1146.36l-44.47,11.79a6.72,6.72,0,0,0-4.91,8.11h0a6.72,6.72,0,0,0,8.44,4.32l43.43-12.32a6.73,6.73,0,0,0,4.91-8.12h0C2072.77,1146.71,2070,1145.31,2066.35,1146.36Z"/>
      </g>
      <g>
        <path class="cls-15" d="M1870.94,1131.5c-9.74,3.14-18.45,4-31-5.34-10-7.43-15.28-15-16.64-23-1.41-8.2.91-17.24,8.34-21,1.9-1,3.45-2.16,3.71-3.57,0,0,0,0,0-.06,1.33-7.4-3.83-7-2.14-24.63s12.74-17.62,15.44-17-.22,8.67-.91,12.65,4.08,14.43,4.84,20.13c.45,3.34,3.91,10.5,6.7,15.87a107.63,107.63,0,0,1,6.65,15.69c2.63,7.9,6.8,14.17,7.12,21.42C1873.16,1125,1871.28,1129.34,1870.94,1131.5Z"/>
        <path class="cls-15" d="M1847.15,1089.16c10.72,20.88,23.83,41.72,23.52,42.95l-32.31,30.09c-6.44-.17-10.81-.15-41.36-32l-11.17-11.84,7.26-17.79a41.88,41.88,0,0,1,4.24-7.85l2.22-3.23a38.94,38.94,0,0,1,18.47-14.41l4.63-1.74c2.67-1.13,24,18,24.5,15.83Z"/>
        <path class="cls-15" d="M1805.69,1051.49l31,34.3a6.63,6.63,0,0,1-.48,9.36h0a6.62,6.62,0,0,1-9.35-.48l-31-34.3a6.63,6.63,0,0,1,.48-9.36h0A6.63,6.63,0,0,1,1805.69,1051.49Z"/>
        <path class="cls-15" d="M1775.89,1019.26l8.89,10.38h0c2.6,3.39,2.38,7.93-.48,9.91h0c-2.74,1.89-6.85.69-9.17-2.68l-9.71-14.07c-1.5-2.18-1.21-4.93.64-6h0C1769,1015,1773.15,1016.05,1775.89,1019.26Z"/>
        <path class="cls-15" d="M1759,1025.62l7.87,11.19h0c2.26,3.64,1.35,8.25-2,10.07h0c-3.19,1.73-7.36.23-9.33-3.36l-8.18-15a4.34,4.34,0,0,1,1.57-6.11h0C1752.3,1020.82,1756.53,1022.17,1759,1025.62Z"/>
        <path class="cls-15" d="M1782.74,1055.51l29.32,28.29a6.68,6.68,0,0,1,.17,9.45h0a6.68,6.68,0,0,1-9.44.17l-29.32-28.29a6.68,6.68,0,0,1-.17-9.45h0A6.68,6.68,0,0,1,1782.74,1055.51Z"/>
        <path class="cls-15" d="M1767.84,1038l15.66,19a6.53,6.53,0,0,1-.89,9.19h0a6.52,6.52,0,0,1-9.19-.89l-15.66-19a6.52,6.52,0,0,1,.89-9.19h0A6.52,6.52,0,0,1,1767.84,1038Z"/>
        <path class="cls-15" d="M1748.71,1053l9.23,8.55h0c2.73,2.82,2.79,7,.14,9.12h0c-2.55,2-6.6,1.37-9.06-1.46l-10.24-11.83c-1.59-1.83-1.47-4.39.25-5.59h0C1741.79,1049.85,1745.86,1050.37,1748.71,1053Z"/>
        <path class="cls-15" d="M1772.64,1074.22l26.83,20.09c3.16,2.36,4.1,6.4,2.1,9h0c-2,2.63-6.16,2.84-9.32.48l-26.84-20.09c-3.15-2.36-4.09-6.41-2.1-9h0C1765.31,1072.07,1769.48,1071.85,1772.64,1074.22Z"/>
        <path class="cls-15" d="M1758,1061.76l12.55,11.06c3,2.6,3.57,6.63,1.38,9h0c-2.18,2.38-6.34,2.2-9.29-.4l-12.55-11c-2.95-2.6-3.57-6.64-1.38-9h0C1750.92,1059,1755.08,1059.16,1758,1061.76Z"/>
        <path class="cls-15" d="M1754.51,1084.86l9.24,7.67h0c2.75,2.55,3.14,6.59.84,8.82h0c-2.21,2.14-6,1.77-8.52-.81l-10.44-10.77c-1.62-1.67-1.71-4.15-.2-5.44h0C1747.84,1082.28,1751.66,1082.5,1754.51,1084.86Z"/>
        <path class="cls-15" d="M1778.16,1101.23l29.37,15.82a5.82,5.82,0,0,1,2.37,7.9h0a5.83,5.83,0,0,1-7.9,2.37l-29.37-15.82a5.83,5.83,0,0,1-2.37-7.9h0A5.83,5.83,0,0,1,1778.16,1101.23Z"/>
        <path class="cls-15" d="M1762.89,1091.63l14.84,9.58a5.79,5.79,0,0,1,1.72,8h0a5.79,5.79,0,0,1-8,1.72l-14.83-9.58a5.79,5.79,0,0,1-1.73-8h0A5.8,5.8,0,0,1,1762.89,1091.63Z"/>
        <path class="cls-15" d="M1785.84,1030.94l31.42,33.6a6.71,6.71,0,0,1-.14,9.48h0a6.71,6.71,0,0,1-9.45-.82l-30.25-33.5a6.71,6.71,0,0,1,.15-9.48h0C1780.22,1027.83,1783.28,1028.09,1785.84,1030.94Z"/>
      </g>
    </g>
  </g>
  <g>
    <path class="cls-6" d="M1234.31,1521.26l-5.68,9c-.59-.38-59.93-38-134.94-104.58-69.24-61.42-166.48-160.78-236.52-285.34l9.27-5.22C999.14,1371.11,1232,1519.79,1234.31,1521.26Z"/>
    <path class="cls-6" d="M817.13,1092.06c21.88,37.49,53,60.08,53,60.08s-4.38-38.19-26.26-75.68-53-60.08-53-60.08S795.24,1054.57,817.13,1092.06Z"/>
    <path class="cls-6" d="M812.63,1182.07c42,11,80,5,80,5s-30.11-23.89-72.1-34.89-80-5-80-5S770.65,1171.06,812.63,1182.07Z"/>
    <path class="cls-6" d="M935.31,1118.68c17.89-39.56,18.29-78,18.29-78s-28.59,25.69-46.48,65.25-18.3,78-18.3,78S917.42,1158.23,935.31,1118.68Z"/>
    <path class="cls-6" d="M987.44,1186c28.55-32.7,40-69.39,40-69.39s-34.79,16.34-63.34,49-40,69.39-40,69.39S958.89,1218.7,987.44,1186Z"/>
    <path class="cls-6" d="M1039.75,1251.82c25.55-35.1,33.76-72.65,33.76-72.65s-33.22,19.34-58.77,54.44S981,1306.26,981,1306.26,1014.2,1286.92,1039.75,1251.82Z"/>
    <path class="cls-6" d="M1094.18,1310.87c24.27-36,31.12-73.83,31.12-73.83s-32.5,20.54-56.77,56.53-31.12,73.83-31.12,73.83S1069.91,1346.87,1094.18,1310.87Z"/>
    <path class="cls-6" d="M1165.85,1373c28.55-32.71,40-69.39,40-69.39s-34.8,16.33-63.35,49-40,69.39-40,69.39S1137.3,1405.68,1165.85,1373Z"/>
    <path class="cls-6" d="M853.09,1264c43-5.69,75.89-25.64,75.89-25.64s-36.91-10.73-79.94-5-75.89,25.64-75.89,25.64S810.06,1269.65,853.09,1264Z"/>
    <path class="cls-6" d="M979.91,1419.8c37.17-22.43,59.3-53.86,59.3-53.86s-38.12,4.94-75.28,27.37-59.3,53.87-59.3,53.87S942.75,1442.24,979.91,1419.8Z"/>
    <path class="cls-6" d="M1058.91,1491.29c30.38-31,43.95-67,43.95-67s-35.67,14.32-66,45.33-43.95,67-43.95,67S1028.54,1522.31,1058.91,1491.29Z"/>
    <path class="cls-6" d="M913.74,1343.94c41.66-12.18,71.1-36.91,71.1-36.91s-38.12-5-79.78,7.21-71.1,36.92-71.1,36.92S872.08,1356.13,913.74,1343.94Z"/>
  </g>
  <g>
    <path class="cls-7" d="M856.74,1452.26a73.45,73.45,0,0,1,70.6,53.23H786.14A73.45,73.45,0,0,1,856.74,1452.26Z"/>
    <path class="cls-7" d="M512.63,1427.08a108.19,108.19,0,0,1,104,78.41h-208A108.19,108.19,0,0,1,512.63,1427.08Z"/>
    <path class="cls-7" d="M835.38,1505.49c-16-55.18-79.14-96.4-154.68-96.4S542,1450.31,526,1505.49Z"/>
  </g>
  <g>
    <path class="cls-7" d="M3129.92,1452.26a73.45,73.45,0,0,1,70.6,53.23h-141.2A73.45,73.45,0,0,1,3129.92,1452.26Z"/>
    <path class="cls-7" d="M2785.81,1427.08a108.17,108.17,0,0,1,104,78.41h-208A108.19,108.19,0,0,1,2785.81,1427.08Z"/>
    <path class="cls-7" d="M3108.56,1505.49c-15.95-55.18-79.14-96.4-154.68-96.4s-138.73,41.22-154.68,96.4Z"/>
  </g>
  <g>
    <path class="cls-20" d="M3064.4,434.62a95.46,95.46,0,0,1,91.77,69.19H2972.63A95.46,95.46,0,0,1,3064.4,434.62Z"/>
    <path class="cls-20" d="M2617.09,401.89a140.63,140.63,0,0,1,135.19,101.92H2481.91A140.63,140.63,0,0,1,2617.09,401.89Z"/>
    <path class="cls-20" d="M3036.64,503.81c-20.73-71.73-102.88-125.31-201.07-125.31s-180.34,53.58-201.07,125.31Z"/>
  </g>
  <g>
    <path class="cls-18" d="M705,576.31a64.59,64.59,0,0,1,62.09,46.8H643A64.58,64.58,0,0,1,705,576.31Z"/>
    <path class="cls-18" d="M777.69,590.82a44.57,44.57,0,0,1,42.84,32.29H734.85A44.56,44.56,0,0,1,777.69,590.82Z"/>
    <path class="cls-18" d="M685.34,623.11c-8.34-28.85-41.38-50.4-80.88-50.4s-72.54,21.55-80.88,50.4Z"/>
  </g>
  <g>
    <path class="cls-15" d="M2324.25,267.5a61.68,61.68,0,0,1,59.29,44.71H2265A61.7,61.7,0,0,1,2324.25,267.5Z"/>
    <path class="cls-15" d="M2393.64,281.36a42.57,42.57,0,0,1,40.92,30.85h-81.84A42.57,42.57,0,0,1,2393.64,281.36Z"/>
    <path class="cls-15" d="M2305.44,312.21c-8-27.56-39.52-48.15-77.25-48.15s-69.29,20.59-77.25,48.15Z"/>
  </g>
  <g>
    <path class="cls-21" d="M1082.68,329a46.71,46.71,0,0,1,44.91,33.86h-89.83A46.73,46.73,0,0,1,1082.68,329Z"/>
    <path class="cls-21" d="M1135.24,339.48a32.25,32.25,0,0,1,31,23.37h-62A32.25,32.25,0,0,1,1135.24,339.48Z"/>
    <path class="cls-21" d="M1068.43,362.85c-6-20.88-29.94-36.47-58.51-36.47S957.43,342,951.4,362.85Z"/>
  </g>
  <g>
    <path class="cls-22" d="M1689.9,1577.74s-299.45-146.81-601.54-533.35"/>
    <path class="cls-23" d="M1462.72,1425.23S1398.17,1351.6,1484,1114C1484,1114,1531.9,1248.39,1462.72,1425.23Z"/>
    <path class="cls-23" d="M1400.67,1373.78s-138.39-242.54-89.4-422.4C1311.27,951.38,1428.23,1195.49,1400.67,1373.78Z"/>
    <path class="cls-23" d="M1314.54,1295.36S1156,1085.16,1141.42,939.41C1141.42,939.41,1279.62,1059.39,1314.54,1295.36Z"/>
    <path class="cls-23" d="M1206.54,1184.45s-72-185.44-176.73-270.3C1029.81,914.15,1031.51,1071.57,1206.54,1184.45Z"/>
    <path class="cls-23" d="M1307.39,1288.53s-184.63-149.66-297.56-179C1009.83,1109.52,1103.92,1258.12,1307.39,1288.53Z"/>
    <path class="cls-23" d="M1390,1367.89s-201.43-112.69-359.69-100.2C1030.27,1267.69,1242.77,1390.13,1390,1367.89Z"/>
    <path class="cls-23" d="M1437,1406.58s-114.21-51.74-223.81,55C1213.15,1461.61,1364.51,1460.28,1437,1406.58Z"/>
  </g>
  <path class="cls-18" d="M2316,805.06c-54.37,7.62-93.19,79.82-93.19,79.82s-57.22-58.69-111.58-51c-35.07,4.94-80.42,31.3-72.09,95.43,8.54,65.72,101.78,66.82,140.92,64s64.23,44.38,64.23,44.38,11.1-52.29,49.51-60.37,127.73-34.84,117.81-100.37C2401.9,813,2351.05,800.14,2316,805.06Z"/>
  <path class="cls-18" d="M1743.94,798.94c-26-5.21-55.2,21.48-55.2,21.48s-16.7-35.88-42.69-41.07c-16.77-3.35-41.64,1.42-48.09,32-6.6,31.3,35.7,46.69,54,51.66s22.18,30.48,22.18,30.48,13.4-22.06,32.19-19.6,63.76,4.52,69.71-26.91C1781.83,816.26,1760.71,802.3,1743.94,798.94Z"/>
  <path class="cls-18" d="M1787.66,533c-11.85-5.06-28.4,4.74-28.4,4.74S1754.88,519,1743,514c-7.64-3.26-20-3.46-26,10.43-6.26,14.24,12.34,25.77,20.55,30s7.52,16.7,7.52,16.7,8.57-9.16,17.26-6.12,29.88,8.49,35.84-5.88C1804,545,1795.3,536.27,1787.66,533Z"/>
  <path class="cls-24" d="M2278.06,708.77c-25.64-3.5-52.49,24.28-52.49,24.28s-18.45-33.95-44.09-37.44c-16.54-2.24-40.48,3.91-44.91,34.07-4.55,30.91,37.61,43.34,55.73,47.07s23.46,28.35,23.46,28.35,11.72-22.3,30.18-21.05,62.41.55,66.29-30.45C2316,723.35,2294.6,711,2278.06,708.77Z"/>
  <path class="cls-25" d="M2302.62,919.83c-11.59-2.93-25.34,8.43-25.34,8.43s-6.71-16.53-18.3-19.45c-7.47-1.88-18.77-.3-22.36,13.31-3.68,14,15,21.83,23.14,24.47s9.3,14.22,9.3,14.22,6.53-9.62,14.93-8.1,28.61,3.47,32-10.55C2319.28,928.48,2310.09,921.72,2302.62,919.83Z"/>
  <path class="cls-25" d="M1829.05,522.48c-8.94,1.33-15.22,13.27-15.22,13.27s-9.5-9.57-18.43-8.23c-5.76.86-13.18,5.26-11.71,15.8,1.49,10.8,16.83,10.84,23.27,10.32s10.63,7.21,10.63,7.21,1.75-8.62,8.05-10,21-5.91,19.24-16.68C1843.19,523.66,1834.81,521.62,1829.05,522.48Z"/>
  <path class="cls-25" d="M1637.73,688.93c-6.67-.92-13.67,6.31-13.67,6.31s-4.8-8.84-11.47-9.76c-4.31-.59-10.54,1-11.7,8.86-1.19,8,9.78,11.29,14.5,12.27s6.09,7.38,6.09,7.38,3.06-5.8,7.87-5.47,16.24.16,17.26-7.91C1647.61,692.74,1642,689.52,1637.73,688.93Z"/>
  <path class="cls-26" d="M1668.18,927c-8-4.16-20.1,1.81-20.1,1.81S1646,915.45,1638,911.3c-5.18-2.69-13.77-3.48-18.77,5.92-5.12,9.62,7.28,18.66,12.8,22s4.38,12.07,4.38,12.07,6.47-5.95,12.39-3.37,20.44,7.51,25.36-2.22C1679,936.21,1673.35,929.64,1668.18,927Z"/>
  <path class="cls-27" d="M1790.64,343.92c-28.2,5-47.06,43.4-47.06,43.4s-31-29.5-59.15-24.46c-18.2,3.25-41.33,17.86-35.76,51.14,5.71,34.1,54.35,32.89,74.7,30.66s34.34,21.91,34.34,21.91,4.79-27.48,24.66-32.43,65.93-20.61,59.5-54.59C1835.6,346.4,1808.84,340.68,1790.64,343.92Z"/>
  <g>
    <path class="cls-28" d="M1756.71,1807.79c167.14-86.56,389.63,10.73,550.79-86.52,88.46-53.38,140.82-157,234.91-199.61a265.85,265.85,0,0,1,43.94-15.12H243.24A464.1,464.1,0,0,0,287,1884H1662.35C1689.15,1853.11,1720.25,1826.67,1756.71,1807.79Z"/>
    <path class="cls-29" d="M2586.35,1506.54a265.85,265.85,0,0,0-43.94,15.12c-94.09,42.66-146.45,146.23-234.91,199.61-161.16,97.25-383.65,0-550.79,86.52-36.46,18.88-67.56,45.32-94.36,76.21H3159.89a756.62,756.62,0,0,0,202.6-377.46Z"/>
  </g>
  <g>
    <path class="cls-30" d="M994.15,1581.37a105.65,105.65,0,0,1,101.56,76.57H892.58A105.67,105.67,0,0,1,994.15,1581.37Z"/>
    <path class="cls-31" d="M1113,1605.1a72.92,72.92,0,0,1,70.09,52.84H1042.92A72.91,72.91,0,0,1,1113,1605.1Z"/>
    <path class="cls-32" d="M961.93,1657.94c-13.64-47.2-67.7-82.46-132.32-82.46s-118.68,35.26-132.32,82.46Z"/>
  </g>
  <g>
    <path class="cls-29" d="M1726.14,1487.55a66.39,66.39,0,0,1,63.82,48.11H1662.32A66.39,66.39,0,0,1,1726.14,1487.55Z"/>
    <path class="cls-29" d="M1415.07,1464.79a97.8,97.8,0,0,1,94,70.87h-188A97.8,97.8,0,0,1,1415.07,1464.79Z"/>
    <path class="cls-29" d="M1706.83,1535.66c-14.42-49.88-71.54-87.14-139.83-87.14s-125.41,37.26-139.83,87.14Z"/>
  </g>
  <g>
    <path class="cls-33" d="M1437.39,1529.3a33.18,33.18,0,0,1,31.91,24h-63.82A33.19,33.19,0,0,1,1437.39,1529.3Z"/>
    <path class="cls-33" d="M1281.86,1517.92a48.89,48.89,0,0,1,47,35.43h-94A48.89,48.89,0,0,1,1281.86,1517.92Z"/>
    <path class="cls-33" d="M1427.74,1553.35c-7.21-24.94-35.77-43.57-69.92-43.57s-62.7,18.63-69.91,43.57Z"/>
  </g>
  <g>
    <path class="cls-5" d="M1469.25,461.43s38.52-21.61,70.26,30.14,39.83,98.79,39.83,98.79S1481.87,533.22,1469.25,461.43Z"/>
    <path class="cls-5" d="M997.88,766.09s-24.55,28.43-64.9-3.76-60.44-67.47-60.44-67.47S967,712.35,997.88,766.09Z"/>
    <path class="cls-5" d="M1428.36,439.61s-5.29-31.08,37.11-40,76-3.09,76-3.09S1479.66,448.34,1428.36,439.61Z"/>
    <path class="cls-5" d="M1210.73,479.51s-12-22.4,18.1-40.11,57.27-21.85,57.27-21.85S1252.17,473,1210.73,479.51Z"/>
    <path class="cls-5" d="M1396.91,437s21-5.85,30.14,22.63,7.56,51.95,7.56,51.95S1394.59,472.9,1396.91,437Z"/>
    <path class="cls-5" d="M1120.2,837s-15.93-21.66,13-44.71,56.72-31.44,56.72-31.44S1162.64,824,1120.2,837Z"/>
    <path class="cls-5" d="M1037,787s-26.9-.22-28-37.16,8.78-64.25,8.78-64.25S1052,745.21,1037,787Z"/>
  </g>
  <g>
    <path class="cls-18" d="M2391.87,1550.18a120.76,120.76,0,0,1,116.07,87.5H2275.8A120.75,120.75,0,0,1,2391.87,1550.18Z"/>
    <path class="cls-18" d="M2527.7,1577.3a83.32,83.32,0,0,1,80.1,60.38H2447.6A83.32,83.32,0,0,1,2527.7,1577.3Z"/>
    <path class="cls-18" d="M2355.05,1637.68c-15.59-53.94-77.37-94.24-151.21-94.24s-135.63,40.3-151.22,94.24Z"/>
  </g>
  <g>
    <path class="cls-34" d="M2688.29,1620.42a73.69,73.69,0,0,1,70.83,53.39H2617.47A73.68,73.68,0,0,1,2688.29,1620.42Z"/>
    <path class="cls-35" d="M2771.17,1637a50.84,50.84,0,0,1,48.88,36.84H2722.3A50.83,50.83,0,0,1,2771.17,1637Z"/>
    <path class="cls-36" d="M2665.83,1673.81c-9.51-32.91-47.21-57.5-92.27-57.5s-82.76,24.59-92.27,57.5Z"/>
  </g>
  <g>
    <path class="cls-37" d="M1707.74,1675.39a48.82,48.82,0,0,1,46.93,35.38h-93.86A48.82,48.82,0,0,1,1707.74,1675.39Z"/>
    <path class="cls-37" d="M1762.67,1686.36a33.69,33.69,0,0,1,32.38,24.41h-64.77A33.69,33.69,0,0,1,1762.67,1686.36Z"/>
    <path class="cls-37" d="M1692.85,1710.77c-6.3-21.81-31.28-38.1-61.14-38.1s-54.85,16.29-61.15,38.1Z"/>
  </g>
  <path class="cls-37" d="M1723.52,1564a7.28,7.28,0,0,0-8.78,9.88,209.33,209.33,0,0,0-16.58,19.21,113.07,113.07,0,0,0,.53-27,7.28,7.28,0,1,0-5.21.38,8,8,0,0,0,1.34.27c1.71,15-1.28,30.84-1.77,33.28a315.85,315.85,0,0,0-40.45,80.06l3.75,1.16a294.6,294.6,0,0,1,15.47-37.55c3.11-6.35,6.91-13.6,11.41-21.25a77.5,77.5,0,0,1,27.1-1.68,7.29,7.29,0,1,0,.84-3.86,85,85,0,0,0-25.13.86,233.72,233.72,0,0,1,31.2-40.81,7.17,7.17,0,0,0,2.06,1,7.28,7.28,0,0,0,4.22-13.94Z"/>
  <path class="cls-37" d="M1624.84,1542.44a7.28,7.28,0,0,1,3.26,12.81,209.26,209.26,0,0,1,5.89,24.68,113.37,113.37,0,0,1,12-24.23,7.28,7.28,0,1,1,4.45,2.73,7,7,0,0,1-1.31-.37c-8.41,12.53-13,28-13.73,30.36a315.82,315.82,0,0,1-.88,89.7l-3.87-.69a294.76,294.76,0,0,0,3.53-40.46c.16-7.07.11-15.26-.37-24.12a77.38,77.38,0,0,0-23.29-13.95,7.29,7.29,0,1,1,1-3.81,84.89,84.89,0,0,1,21.92,12.32,233.48,233.48,0,0,0-9-50.59,7.37,7.37,0,0,1-2.29-.06,7.28,7.28,0,0,1,2.66-14.32Z"/>
  <circle class="cls-15" cx="1948.17" cy="441.15" r="29.93"/>
  <circle class="cls-15" cx="2172.9" cy="939.41" r="29.93"/>
  <circle class="cls-15" cx="1466.89" cy="932.8" r="29.93"/>
  <circle class="cls-15" cx="1857.93" cy="593.36" r="16.7"/>
  <circle class="cls-15" cx="1543.3" cy="1049.3" r="16.7"/>
  <circle class="cls-15" cx="1783.5" cy="1406.56" r="16.7"/>
  <circle class="cls-15" cx="2108.57" cy="875.98" r="16.7"/>
</svg>
