<svg xmlns="http://www.w3.org/2000/svg" width="455" height="376.429" viewBox="0 0 455 376.429">
  <g id="Grupo_10277" data-name="Grupo 10277" transform="translate(1482.062 246.569)">
    <path id="Trazado_9153" data-name="Trazado 9153" d="M-1244.857-133.662s.61-13.392,0-21.005-6.086-10.706-8.447-14.259-1.546-6.163,0-5.885,8.245,5.052,10.745,4.762,8.632,3.435,10,8.66,8.829,25.35,9.491,30.052-7.653,14.553-7.653,14.553Z" transform="translate(-53.805 -16.983)" fill="#3b3e54"/>
    <g id="Grupo_10218" data-name="Grupo 10218" transform="translate(-1455.242 28.336)">
      <path id="Trazado_9154" data-name="Trazado 9154" d="M-1382.858,140.709a66.645,66.645,0,0,0-64.065,48.3h128.129A66.644,66.644,0,0,0-1382.858,140.709Z" transform="translate(1446.923 -120.018)" fill="#90c9f8"/>
      <path id="Trazado_9155" data-name="Trazado 9155" d="M-1153.871,140.709a66.644,66.644,0,0,0-64.065,48.3h128.129A66.644,66.644,0,0,0-1153.871,140.709Z" transform="translate(1392.714 -120.018)" fill="#90c9f8"/>
      <path id="Trazado_9156" data-name="Trazado 9156" d="M-1271.479,113.6a95.2,95.2,0,0,0-91.51,68.988h183.019A95.2,95.2,0,0,0-1271.479,113.6Z" transform="translate(1427.053 -113.601)" fill="#90c9f8"/>
    </g>
    <path id="Rectángulo_2775" data-name="Rectángulo 2775" d="M14.27,0H440.73A14.27,14.27,0,0,1,455,14.27v0a14.27,14.27,0,0,1-14.27,14.27H14.27A14.27,14.27,0,0,1,0,14.27v0A14.27,14.27,0,0,1,14.27,0Z" transform="translate(-1482.062 96.831)" fill="#166eb5"/>
    <g id="Grupo_10220" data-name="Grupo 10220" transform="translate(-1356.868 -219.429)">
      <line id="Línea_73" data-name="Línea 73" y1="72.342" transform="translate(2.103 1.452)" fill="none" stroke="#3c3e54" stroke-miterlimit="10" stroke-width="2"/>
      <g id="Grupo_10219" data-name="Grupo 10219" transform="translate(0 1.452)">
        <path id="Trazado_9157" data-name="Trazado 9157" d="M-1318.037-195.369a25.535,25.535,0,0,0,10.068-1.862,15.057,15.057,0,0,1,6.341-1.191,15.054,15.054,0,0,1,6.34,1.191,25.537,25.537,0,0,0,10.068,1.862,25.536,25.536,0,0,0,10.068-1.862,15.057,15.057,0,0,1,6.341-1.191,15.065,15.065,0,0,1,6.343,1.191,25.543,25.543,0,0,0,10.069,1.862,25.538,25.538,0,0,0,10.069-1.862,15.067,15.067,0,0,1,6.343-1.191l-2.672-5.188,2.672-5.5a25.541,25.541,0,0,0-10.069,1.862,15.063,15.063,0,0,1-6.343,1.191,15.064,15.064,0,0,1-6.343-1.191,25.546,25.546,0,0,0-10.069-1.862,25.541,25.541,0,0,0-10.068,1.862,15.058,15.058,0,0,1-6.341,1.191,15.062,15.062,0,0,1-6.341-1.191,25.534,25.534,0,0,0-10.067-1.862,25.542,25.542,0,0,0-10.068,1.862,15.057,15.057,0,0,1-6.341,1.191Z" transform="translate(1318.037 209.108)" fill="#ff8c87"/>
      </g>
      <circle id="Elipse_658" data-name="Elipse 658" cx="1.908" cy="1.908" r="1.908" transform="translate(0.195 71.886)" fill="#3c3e54"/>
      <circle id="Elipse_659" data-name="Elipse 659" cx="1.383" cy="1.383" r="1.383" transform="translate(0.719 0)" fill="#3c3e54"/>
    </g>
    <path id="Trazado_9158" data-name="Trazado 9158" d="M-1134.278,143.425l-50.147-10.314v50.147l50.147,10.314Z" transform="translate(-70.461 -89.883)" fill="#bd7673"/>
    <path id="Trazado_9159" data-name="Trazado 9159" d="M-1249.494,143.425l50.147-10.314v50.147l-50.147,10.314Z" transform="translate(-55.057 -89.883)" fill="#e08c89"/>
    <g id="Grupo_10221" data-name="Grupo 10221" transform="translate(-1394.628 -163.553)">
      <path id="Trazado_9160" data-name="Trazado 9160" d="M-1235.453-115.143a77.357,77.357,0,0,0-109.4,0,77.357,77.357,0,0,0,0,109.4l117.409,117.409v-218.8Z" transform="translate(1367.509 137.804)" fill="#fe5e5a"/>
      <path id="Trazado_9161" data-name="Trazado 9161" d="M-1066.594-5.749l-37.98,37.98L-1184,111.664v-218.8l8.007-8.014a77.356,77.356,0,0,1,109.4,0A77.356,77.356,0,0,1-1066.594-5.749Z" transform="translate(1324.066 137.805)" fill="#eb4844"/>
    </g>
    <path id="Trazado_9162" data-name="Trazado 9162" d="M-1210.769,83.623h-8.577c-.061,3.04-3.11,5.491-6.867,5.491s-6.805-2.451-6.866-5.491h-23.983V98.6h13.7v44.2h32.59V98.6h13.7V83.623Z" transform="translate(-53.265 -78.168)" fill="#3b3e54"/>
    <path id="Trazado_9163" data-name="Trazado 9163" d="M-1176.434,125.2h-8.576c-.061,3.04-3.109,5.49-6.866,5.49s-6.8-2.45-6.866-5.49h-23.984V140.18h13.7v44.2h32.59v-44.2h13.7V125.2Z" transform="translate(-61.394 -88.01)" fill="#5e6175"/>
    <path id="Trazado_9164" data-name="Trazado 9164" d="M-1249.494,196.732l50.147,10.314V156.9l-50.147-10.314Z" transform="translate(-55.057 -93.073)" fill="#ff8b87"/>
    <path id="Trazado_9165" data-name="Trazado 9165" d="M-1284.812,162.8l50.147,10.314,26.957-16.216-50.147-10.314Z" transform="translate(-46.696 -93.073)" fill="#ffb0ad"/>
    <g id="Grupo_10229" data-name="Grupo 10229" transform="translate(-1384.734 -43.153)">
      <g id="Grupo_10222" data-name="Grupo 10222" transform="translate(2.296 139.21)">
        <path id="Trazado_9166" data-name="Trazado 9166" d="M-1350.476,215.017a1.5,1.5,0,0,1-.285-.128,1.552,1.552,0,0,1-.569-2.12l5.578-9.668a1.553,1.553,0,0,1,2.119-.569,1.553,1.553,0,0,1,.569,2.12l-5.578,9.668A1.552,1.552,0,0,1-1350.476,215.017Z" transform="translate(1351.538 -202.325)" fill="#fff"/>
      </g>
      <path id="Trazado_9167" data-name="Trazado 9167" d="M-1351.648,214.268s-3.443,2.235-2.823,2.976,10.367,10.564,10.867,10.154c1.709-1.4-5.1-10.646-6.06-11.248S-1351.159,213.934-1351.648,214.268Z" transform="translate(1354.546 -65.932)" fill="#f6b291"/>
      <path id="Trazado_9168" data-name="Trazado 9168" d="M-1253.985,83.155s7.952.9,9.023,2.61-6.593,1.7-10.435-1.236Z" transform="translate(1331.074 -34.904)" fill="#fff"/>
      <g id="Grupo_10223" data-name="Grupo 10223" transform="translate(41.489 20.461)">
        <path id="Trazado_9169" data-name="Trazado 9169" d="M-1264.123,73.7c-.117,1.295-.229,2.582-.433,3.834-20.337-3.029-28.878-6.371-35.286-26.523-.98-3.082.189-3.615,2.661-3.846.031-.564.024-.566,0,0,2.472-.231,2.939.657,3.768,3.361C-1287.99,68.21-1281.219,69.318-1264.123,73.7Z" transform="translate(1300.188 -46.746)" fill="#e89f7b"/>
      </g>
      <g id="Grupo_10224" data-name="Grupo 10224" transform="translate(55.542 144.514)">
        <path id="Trazado_9170" data-name="Trazado 9170" d="M-1276.328,222.9a1.607,1.607,0,0,1-.289.118,1.553,1.553,0,0,1-1.929-1.048l-3.168-10.7a1.554,1.554,0,0,1,1.048-1.929,1.552,1.552,0,0,1,1.928,1.048l3.168,10.7A1.552,1.552,0,0,1-1276.328,222.9Z" transform="translate(1281.778 -209.275)" fill="#fff"/>
      </g>
      <g id="Grupo_10225" data-name="Grupo 10225" transform="translate(32.683 60.209)">
        <path id="Trazado_9171" data-name="Trazado 9171" d="M-1283.042,189.148a42.066,42.066,0,0,1-4.431,2.554c-9.383-27.622-13.55-63.552-24.252-88.165,4.116-1.6,8.25-3.158,12.384-4.715C-1289.434,127.947-1297.029,155.505-1283.042,189.148Z" transform="translate(1311.726 -98.822)" fill="#292b3b"/>
      </g>
      <g id="Grupo_10226" data-name="Grupo 10226" transform="translate(3.585 58.632)">
        <path id="Trazado_9172" data-name="Trazado 9172" d="M-1345.386,185.819c-1.518-.743-3.007-1.527-4.463-2.385,17.305-29.5,28.167-49.756,26.206-85.083,4.421-.589,8.852-1.091,13.282-1.594C-1310.49,130.6-1327.612,158.413-1345.386,185.819Z" transform="translate(1349.849 -96.756)" fill="#3b3e54"/>
      </g>
      <path id="Trazado_9173" data-name="Trazado 9173" d="M-1294.393,19.949a4.05,4.05,0,0,0-3.913,2.379,2.98,2.98,0,0,0,2.009,3.591c1.423.516,4.348-.96,4.892-2.46S-1292.475,20.107-1294.393,19.949Z" transform="translate(1341.265 -19.938)" fill="#1a1c2e"/>
      <path id="Trazado_9174" data-name="Trazado 9174" d="M-1304.255,32.73c-2.743-2.21-7.6-2.7-10.583-.532s-2.852,6.651-.788,9.492,8.342,4.58,13.032,1.668C-1299.465,41.415-1300.783,35.529-1304.255,32.73Z" transform="translate(1345.689 -22.51)" fill="#1a1c2e"/>
      <path id="Trazado_9175" data-name="Trazado 9175" d="M-1300.325,29.611c-2.024-1.671-5.553-2.11-7.677-.569s-1.955,4.844-.413,6.969,7.007,2.967,9.13,1.424S-1297.762,31.728-1300.325,29.611Z" transform="translate(1343.902 -21.869)" fill="#1a1c2e"/>
      <path id="Trazado_9176" data-name="Trazado 9176" d="M-1302.039,30.907c1.989,4.253,6.564,6.315,9.163,5.1s2.238-5.249.249-9.5-5.109-5.432-7.708-4.216S-1304.028,26.654-1302.039,30.907Z" transform="translate(1342.358 -20.388)" fill="#fff"/>
      <path id="Trazado_9177" data-name="Trazado 9177" d="M-1303.4,36.145c.463.99,2.038,1.8,2.755,1.462s.521-1.222.058-2.212-1.477-1.644-2.194-1.309A1.408,1.408,0,0,0-1303.4,36.145Z" transform="translate(1342.486 -23.266)" fill="#fff"/>
      <path id="Trazado_9178" data-name="Trazado 9178" d="M-1304.2,28.258s-.376-3.145,1.3-5.126,5.858-3.732,8.509-.377c0,0,1.666,2.555-1.588,4.3s-3.335-.288-4.359,2.039-3.009,1.647-3.173,2.156Z" transform="translate(1342.636 -20.158)" fill="#1a1c2e"/>
      <g id="Grupo_10227" data-name="Grupo 10227" transform="translate(28.976 18.886)">
        <path id="Trazado_9179" data-name="Trazado 9179" d="M-1298.116,94.963c-3.717.115-6.6-1.2-9.757-3.1-2.425-1.459-5.543-2.092-8.1-3.119-1.867-11.514.723-30.217,5.219-37.59,3.95-6.478,3.958-5.412,5.388-6.009a5.44,5.44,0,0,1,5.874.918c.03.027.06.056.089.085,1.825,1.761,1.887,5.575,2.17,9.542s1.8,3.244-1.705,10.148C-1300.444,68.815-1297.993,89.048-1298.116,94.963Z" transform="translate(1316.582 -44.682)" fill="#f6b291"/>
      </g>
      <path id="Trazado_9180" data-name="Trazado 9180" d="M-1300.112,34.536l4.912.431a78.481,78.481,0,0,1-1.418,9.381c-.314.7-1.579.807-2.826.246-1.121-.5-1.839-1.378-1.746-2.056l-.005,0A65.129,65.129,0,0,0-1300.112,34.536Z" transform="translate(1341.917 -23.394)" fill="#fff"/>
      <path id="Trazado_9181" data-name="Trazado 9181" d="M-1278.522,224.75s-.96,3.99,0,4.1,14.791.53,14.873-.111c.277-2.191-11.03-4.212-12.138-3.99S-1278.4,224.171-1278.522,224.75Z" transform="translate(1336.649 -68.374)" fill="#f6b291"/>
      <path id="Trazado_9182" data-name="Trazado 9182" d="M-1263.338,92.484s8.219-1.746,9.854-.4-6,3.89-10.8,2.242Z" transform="translate(1333.178 -36.897)" fill="#fff"/>
      <g id="Grupo_10228" data-name="Grupo 10228" transform="translate(34.624 24.57)">
        <path id="Trazado_9183" data-name="Trazado 9183" d="M-1272.022,82.457c.114,1.365.266,2.507.405,3.986-26.5-.085-30.884-6.579-37.46-30.9-1.005-3.719,5.382-5.612,6.441.77C-1298.916,78.721-1295.005,79.61-1272.022,82.457Z" transform="translate(1309.183 -52.129)" fill="#e89f7b"/>
      </g>
    </g>
    <g id="Grupo_10230" data-name="Grupo 10230" transform="translate(-1286.516 21.353)">
      <path id="Trazado_9184" data-name="Trazado 9184" d="M-1220.033,105.453a3.416,3.416,0,0,0-4.832,0,3.416,3.416,0,0,0,0,4.832l5.186,5.186v-9.664Z" transform="translate(1225.866 -104.452)" fill="#d0f1f2"/>
      <path id="Trazado_9185" data-name="Trazado 9185" d="M-1217.406,105.453a3.417,3.417,0,0,1,4.832,0,3.417,3.417,0,0,1,0,4.832l-5.186,5.186v-9.664Z" transform="translate(1223.947 -104.452)" fill="#91c8c9"/>
    </g>
    <g id="Grupo_10231" data-name="Grupo 10231" transform="translate(-1159.186 -218.343)">
      <path id="Trazado_9186" data-name="Trazado 9186" d="M-1053.21-208.587a3.416,3.416,0,0,0-4.832,0,3.416,3.416,0,0,0,0,4.832l5.186,5.186v-9.664Z" transform="translate(1059.043 209.588)" fill="#3b3e54"/>
      <path id="Trazado_9187" data-name="Trazado 9187" d="M-1050.583-208.587a3.416,3.416,0,0,1,4.832,0,3.416,3.416,0,0,1,0,4.832l-5.186,5.186v-9.664Z" transform="translate(1057.124 209.588)" fill="#292b3b"/>
    </g>
    <g id="Grupo_10232" data-name="Grupo 10232" transform="translate(-1430.764 9.3)">
      <path id="Trazado_9188" data-name="Trazado 9188" d="M-1409.02,89.662a3.417,3.417,0,0,0-4.832,0,3.417,3.417,0,0,0,0,4.832l5.186,5.186V90.016Z" transform="translate(1414.853 -88.661)" fill="#3b3e54"/>
      <path id="Trazado_9189" data-name="Trazado 9189" d="M-1406.394,89.662a3.417,3.417,0,0,1,4.832,0,3.417,3.417,0,0,1,0,4.832l-5.186,5.186V90.016Z" transform="translate(1412.934 -88.661)" fill="#292b3b"/>
    </g>
    <line id="Línea_74" data-name="Línea 74" y1="81.23" transform="translate(-1216.334 -225.836)" fill="none" stroke="#3b3e54" stroke-linecap="round" stroke-linejoin="round" stroke-width="5"/>
    <line id="Línea_75" data-name="Línea 75" y1="13.452" x2="13.452" transform="translate(-1216.334 -207.197)" fill="none" stroke="#3b3e54" stroke-linecap="round" stroke-linejoin="round" stroke-width="5"/>
    <line id="Línea_76" data-name="Línea 76" x1="13.944" y1="13.944" transform="translate(-1230.278 -193.433)" fill="none" stroke="#3b3e54" stroke-linecap="round" stroke-linejoin="round" stroke-width="5"/>
    <g id="Grupo_10233" data-name="Grupo 10233" transform="translate(-1224.984 -246.569)">
      <path id="Trazado_9190" data-name="Trazado 9190" d="M-1133.916-246.569V-205.1s8.651-9.283,8.651-20.733S-1133.916-246.569-1133.916-246.569Z" transform="translate(1142.566 246.569)" fill="#166eb5"/>
      <path id="Trazado_9191" data-name="Trazado 9191" d="M-1145.249-225.836c0,11.451,8.65,20.733,8.65,20.733v-41.466S-1145.249-237.287-1145.249-225.836Z" transform="translate(1145.249 246.569)" fill="#90c9f8"/>
    </g>
    <g id="Grupo_10234" data-name="Grupo 10234" transform="translate(-1207.683 -240.022)">
      <path id="Trazado_9192" data-name="Trazado 9192" d="M-1084.841-237.992l-37.741,37.74s16.322-.576,26.743-11S-1084.841-237.992-1084.841-237.992Z" transform="translate(1122.582 237.992)" fill="#166eb5"/>
      <path id="Trazado_9193" data-name="Trazado 9193" d="M-1111.585-226.995c-10.422,10.422-11,26.743-11,26.743l37.741-37.74S-1101.163-237.416-1111.585-226.995Z" transform="translate(1122.582 237.992)" fill="#90c9f8"/>
    </g>
    <g id="Grupo_10235" data-name="Grupo 10235" transform="translate(-1270.859 -234.014)">
      <path id="Trazado_9194" data-name="Trazado 9194" d="M-1161.834-186.6l-43.518-43.518s.663,18.82,12.68,30.837S-1161.834-186.6-1161.834-186.6Z" transform="translate(1205.352 230.12)" fill="#90c9f8"/>
      <path id="Trazado_9195" data-name="Trazado 9195" d="M-1174.514-217.44c-12.018-12.017-30.838-12.68-30.838-12.68l43.518,43.518S-1162.5-205.423-1174.514-217.44Z" transform="translate(1205.352 230.12)" fill="#166eb5"/>
    </g>
    <line id="Línea_77" data-name="Línea 77" y1="6.67" x2="6.67" transform="translate(-1216.334 -174.443)" fill="none" stroke="#3b3e54" stroke-linecap="round" stroke-linejoin="round" stroke-width="5"/>
    <g id="Grupo_10236" data-name="Grupo 10236" transform="translate(-1234.557 -148.795)">
      <path id="Trazado_9196" data-name="Trazado 9196" d="M-1114.183-112.816a13.9,13.9,0,0,0-13.359,10.071h26.72A13.9,13.9,0,0,0-1114.183-112.816Z" transform="translate(1150.63 117.131)" fill="#ff7975"/>
      <path id="Trazado_9197" data-name="Trazado 9197" d="M-1138.709-118.469a19.851,19.851,0,0,0-19.082,14.386h38.166A19.852,19.852,0,0,0-1138.709-118.469Z" transform="translate(1157.791 118.469)" fill="#ff7975"/>
    </g>
    <path id="Trazado_9198" data-name="Trazado 9198" d="M-1102.065-153.182l-6.085-.912a12,12,0,0,0-13.445,9.076l-11.194,46.876" transform="translate(-82.685 -21.86)" fill="none" stroke="#fff" stroke-linecap="round" stroke-linejoin="round" stroke-width="1"/>
    <path id="Trazado_9199" data-name="Trazado 9199" d="M-1097.191-146.317l-8.562-1.283a9.266,9.266,0,0,0-10.385,7.011l-11.777,49.312" transform="translate(-83.839 -23.405)" fill="none" stroke="#fff" stroke-linecap="round" stroke-linejoin="round" stroke-width="1"/>
    <g id="Grupo_10238" data-name="Grupo 10238" transform="translate(-1192.132 -193.988)">
      <rect id="Rectángulo_2776" data-name="Rectángulo 2776" width="24.184" height="36.529" transform="matrix(0.87, -0.492, 0.492, 0.87, 22.013, 11.91)" fill="#3b3e54"/>
      <path id="Trazado_9200" data-name="Trazado 9200" d="M-1032.247-168.185a12.229,12.229,0,0,1-4.621,16.667,12.23,12.23,0,0,1-16.667-4.621,12.23,12.23,0,0,1,4.621-16.667A12.23,12.23,0,0,1-1032.247-168.185Z" transform="translate(1091.061 176.901)" fill="none" stroke="#3b3e54" stroke-miterlimit="10" stroke-width="3"/>
      <path id="Trazado_9201" data-name="Trazado 9201" d="M-1086.739-148.9l-11.2-11.4-4.269,15.4Z" transform="translate(1102.208 173.564)" fill="#3b3e54"/>
      <line id="Línea_78" data-name="Línea 78" x1="24.973" y1="6.924" transform="translate(9.204 22.926)" fill="none" stroke="#3b3e54" stroke-miterlimit="10" stroke-width="5"/>
      <line id="Línea_79" data-name="Línea 79" y1="10.94" x2="10.42" transform="translate(15.469 13.723)" fill="none" stroke="#3b3e54" stroke-miterlimit="10" stroke-width="3"/>
      <g id="Grupo_10237" data-name="Grupo 10237" transform="translate(32.927 12.41)">
        <path id="Trazado_9202" data-name="Trazado 9202" d="M-1054.543-157.554a3.571,3.571,0,0,0-4.394,2.487,3.571,3.571,0,0,0,2.487,4.395l7.385,2.047-4.973-8.789Z" transform="translate(1059.068 160.536)" fill="#fe5e5a"/>
        <path id="Trazado_9203" data-name="Trazado 9203" d="M-1052.34-158.8a3.571,3.571,0,0,1,4.394-2.487,3.57,3.57,0,0,1,2.487,4.395l-2.047,7.385-4.973-8.789Z" transform="translate(1057.508 161.42)" fill="#eb4844"/>
      </g>
    </g>
    <g id="Grupo_10239" data-name="Grupo 10239" transform="translate(-1127.577 -114.101)">
      <line id="Línea_80" data-name="Línea 80" y2="225.966" transform="translate(0)" fill="none" stroke="#484b57" stroke-linecap="round" stroke-linejoin="round" stroke-width="5"/>
      <line id="Línea_81" data-name="Línea 81" y2="225.966" transform="translate(26.666)" fill="none" stroke="#484b57" stroke-linecap="round" stroke-linejoin="round" stroke-width="5"/>
      <line id="Línea_82" data-name="Línea 82" x2="25.157" transform="translate(0 52.311)" fill="none" stroke="#484b57" stroke-linecap="round" stroke-linejoin="round" stroke-width="4.793"/>
      <line id="Línea_83" data-name="Línea 83" x2="25.157" transform="translate(0 34.828)" fill="none" stroke="#484b57" stroke-linecap="round" stroke-linejoin="round" stroke-width="4.793"/>
      <line id="Línea_84" data-name="Línea 84" x2="25.157" transform="translate(0 17.346)" fill="none" stroke="#484b57" stroke-linecap="round" stroke-linejoin="round" stroke-width="4.793"/>
      <line id="Línea_85" data-name="Línea 85" x2="25.157" transform="translate(0 69.793)" fill="none" stroke="#484b57" stroke-linecap="round" stroke-linejoin="round" stroke-width="4.793"/>
      <line id="Línea_86" data-name="Línea 86" x2="25.157" transform="translate(0 87.276)" fill="none" stroke="#484b57" stroke-linecap="round" stroke-linejoin="round" stroke-width="4.793"/>
      <line id="Línea_87" data-name="Línea 87" x2="25.157" transform="translate(0 104.758)" fill="none" stroke="#484b57" stroke-linecap="round" stroke-linejoin="round" stroke-width="4.793"/>
      <line id="Línea_88" data-name="Línea 88" x2="25.157" transform="translate(0 122.241)" fill="none" stroke="#484b57" stroke-linecap="round" stroke-linejoin="round" stroke-width="4.793"/>
      <line id="Línea_89" data-name="Línea 89" x2="25.157" transform="translate(0 139.723)" fill="none" stroke="#484b57" stroke-linecap="round" stroke-linejoin="round" stroke-width="4.793"/>
      <line id="Línea_90" data-name="Línea 90" x2="25.157" transform="translate(0 157.206)" fill="none" stroke="#484b57" stroke-linecap="round" stroke-linejoin="round" stroke-width="4.793"/>
      <line id="Línea_91" data-name="Línea 91" x2="25.157" transform="translate(0 174.688)" fill="none" stroke="#484b57" stroke-linecap="round" stroke-linejoin="round" stroke-width="4.793"/>
      <line id="Línea_92" data-name="Línea 92" x2="25.157" transform="translate(0 192.171)" fill="none" stroke="#484b57" stroke-linecap="round" stroke-linejoin="round" stroke-width="4.793"/>
      <line id="Línea_93" data-name="Línea 93" x2="25.157" transform="translate(0 209.653)" fill="none" stroke="#484b57" stroke-linecap="round" stroke-linejoin="round" stroke-width="4.793"/>
    </g>
    <g id="Grupo_10240" data-name="Grupo 10240" transform="translate(-1405.671 -62.569)">
      <line id="Línea_94" data-name="Línea 94" y2="174.434" transform="translate(0)" fill="none" stroke="#484b57" stroke-linecap="round" stroke-linejoin="round" stroke-width="4.393"/>
      <line id="Línea_95" data-name="Línea 95" y2="174.434" transform="translate(26.666)" fill="none" stroke="#484b57" stroke-linecap="round" stroke-linejoin="round" stroke-width="4.393"/>
      <line id="Línea_96" data-name="Línea 96" x2="25.157" transform="translate(0 18.262)" fill="none" stroke="#484b57" stroke-linecap="round" stroke-linejoin="round" stroke-width="4.793"/>
      <line id="Línea_97" data-name="Línea 97" x2="25.157" transform="translate(0 35.744)" fill="none" stroke="#484b57" stroke-linecap="round" stroke-linejoin="round" stroke-width="4.793"/>
      <line id="Línea_98" data-name="Línea 98" x2="25.157" transform="translate(0 53.227)" fill="none" stroke="#484b57" stroke-linecap="round" stroke-linejoin="round" stroke-width="4.793"/>
      <line id="Línea_99" data-name="Línea 99" x2="25.157" transform="translate(0 70.709)" fill="none" stroke="#484b57" stroke-linecap="round" stroke-linejoin="round" stroke-width="4.793"/>
      <line id="Línea_100" data-name="Línea 100" x2="25.157" transform="translate(0 88.192)" fill="none" stroke="#484b57" stroke-linecap="round" stroke-linejoin="round" stroke-width="4.793"/>
      <line id="Línea_101" data-name="Línea 101" x2="25.157" transform="translate(0 105.674)" fill="none" stroke="#484b57" stroke-linecap="round" stroke-linejoin="round" stroke-width="4.793"/>
      <line id="Línea_102" data-name="Línea 102" x2="25.157" transform="translate(0 123.157)" fill="none" stroke="#484b57" stroke-linecap="round" stroke-linejoin="round" stroke-width="4.793"/>
      <line id="Línea_103" data-name="Línea 103" x2="25.157" transform="translate(0 140.639)" fill="none" stroke="#484b57" stroke-linecap="round" stroke-linejoin="round" stroke-width="4.793"/>
      <line id="Línea_104" data-name="Línea 104" x2="25.157" transform="translate(0 158.122)" fill="none" stroke="#484b57" stroke-linecap="round" stroke-linejoin="round" stroke-width="4.793"/>
    </g>
    <g id="Grupo_10247" data-name="Grupo 10247" transform="translate(-1151.793 -222.037)">
      <g id="Grupo_10241" data-name="Grupo 10241" transform="translate(95.573 107.345)">
        <path id="Trazado_9204" data-name="Trazado 9204" d="M-909.964-72.115a1.593,1.593,0,0,0-.008-.313,1.551,1.551,0,0,0-1.73-1.35l-11.077,1.365a1.553,1.553,0,0,0-1.351,1.73,1.552,1.552,0,0,0,1.73,1.35l11.077-1.365A1.554,1.554,0,0,0-909.964-72.115Z" transform="translate(924.141 73.79)" fill="#fff"/>
      </g>
      <path id="Trazado_9205" data-name="Trazado 9205" d="M-909.669-74.478s3.4-2.3,3.841-1.439,5.684,13.665,5.112,13.966c-1.954,1.028-7.813-8.852-7.994-9.967S-910.168-74.158-909.669-74.478Z" transform="translate(1016.315 181.683)" fill="#f6b291"/>
      <path id="Trazado_9206" data-name="Trazado 9206" d="M-1041.153-197.641s-5.744-5.572-7.743-5.318,2.868,6.176,7.577,7.281Z" transform="translate(1049.357 211.715)" fill="#fff"/>
      <g id="Grupo_10242" data-name="Grupo 10242" transform="translate(4.893 12.594)">
        <path id="Trazado_9207" data-name="Trazado 9207" d="M-1040.99-197.928c-.684,1.078-1.345,2.136-1.956,3.223,17.366,10.42,26.751,13.966,46.75,9.943,3.059-.615,3.171-1.8,2.246-4.18.409-.306.42-.288,0,0-.927-2.38-1.73-2.431-4.706-1.794C-1018.117-186.574-1023.154-190.168-1040.99-197.928Z" transform="translate(1042.946 197.928)" fill="#ed976d"/>
      </g>
      <g id="Grupo_10243" data-name="Grupo 10243" transform="translate(44.27 141.966)">
        <path id="Trazado_9208" data-name="Trazado 9208" d="M-987.578-14.388a1.556,1.556,0,0,0,.311-.032,1.552,1.552,0,0,0,1.211-1.83l-2.227-10.937a1.553,1.553,0,0,0-1.83-1.211,1.552,1.552,0,0,0-1.211,1.83l2.227,10.937A1.553,1.553,0,0,0-987.578-14.388Z" transform="translate(991.356 28.43)" fill="#fff"/>
      </g>
      <g id="Grupo_10244" data-name="Grupo 10244" transform="translate(37.559 57.273)">
        <path id="Trazado_9209" data-name="Trazado 9209" d="M-993.076-47.018a40.632,40.632,0,0,0,4.943-.455c-4.918-26.291-8.641-61.577,4.512-86.15q-5.989-2.938-12.031-5.769C-1005.264-117.981-997.078-69.633-993.076-47.018Z" transform="translate(1000.148 139.391)" fill="#292b3b"/>
      </g>
      <g id="Grupo_10245" data-name="Grupo 10245" transform="translate(43.918 55.93)">
        <path id="Trazado_9210" data-name="Trazado 9210" d="M-931.981-84.946c-.186-1.655-.444-3.293-.768-4.926-38.9,5.057-53.857-6.7-45.4-47.9-4.383-1.187-8.787-2.278-13.191-3.381C-995.157-94.835-975.97-79.672-931.981-84.946Z" transform="translate(991.817 141.151)" fill="#3b3e54"/>
      </g>
      <path id="Trazado_9211" data-name="Trazado 9211" d="M-990.642-213.8a4.516,4.516,0,0,1,5.151.379c1.235,1.234.753,3.413-.507,4.673s-4.975,1.282-6.21.048S-992.577-212.65-990.642-213.8Z" transform="translate(1035.964 214.428)" fill="#1a1c2e"/>
      <path id="Trazado_9212" data-name="Trazado 9212" d="M-964.233-204.524c2.1-2.826,6.683-4.516,10.112-3.167s4.428,5.724,3.142,8.992-6.928,6.523-12.2,4.88C-966.7-194.916-966.895-200.945-964.233-204.524Z" transform="translate(1029.635 212.945)" fill="#1a1c2e"/>
      <path id="Trazado_9213" data-name="Trazado 9213" d="M-967.579-206.7c1.541-2.125,4.847-3.435,7.289-2.474s3.106,4.2,2.146,6.642-6.04,4.628-8.482,3.667S-969.53-204.009-967.579-206.7Z" transform="translate(1030.285 213.26)" fill="#1a1c2e"/>
      <path id="Trazado_9214" data-name="Trazado 9214" d="M-982.257-212.654s4.783,3.7,7.872,3.356,4.7-.914,7.672,1.811,5.608-1.3,7.768,2.376-3.8,13.076-10.348,9.564c-5.4-2.892-3.853-4.244-7.64-3.92a8.611,8.611,0,0,1-6.448-2.149C-985.618-203.655-982.257-212.654-982.257-212.654Z" transform="translate(1033.92 214.008)" fill="#1a1c2e"/>
      <path id="Trazado_9215" data-name="Trazado 9215" d="M-979.7-205.768c0,4.695-3.271,8.5-6.14,8.5s-4.251-3.806-4.251-8.5,2.326-7.085,5.2-7.085S-979.7-210.464-979.7-205.768Z" transform="translate(1035.325 214.055)" fill="#fff"/>
      <path id="Trazado_9216" data-name="Trazado 9216" d="M-974.591-201.952c0,1.093-1.085,2.491-1.877,2.491s-.989-.885-.989-1.978.641-2.116,1.433-2.116A1.409,1.409,0,0,1-974.591-201.952Z" transform="translate(1032.336 211.854)" fill="#fff"/>
      <path id="Trazado_9217" data-name="Trazado 9217" d="M-979.062-208.933s-.992-3.008-3.345-4.094-6.888-.9-7.868,3.263c0,0-.426,3.02,3.261,3.225s2.9-1.674,4.812,0,3.422.218,3.787.608Z" transform="translate(1035.374 214.23)" fill="#1a1c2e"/>
      <path id="Trazado_9218" data-name="Trazado 9218" d="M-998.122-141.232a22.28,22.28,0,0,0,10.25-2.347,21.386,21.386,0,0,1,8.511-1.973c.656-9.4,2.214-34.161.728-38.73-1.844-5.667-5.134-8.071-5.134-8.071s-2.093,1.839-3.65,1.7-3.372,5.2-5.517,8.6-3.918,4.536-2.084,9.742C-994.233-170.071-998.51-144.493-998.122-141.232Z" transform="translate(1037.234 209.202)" fill="#f6b291"/>
      <path id="Trazado_9219" data-name="Trazado 9219" d="M-978.409-200.395l-4.908-.479a78.49,78.49,0,0,0-.33,9.483c.18.743,1.4,1.083,2.732.761,1.2-.29,2.061-1.017,2.094-1.7h.006A64.843,64.843,0,0,1-978.409-200.395Z" transform="translate(1033.817 211.219)" fill="#fff"/>
      <path id="Trazado_9220" data-name="Trazado 9220" d="M-988.477-12.8s.96,3.99,0,4.1-14.791.53-14.872-.111c-.278-2.191,11.029-4.212,12.137-3.99S-988.6-13.381-988.477-12.8Z" transform="translate(1038.467 166.747)" fill="#f6b291"/>
      <path id="Trazado_9221" data-name="Trazado 9221" d="M-1024.412-163.713s-6.5-5.321-8.572-4.877,3.548,6.208,8.572,6.946Z" transform="translate(1045.585 203.583)" fill="#fff"/>
      <g id="Grupo_10246" data-name="Grupo 10246" transform="translate(18.828 24.532)">
        <path id="Trazado_9222" data-name="Trazado 9222" d="M-1023.039-167.743c-.537,1.154-1.1,2.371-1.649,3.4,20.242,9.381,35.128,11.254,40.174-13.609.772-3.8-.858-3.121-2.469-4.338-2.744.47-3.434-.11-3.926,3.446C-994.132-155.591-1005.515-162.775-1023.039-167.743Z" transform="translate(1024.689 182.288)" fill="#ed976d"/>
      </g>
    </g>
    <g id="Grupo_10255" data-name="Grupo 10255" transform="translate(-1408.945 -144.543)">
      <g id="Grupo_10248" data-name="Grupo 10248" transform="translate(5.305 151.795)">
        <path id="Trazado_9223" data-name="Trazado 9223" d="M-1377.635,100.837a1.608,1.608,0,0,1-.329-.025,1.635,1.635,0,0,1-1.326-1.9l2.045-11.588a1.637,1.637,0,0,1,1.9-1.327,1.636,1.636,0,0,1,1.327,1.9l-2.045,11.587A1.638,1.638,0,0,1-1377.635,100.837Z" transform="translate(1379.316 -85.977)" fill="#fff"/>
      </g>
      <path id="Trazado_9224" data-name="Trazado 9224" d="M-1380.385,101.888s-.944,4.223.07,4.323,15.6.308,15.675-.369c.254-2.314-11.7-4.253-12.864-4S-1380.262,101.275-1380.385,101.888Z" transform="translate(1384.969 62.106)" fill="#f6b291"/>
      <path id="Trazado_9225" data-name="Trazado 9225" d="M-1296.753-56.293s7.574-3.717,9.495-2.81-4.885,5.259-9.967,4.834Z" transform="translate(1365.187 100.197)" fill="#fff"/>
      <g id="Grupo_10249" data-name="Grupo 10249" transform="translate(26.546 21.101)">
        <path id="Trazado_9226" data-name="Trazado 9226" d="M-1309.227-63.634c.143,1.36.337,2.671.492,3.982-20.873,3.116-32.419-2.182-42.01-20.512-1.467-2.8-.7-3.61,1.752-4.6.061-.486.025-.473,0,0,2.449-.989,3.189-.6,4.682,2.249C-1334.549-63.915-1330.114-64.047-1309.227-63.634Z" transform="translate(1351.487 85.253)" fill="#e89f7b"/>
      </g>
      <g id="Grupo_10250" data-name="Grupo 10250" transform="translate(17.043 147.467)">
        <path id="Trazado_9227" data-name="Trazado 9227" d="M-1363.111,92.212a1.643,1.643,0,0,1-.269-.192,1.637,1.637,0,0,1-.151-2.309l7.757-8.847a1.637,1.637,0,0,1,2.309-.152,1.637,1.637,0,0,1,.152,2.309l-7.758,8.847A1.636,1.636,0,0,1-1363.111,92.212Z" transform="translate(1363.937 -80.307)" fill="#fff"/>
      </g>
      <g id="Grupo_10251" data-name="Grupo 10251" transform="translate(20.608 57.674)">
        <path id="Trazado_9228" data-name="Trazado 9228" d="M-1355.179,61.073c-1.427-1.081-2.775-2.243-4.088-3.461,21.181-26.93,17.85-60.268.73-87.722,4.021-2.4,8.045-4.8,12.05-7.227C-1333.14-11.768-1333.533,40.112-1355.179,61.073Z" transform="translate(1359.267 37.336)" fill="#292b3b"/>
      </g>
      <g id="Grupo_10252" data-name="Grupo 10252" transform="translate(4.754 60.292)">
        <path id="Trazado_9229" data-name="Trazado 9229" d="M-1374.61,65.892c-1.819-.119-3.625-.282-5.427-.556,7.954-25.512,14.624-72.748,13.134-98.715,4.713-.269,9.438-.482,14.158-.528C-1355.319-2.779-1367.039,34.84-1374.61,65.892Z" transform="translate(1380.038 33.906)" fill="#3b3e54"/>
      </g>
      <path id="Trazado_9230" data-name="Trazado 9230" d="M-1364.481,92.074s-2.966,3.151-2.145,3.755,13.263,8.22,13.673,7.675c1.4-1.86-7.895-9.623-9.025-10S-1364.063,91.609-1364.481,92.074Z" transform="translate(1381.651 64.395)" fill="#f6b291"/>
      <g id="Grupo_10253" data-name="Grupo 10253" transform="translate(17.165 18.26)">
        <path id="Trazado_9231" data-name="Trazado 9231" d="M-1363.777-45.109c5.812,2.574,14.857,5.875,17.183,2.717a9.2,9.2,0,0,1,1.843-1.9c1.228-12.376,1.575-22.1-.658-34.764-1.383-7.8-6.092-9.206-6.383-9.3-5.409-1.836-9.894.527-10.323,6.458-.137,1.978.453,3.269.924,5.676C-1359.056-65.369-1361.531-55.748-1363.777-45.109Z" transform="translate(1363.777 88.975)" fill="#f6b291"/>
      </g>
      <path id="Trazado_9232" data-name="Trazado 9232" d="M-1381.765-17.374s1.873,8.658.464,10.387-4.124-6.308-2.406-11.38Z" transform="translate(1385.791 90.52)" fill="#fff"/>
      <g id="Grupo_10254" data-name="Grupo 10254" transform="translate(0 20.463)">
        <path id="Trazado_9233" data-name="Trazado 9233" d="M-1381.838-32.247c-1.365.134-2.715.17-4.031.217-.944-25.808-1.856-35.941,18.106-52.533,3.054-2.538,3.353-1.626,4.954.675.609-.008.546-.082,0,0,1.6,2.3,1.715,2.9-1.5,5.289C-1385.354-63.015-1379.423-57.453-1381.838-32.247Z" transform="translate(1386.266 86.089)" fill="#e89f7b"/>
      </g>
      <path id="Trazado_9234" data-name="Trazado 9234" d="M-1354.008-104.921c-.231,4.944,3.025,9.114,6.047,9.255s4.664-3.8,4.9-8.743-2.1-7.575-5.122-7.717S-1353.776-109.866-1354.008-104.921Z" transform="translate(1378.632 112.717)" fill="#fff"/>
      <path id="Trazado_9235" data-name="Trazado 9235" d="M-1354.408-100.3l5.174-.505a82.787,82.787,0,0,1,.349,10c-.19.783-1.48,1.143-2.881.8-1.26-.306-2.172-1.072-2.208-1.793h-.005A68.531,68.531,0,0,0-1354.408-100.3Z" transform="translate(1378.724 110.036)" fill="#fff"/>
      <path id="Trazado_9236" data-name="Trazado 9236" d="M-1343.289-95.506l-.2-.026c-1.02-.131-5.692-.656-7.019.478-1.493,1.276,2.22.689,3.59.169s2.069.184,2.931.488S-1342.154-94.75-1343.289-95.506Z" transform="translate(1377.883 108.843)" fill="#42210b"/>
      <path id="Trazado_9237" data-name="Trazado 9237" d="M-1357.027-101.095c-.053,1.151,1.02,2.676,1.853,2.715s1.086-.884,1.14-2.035-.571-2.259-1.4-2.3A1.486,1.486,0,0,0-1357.027-101.095Z" transform="translate(1379.345 110.488)" fill="#fff"/>
      <path id="Trazado_9238" data-name="Trazado 9238" d="M-1355.009-108.285s1.193-3.119,3.724-4.147,7.3-.608,8.124,3.824c0,0,.3,3.2-3.593,3.235s-2.97-1.906-5.068-.237-3.615.06-4.019.454Z" transform="translate(1379.063 112.898)" fill="#1a1c2e"/>
      <path id="Trazado_9239" data-name="Trazado 9239" d="M-1352.916-99.249c1.1-.224,1.25.8,2.138,2.707s3.709,3.609,6.4.254c1.717-2.137.356,2.4.356,2.4-1.059,2-2.345,2.752-4.137,2.668-2.475-.116-5.054-2.207-6.414-5.345C-1354.311-97.733-1353.667-99.1-1352.916-99.249Z" transform="translate(1378.763 109.675)" fill="#1a1c2e"/>
    </g>
    <g id="Grupo_10258" data-name="Grupo 10258" transform="translate(-1343.461 -111.368)">
      <g id="Grupo_10256" data-name="Grupo 10256" transform="translate(49.5 17.81)">
        <path id="Trazado_9240" data-name="Trazado 9240" d="M-1184-30.96h0v44h0l79.425,44.483,28.2-28.2Z" transform="translate(1223.399 42.516)" fill="#fe5e5a"/>
        <path id="Trazado_9241" data-name="Trazado 9241" d="M-1210.531-42.558l-6.327-3.542-18.761,33.492,6.327,3.542,33.072,18.524v-44Z" transform="translate(1235.619 46.1)" fill="#ff8b87"/>
      </g>
      <g id="Grupo_10257" data-name="Grupo 10257" transform="translate(0 0)">
        <rect id="Rectángulo_2777" data-name="Rectángulo 2777" width="39.944" height="22.491" transform="translate(74.967 20.675) rotate(119.251)" fill="#fff"/>
        <path id="Trazado_9242" data-name="Trazado 9242" d="M-1251.834-63.508l-3.748-2.1a3.241,3.241,0,0,0-4.4,1.244l-5.183,9.258a3.173,3.173,0,0,1-4.381,1.175l-25.211-14.952a3.8,3.8,0,0,0-5.053.992,3.687,3.687,0,0,0,1.313,5.366l26.058,13.762a3.17,3.17,0,0,1,1.282,4.351l-5.183,9.251a3.232,3.232,0,0,0,1.244,4.4l3.74,2.1,2.488,1.389,19.517-34.843Zm-41.674-.939a1.728,1.728,0,0,1-2.854.809,1.713,1.713,0,0,1-.473-1.687,1.722,1.722,0,0,1,2.847-.809A1.7,1.7,0,0,1-1293.509-64.447Z" transform="translate(1300.472 69.433)" fill="#3b3e54"/>
        <rect id="Rectángulo_2778" data-name="Rectángulo 2778" width="39.944" height="8.839" transform="translate(56.346 10.246) rotate(119.251)" fill="#43a5f3"/>
        <path id="Trazado_9243" data-name="Trazado 9243" d="M-1244.351-36.917a.769.769,0,0,1,.3,1.046.77.77,0,0,1-1.046.3.77.77,0,0,1-.3-1.046A.769.769,0,0,1-1244.351-36.917Z" transform="translate(1287.457 61.759)" fill="#fe5e5a"/>
        <path id="Trazado_9244" data-name="Trazado 9244" d="M-1234.189-55.062a.769.769,0,0,1,.3,1.046.769.769,0,0,1-1.046.295.77.77,0,0,1-.3-1.046A.769.769,0,0,1-1234.189-55.062Z" transform="translate(1285.051 66.055)" fill="#fe5e5a"/>
        <path id="Trazado_9245" data-name="Trazado 9245" d="M-1254.182-19.363a.768.768,0,0,1,.295,1.046.769.769,0,0,1-1.046.3.769.769,0,0,1-.3-1.046A.769.769,0,0,1-1254.182-19.363Z" transform="translate(1289.784 57.603)" fill="#fe5e5a"/>
      </g>
    </g>
    <g id="Grupo_10268" data-name="Grupo 10268" transform="translate(-1221.515 -49.634)">
      <g id="Grupo_10259" data-name="Grupo 10259" transform="translate(83.241 148.048)">
        <path id="Trazado_9246" data-name="Trazado 9246" d="M-1027.661,220.218a1.62,1.62,0,0,0,.328-.034,1.635,1.635,0,0,0,1.276-1.93l-2.348-11.53a1.637,1.637,0,0,0-1.929-1.277,1.636,1.636,0,0,0-1.276,1.93l2.348,11.531A1.636,1.636,0,0,0-1027.661,220.218Z" transform="translate(1031.644 -205.415)" fill="#fff"/>
      </g>
      <path id="Trazado_9247" data-name="Trazado 9247" d="M-1028.609,221.891s1.013,4.207,0,4.324-15.594.559-15.679-.117c-.292-2.31,11.628-4.441,12.8-4.207S-1028.742,221.279-1028.609,221.891Z" transform="translate(1117.88 -61.213)" fill="#f6b291"/>
      <path id="Trazado_9248" data-name="Trazado 9248" d="M-1117.058,39.764s-4.635-7.05-6.75-7.246,1.536,7.012,6.129,9.229Z" transform="translate(1136.849 -16.435)" fill="#fff"/>
      <g id="Grupo_10260" data-name="Grupo 10260" transform="translate(17.626 22.12)">
        <path id="Trazado_9249" data-name="Trazado 9249" d="M-1115.163,40.429c-.813,1.1-1.647,2.13-2.447,3.179,16.4,13.289,29.032,14.591,46.6,3.677,2.688-1.669,2.434-2.755.828-4.851.194-.45.219-.42,0,0-1.607-2.1-2.444-2.133-5.175-.442C-1093.21,53.052-1096.964,50.685-1115.163,40.429Z" transform="translate(1117.61 -40.429)" fill="#ed976d"/>
      </g>
      <g id="Grupo_10261" data-name="Grupo 10261" transform="translate(54.727 148.048)">
        <path id="Trazado_9250" data-name="Trazado 9250" d="M-1065.02,220.218a1.606,1.606,0,0,0,.328-.034,1.635,1.635,0,0,0,1.277-1.93l-2.348-11.53a1.637,1.637,0,0,0-1.929-1.277,1.635,1.635,0,0,0-1.276,1.93l2.347,11.531A1.638,1.638,0,0,0-1065.02,220.218Z" transform="translate(1069.002 -205.415)" fill="#fff"/>
      </g>
      <g id="Grupo_10262" data-name="Grupo 10262" transform="translate(47.652 58.762)">
        <path id="Trazado_9251" data-name="Trazado 9251" d="M-1070.816,185.819a42.74,42.74,0,0,0,5.211-.48c-5.185-27.716-9.109-64.916,4.756-90.822q-6.313-3.1-12.683-6.082C-1083.664,111.007-1075.035,161.977-1070.816,185.819Z" transform="translate(1078.271 -88.436)" fill="#292b3b"/>
      </g>
      <g id="Grupo_10263" data-name="Grupo 10263" transform="translate(54.585 58.961)">
        <path id="Trazado_9252" data-name="Trazado 9252" d="M-1039.966,185.1a53.635,53.635,0,0,0,5.137-1.75c-12.972-25.351-22.467-65.253-20.2-94.114-4.715-.243-9.441-.4-14.161-.536C-1067.419,117.58-1051.188,159.062-1039.966,185.1Z" transform="translate(1069.188 -88.697)" fill="#3b3e54"/>
      </g>
      <path id="Trazado_9253" data-name="Trazado 9253" d="M-1065.968,221.891s1.013,4.207,0,4.324-15.593.559-15.679-.117c-.292-2.31,11.628-4.441,12.8-4.207S-1066.1,221.279-1065.968,221.891Z" transform="translate(1126.724 -61.213)" fill="#f6b291"/>
      <g id="Grupo_10264" data-name="Grupo 10264" transform="translate(48.905 17.776)">
        <path id="Trazado_9254" data-name="Trazado 9254" d="M-1056.146,84.533c-2.258-.893-5.52-1.758-11.209-2a53.685,53.685,0,0,0-9.274.289c9.951-21.358,11.676-32,10.774-38a8.282,8.282,0,0,1,3.118-7.83l.935-.72a7.385,7.385,0,0,1,11.751,4.432,44.4,44.4,0,0,1,.739,6.179C-1048.741,57.916-1050.209,69.915-1056.146,84.533Z" transform="translate(1076.629 -34.738)" fill="#f6b291"/>
      </g>
      <path id="Trazado_9255" data-name="Trazado 9255" d="M-1050.965,21.793c-1.865,4.584-6.572,7-9.374,5.861s-2.638-5.405-.772-9.99,5.086-5.993,7.888-4.854S-1049.1,17.208-1050.965,21.793Z" transform="translate(1122.185 -11.682)" fill="#fff"/>
      <path id="Trazado_9256" data-name="Trazado 9256" d="M-1046.573,27.178c-.434,1.068-2.049,2-2.822,1.687s-.615-1.259-.18-2.326,1.467-1.81,2.24-1.5A1.485,1.485,0,0,1-1046.573,27.178Z" transform="translate(1119.216 -14.649)" fill="#fff"/>
      <path id="Trazado_9257" data-name="Trazado 9257" d="M-1048.372,18.91s.226-3.332-1.64-5.327-6.368-3.616-8.979.06c0,0-1.616,2.78,1.9,4.444s3.5-.482,4.7,1.913,3.256,1.572,3.456,2.1Z" transform="translate(1121.447 -11.448)" fill="#1a1c2e"/>
      <path id="Trazado_9258" data-name="Trazado 9258" d="M-1050.173,24.751l-5.174-.505a82.835,82.835,0,0,0-.349,10c.19.783,1.48,1.142,2.881.8,1.26-.305,2.172-1.072,2.208-1.792l.006,0A68.514,68.514,0,0,1-1050.173,24.751Z" transform="translate(1120.596 -14.478)" fill="#fff"/>
      <path id="Trazado_9259" data-name="Trazado 9259" d="M-1053.495,26.618c-.905-.666-1.469.2-3.077,1.559s-4.88,1.718-5.917-2.457c-.66-2.66-1.329,2.025-1.33,2.03.12,2.262.972,3.481,2.635,4.158,2.294.934,5.513.119,8.065-2.158C-1052.865,28.579-1052.877,27.071-1053.495,26.618Z" transform="translate(1122.502 -14.633)" fill="#1a1c2e"/>
      <path id="Trazado_9260" data-name="Trazado 9260" d="M-1062.539,25.8l.19.059c.98.31,5.441,1.794,6.169,3.381.819,1.785-2.3-.307-3.328-1.355s-1.955-.7-2.865-.788S-1063.886,26.01-1062.539,25.8Z" transform="translate(1122.385 -14.846)" fill="#1a1c2e"/>
      <g id="Grupo_10266" data-name="Grupo 10266" transform="translate(0 18.832)">
        <path id="Trazado_9261" data-name="Trazado 9261" d="M-1089.289,61.828c0,.58-.015,1.153-.061,1.717a25.335,25.335,0,0,1-1.252,6.4,24.524,24.524,0,0,1-1.3,3.175,25.709,25.709,0,0,1-3.748,5.625,26.023,26.023,0,0,1-2.427,2.427,25.865,25.865,0,0,1-5.411,3.641,24.119,24.119,0,0,1-3.168,1.328,25.09,25.09,0,0,1-6.625,1.328c-.565.046-1.137.061-1.717.061s-1.152-.015-1.717-.061a25.335,25.335,0,0,1-6.4-1.252,24.51,24.51,0,0,1-3.175-1.3,25.717,25.717,0,0,1-5.625-3.748,26.023,26.023,0,0,1-2.427-2.427,25.859,25.859,0,0,1-3.641-5.412,24.117,24.117,0,0,1-1.328-3.168,25.091,25.091,0,0,1-1.328-6.625c-.046-.565-.061-1.137-.061-1.717s.015-1.153.061-1.717a25.335,25.335,0,0,1,1.252-6.4,24.488,24.488,0,0,1,1.3-3.175,25.719,25.719,0,0,1,3.748-5.625,26.024,26.024,0,0,1,2.427-2.427,25.861,25.861,0,0,1,5.412-3.641,24.113,24.113,0,0,1,3.167-1.328,25.09,25.09,0,0,1,6.625-1.328c.565-.046,1.137-.061,1.717-.061s1.153.015,1.717.061a25.334,25.334,0,0,1,6.4,1.252,24.49,24.49,0,0,1,3.175,1.3,25.709,25.709,0,0,1,5.625,3.748,26.024,26.024,0,0,1,2.427,2.427,25.863,25.863,0,0,1,3.641,5.412,24.119,24.119,0,0,1,1.328,3.168,25.091,25.091,0,0,1,1.328,6.625C-1089.3,60.675-1089.289,61.248-1089.289,61.828Z" transform="translate(1140.703 -36.121)" fill="#feb64f"/>
        <path id="Trazado_9262" data-name="Trazado 9262" d="M-1106.257,63.545l12.5,5.114,3.152,1.29a24.524,24.524,0,0,1-1.3,3.175l-3.152-1.29-12.7-5.19,12.105,12.105a26.023,26.023,0,0,1-2.427,2.427l-2.4-2.4-9.556-9.548,5.228,12.456,1.321,3.137a24.119,24.119,0,0,1-3.168,1.328l-1.313-3.129-5.312-12.655V87.473c-.565.046-1.137.061-1.717.061s-1.152-.015-1.717-.061V70.567l-5.114,12.51-1.29,3.145a24.51,24.51,0,0,1-3.175-1.3l1.282-3.152,5.2-12.7-9.7,9.7-2.4,2.4a26.023,26.023,0,0,1-2.427-2.427l2.4-2.4,9.556-9.556-12.456,5.228-3.137,1.32a24.117,24.117,0,0,1-1.328-3.168l3.129-1.313,12.655-5.312h-17.112c-.046-.565-.061-1.137-.061-1.717s.015-1.153.061-1.717h16.906L-1136.245,55l-3.145-1.29a24.488,24.488,0,0,1,1.3-3.175l3.152,1.282,12.693,5.2-9.7-9.7-2.4-2.4a26.024,26.024,0,0,1,2.427-2.427l11.953,11.953-5.228-12.456-1.313-3.137a24.113,24.113,0,0,1,3.167-1.328l1.313,3.129,5.312,12.655V36.182c.565-.046,1.137-.061,1.717-.061s1.153.015,1.717.061V53.088l5.114-12.51,1.29-3.145a24.49,24.49,0,0,1,3.175,1.3l-1.29,3.152-5.19,12.7,9.7-9.7,2.4-2.4a26.024,26.024,0,0,1,2.427,2.427l-2.4,2.4-9.556,9.556,12.457-5.228,3.145-1.32a24.119,24.119,0,0,1,1.328,3.168l-3.137,1.32-12.647,5.3h17.112c.046.565.061,1.137.061,1.717s-.015,1.153-.061,1.717Z" transform="translate(1140.703 -36.121)" fill="#ead986"/>
        <circle id="Elipse_660" data-name="Elipse 660" cx="22.315" cy="22.315" r="22.315" transform="translate(3.39 3.392)" fill="#ead986"/>
        <circle id="Elipse_661" data-name="Elipse 661" cx="21.058" cy="21.058" r="21.058" transform="translate(4.647 4.648)" fill="#feb64f"/>
        <g id="Grupo_10265" data-name="Grupo 10265" transform="translate(19.201 11.428)">
          <path id="Trazado_9263" data-name="Trazado 9263" d="M-1110.225,79.651V76.139a10.121,10.121,0,0,1-5.322-1.533l.835-2.328a9.3,9.3,0,0,0,5.011,1.5c2.47,0,4.139-1.427,4.139-3.41,0-1.913-1.357-3.1-3.932-4.139-3.546-1.391-5.738-2.991-5.738-6.018,0-2.888,2.05-5.079,5.251-5.6V51.093h2.158v3.374a9.261,9.261,0,0,1,4.521,1.217l-.87,2.3a8.4,8.4,0,0,0-4.382-1.182c-2.68,0-3.688,1.6-3.688,2.99,0,1.809,1.286,2.713,4.314,3.966,3.583,1.462,5.39,3.27,5.39,6.366,0,2.748-1.912,5.322-5.495,5.915v3.617Z" transform="translate(1115.547 -51.093)" fill="#ead986"/>
        </g>
      </g>
      <path id="Trazado_9264" data-name="Trazado 9264" d="M-1087.144,73.5s-7.74-4.308-9.8-3.462,4.838,5.779,10.19,5.609Z" transform="translate(1130.433 -25.292)" fill="#fff"/>
      <g id="Grupo_10267" data-name="Grupo 10267" transform="translate(40.77 22.808)">
        <path id="Trazado_9265" data-name="Trazado 9265" d="M-1086.294,65.3c-.316,1.35-.64,2.692-.994,3.907,22.2,5.37,39.513,1.333,34.381-24.757-.784-3.99-1.6-3.151-3.97-2.778-.57-.3-.346-.271,0,0-2.373.372-3.707.866-2.7,4.456C-1053,69.6-1068.555,66.38-1086.294,65.3Z" transform="translate(1087.288 -41.33)" fill="#ed976d"/>
      </g>
    </g>
    <g id="Grupo_10269" data-name="Grupo 10269" transform="translate(-1463.342 35.206)">
      <rect id="Rectángulo_2779" data-name="Rectángulo 2779" width="47.139" height="57.757" transform="translate(0 22.322)" fill="#3b3e54"/>
      <circle id="Elipse_662" data-name="Elipse 662" cx="20.69" cy="20.69" r="20.69" transform="translate(1.953)" fill="none" stroke="#3b3e54" stroke-miterlimit="10" stroke-width="3"/>
      <path id="Trazado_9266" data-name="Trazado 9266" d="M-1414.3,151.847h-27.478v1.329a4.639,4.639,0,0,0,4.639,4.639h0a1.786,1.786,0,0,1,1.785,1.785h0a2.1,2.1,0,0,0,2.1,2.1h0a2.1,2.1,0,0,0,2.1-2.1v-.779a1,1,0,0,1,1.005-1.006h0a1.006,1.006,0,0,1,1.006,1.006v11.544a3.53,3.53,0,0,0,3.53,3.53h0a3.53,3.53,0,0,0,3.53-3.53v-7.7a4.85,4.85,0,0,1,4.85-4.851h0a2.941,2.941,0,0,0,2.942-2.942Z" transform="translate(1453.805 -129.525)" fill="#ff8b87"/>
    </g>
    <path id="Trazado_9267" data-name="Trazado 9267" d="M-1134.278,196.732l-50.147,10.314V156.9l50.147-10.314Z" transform="translate(-70.461 -93.073)" fill="#ff6d69"/>
    <path id="Trazado_9268" data-name="Trazado 9268" d="M-1107.321,162.8l-50.147,10.314-26.957-16.216,50.147-10.314Z" transform="translate(-70.461 -93.073)" fill="#ff8c87"/>
    <g id="Grupo_10270" data-name="Grupo 10270" transform="translate(-1085.709 73.458)">
      <rect id="Rectángulo_2780" data-name="Rectángulo 2780" width="47.777" height="36.479" transform="translate(1.781)" fill="#ff8c87"/>
      <rect id="Rectángulo_2781" data-name="Rectángulo 2781" width="51.339" height="9.644" fill="#ffb0ad"/>
      <rect id="Rectángulo_2782" data-name="Rectángulo 2782" width="7.069" height="36.479" transform="translate(22.135)" fill="#fe5e5a"/>
      <rect id="Rectángulo_2783" data-name="Rectángulo 2783" width="9.414" height="5.088" transform="translate(9.286 14.972)" fill="#166eb5"/>
    </g>
    <g id="Grupo_10271" data-name="Grupo 10271" transform="translate(-1081.004 36.979)">
      <rect id="Rectángulo_2784" data-name="Rectángulo 2784" width="47.777" height="36.479" transform="translate(1.781)" fill="#ff8c87"/>
      <rect id="Rectángulo_2785" data-name="Rectángulo 2785" width="51.339" height="9.644" transform="translate(0)" fill="#ffb0ad"/>
      <rect id="Rectángulo_2786" data-name="Rectángulo 2786" width="7.069" height="36.479" transform="translate(22.135)" fill="#fe5e5a"/>
      <rect id="Rectángulo_2787" data-name="Rectángulo 2787" width="9.414" height="5.088" transform="translate(9.286 23.181)" fill="#166eb5"/>
    </g>
    <g id="Grupo_10272" data-name="Grupo 10272" transform="translate(-1087.973 0.5)">
      <rect id="Rectángulo_2788" data-name="Rectángulo 2788" width="47.777" height="36.479" transform="translate(1.781 0)" fill="#ff8c87"/>
      <rect id="Rectángulo_2789" data-name="Rectángulo 2789" width="51.339" height="9.644" transform="translate(0 0)" fill="#ffb0ad"/>
      <rect id="Rectángulo_2790" data-name="Rectángulo 2790" width="7.069" height="36.479" transform="translate(22.135 0)" fill="#fe5e5a"/>
      <rect id="Rectángulo_2791" data-name="Rectángulo 2791" width="9.414" height="5.088" transform="translate(9.286 14.972)" fill="#166eb5"/>
      <rect id="Rectángulo_2792" data-name="Rectángulo 2792" width="9.414" height="5.088" transform="translate(9.286 22.578)" fill="#166eb5"/>
    </g>
    <g id="Grupo_10273" data-name="Grupo 10273" transform="translate(-1109.112 105.265)">
      <path id="Trazado_9269" data-name="Trazado 9269" d="M-980.418,216.624a7.626,7.626,0,0,0-10.786,0,7.626,7.626,0,0,0,0,10.785l11.576,11.576V217.413Z" transform="translate(993.437 -214.39)" fill="#fe5e5a"/>
      <path id="Trazado_9270" data-name="Trazado 9270" d="M-974.556,216.624a7.626,7.626,0,0,1,10.786,0,7.626,7.626,0,0,1,0,10.785l-11.575,11.576V217.413Z" transform="translate(989.154 -214.39)" fill="#eb4844"/>
    </g>
    <g id="Grupo_10274" data-name="Grupo 10274" transform="translate(-1271.461 -24.092)">
      <path id="Trazado_9271" data-name="Trazado 9271" d="M-1200.308,45.912a3.417,3.417,0,0,0-4.832,0,3.417,3.417,0,0,0,0,4.832l5.186,5.186V46.266Z" transform="translate(1206.141 -44.911)" fill="#3b3e54"/>
      <path id="Trazado_9272" data-name="Trazado 9272" d="M-1197.682,45.912a3.417,3.417,0,0,1,4.832,0,3.417,3.417,0,0,1,0,4.832l-5.187,5.186V46.266Z" transform="translate(1204.222 -44.911)" fill="#292b3b"/>
    </g>
    <g id="Grupo_10275" data-name="Grupo 10275" transform="translate(-1240.744 -58.546)">
      <path id="Trazado_9273" data-name="Trazado 9273" d="M-1160.064.773a3.417,3.417,0,0,0-4.832,0,3.417,3.417,0,0,0,0,4.832l5.186,5.186V1.127Z" transform="translate(1165.897 0.228)" fill="#3b3e54"/>
      <path id="Trazado_9274" data-name="Trazado 9274" d="M-1157.438.773a3.417,3.417,0,0,1,4.832,0,3.417,3.417,0,0,1,0,4.832l-5.186,5.186V1.127Z" transform="translate(1163.978 0.228)" fill="#292b3b"/>
    </g>
    <g id="Grupo_10276" data-name="Grupo 10276" transform="translate(-1289.549 -130.797)">
      <path id="Trazado_9275" data-name="Trazado 9275" d="M-1224.006-93.888a3.416,3.416,0,0,0-4.833,0,3.417,3.417,0,0,0,0,4.832l5.186,5.186v-9.664Z" transform="translate(1229.839 94.889)" fill="#3b3e54"/>
      <path id="Trazado_9276" data-name="Trazado 9276" d="M-1221.38-93.888a3.416,3.416,0,0,1,4.832,0,3.417,3.417,0,0,1,0,4.832l-5.186,5.186v-9.664Z" transform="translate(1227.92 94.889)" fill="#292b3b"/>
    </g>
    <path id="Trazado_9277" data-name="Trazado 9277" d="M-1243.957-137.354s-4.657-2.961-7.378.657-6.351,11.642-5.636,14.608,3.115,1.678,4.236,0,3.562-9.159,5.216-10.558,7.015-2.8,8.85-3.053S-1243.957-137.354-1243.957-137.354Z" transform="translate(-53.266 -25.585)" fill="#3b3e54"/>
    <path id="Trazado_9278" data-name="Trazado 9278" d="M-1233.123-132.521s-4.658-2.961-7.378.658-6.351,11.642-5.636,14.607,3.115,1.678,4.237,0,3.561-9.159,5.215-10.558,7.015-2.8,8.85-3.053S-1233.123-132.521-1233.123-132.521Z" transform="translate(-55.83 -26.729)" fill="#3b3e54"/>
    <path id="Trazado_9279" data-name="Trazado 9279" d="M-1231.572-164.07s4.551-2.405,6.2-2.13-3.053,5.872-4.2,5.618S-1231.572-164.07-1231.572-164.07Z" transform="translate(-59.3 -19.021)" fill="#3b3e54"/>
    <path id="Trazado_9280" data-name="Trazado 9280" d="M-1235.245-166.206s3.955-3.3,5.629-3.369-1.771,6.377-2.943,6.366S-1235.245-166.206-1235.245-166.206Z" transform="translate(-58.43 -18.227)" fill="#3b3e54"/>
    <circle id="Elipse_663" data-name="Elipse 663" cx="5.23" cy="5.23" r="5.23" transform="translate(-1434.602 -138.025)" fill="#fff"/>
    <circle id="Elipse_664" data-name="Elipse 664" cx="7.615" cy="7.615" r="7.615" transform="translate(-1414.235 -145.976)" fill="#fff"/>
    <path id="Trazado_9281" data-name="Trazado 9281" d="M-1273.4-90.232a4.9,4.9,0,0,0,4.9-4.9,4.9,4.9,0,0,0,4.9,4.9,4.9,4.9,0,0,0-4.9,4.9A4.9,4.9,0,0,0-1273.4-90.232Z" transform="translate(-49.398 -35.851)" fill="#fff"/>
    <circle id="Elipse_665" data-name="Elipse 665" cx="8.042" cy="8.042" r="8.042" transform="translate(-1216.922 -91.452)" fill="#fff"/>
    <circle id="Elipse_666" data-name="Elipse 666" cx="5.657" cy="5.657" r="5.657" transform="translate(-1194.617 -76.675)" fill="#fff"/>
    <circle id="Elipse_667" data-name="Elipse 667" cx="8.042" cy="8.042" r="8.042" transform="translate(-1463.283 -15.765)" fill="#fff"/>
  </g>
</svg>
