<svg id="Layer_1" data-name="Layer 1" xmlns="http://www.w3.org/2000/svg" width="1397.73" height="535.52" viewBox="0 0 1397.73 535.52">
  <defs>
    <style>
      .cls-1 {
        fill: #006837;
      }

      .cls-2 {
        fill: #f49d56;
      }

      .cls-3 {
        fill: #5cd0d6;
      }

      .cls-4 {
        fill: #b1ecfa;
      }

      .cls-5 {
        fill: #1b66b3;
      }

      .cls-6 {
        fill: #3a3a3a;
      }

      .cls-7 {
        fill: #3f3f3f;
      }

      .cls-8 {
        fill: #3c3c99;
      }

      .cls-9 {
        fill: #71daff;
      }

      .cls-10, .cls-11, .cls-12 {
        fill: #8fe3f9;
      }

      .cls-11 {
        opacity: 0.5;
      }

      .cls-12 {
        opacity: 0.25;
      }

      .cls-13 {
        fill: #4ac8ff;
      }

      .cls-14 {
        fill: #23a7f1;
      }

      .cls-15 {
        fill: #66bb6a;
      }

      .cls-16 {
        fill: #231f20;
      }

      .cls-17 {
        fill: #d4e157;
      }

      .cls-18 {
        fill: #ffee58;
      }

      .cls-19 {
        fill: #ffca28;
      }

      .cls-20 {
        fill: #fa0;
      }
    </style>
  </defs>
  <g>
    <g>
      <polygon class="cls-1" points="249.09 437.52 276.52 437.52 276.52 410.2 276.41 410.2 249.09 437.52"/>
      <g>
        <g>
          <path class="cls-2" d="M458.11,305.45l-10.64.9a1.38,1.38,0,0,0,.23,2.76l10.64-.9A1.38,1.38,0,0,0,458.11,305.45Z" transform="translate(-68.36 -88.43)"/>
          <path class="cls-2" d="M458.62,312.32H447.94a1.39,1.39,0,0,0,0,2.78h10.68A1.39,1.39,0,0,0,458.62,312.32Z" transform="translate(-68.36 -88.43)"/>
          <path class="cls-2" d="M456.12,315.45l-8.86-.08a1.15,1.15,0,0,0,0,2.3l8.86.08A1.15,1.15,0,0,0,456.12,315.45Z" transform="translate(-68.36 -88.43)"/>
          <path class="cls-2" d="M444.56,305.68c.58.51,4.46.53,4.46.53.15,3.33.19,8.36-1.25,11.4,0,0-10.45,1.2-11-1.27h-6.34l.65-9.29c2.23-.2,4.21-.34,5.95-.56,1.57-4.18,7.25-4.57,10.43-6.19,1.57-.8,2.77-1.48,2.77-1.48a1.78,1.78,0,0,1-.16,2.93C448.25,303.33,443.45,304.65,444.56,305.68Z" transform="translate(-68.36 -88.43)"/>
          <path class="cls-2" d="M459.22,308.84l-10.67.48a1.39,1.39,0,0,0,.13,2.78l10.67-.48A1.39,1.39,0,0,0,459.22,308.84Z" transform="translate(-68.36 -88.43)"/>
        </g>
        <polygon class="cls-3" points="312.14 185.59 329.27 221.74 366.72 214.96 369.53 231.48 318.63 244.11 301.82 213.04 312.14 185.59"/>
        <polygon class="cls-2" points="230.42 192.61 202.35 209.52 206.29 218.87 243 199.34 230.42 192.61"/>
        <path class="cls-4" d="M307.41,350.33s28.38-70.73,37.85-80.2L369,258.76l16.4,14.47s-4.6,24.36-8.07,31.48L350.5,360.22Z" transform="translate(-68.36 -88.43)"/>
        <path class="cls-2" d="M283.48,302.37l-8.88,4.9c6.2,6.53-1.64,9.9-3,10.65,0,0-4.5-1.94-2.22-3.2l-3-2.62-4.44-9.3,16.69-9.22Z" transform="translate(-68.36 -88.43)"/>
        <g>
          <path class="cls-2" d="M262.74,314.11l3.64-2c3.08-1.7,5.26,2.86,2.44,4.42l-3.64,2C262.36,320.08,259.66,315.81,262.74,314.11Z" transform="translate(-68.36 -88.43)"/>
          <path class="cls-2" d="M261.09,311.11l3.64-2c3.07-1.7,5.25,2.86,2.43,4.41l-3.63,2C260.7,317.08,258,312.81,261.09,311.11Z" transform="translate(-68.36 -88.43)"/>
          <path class="cls-2" d="M259.43,308.1l3.64-2c3.07-1.7,5.25,2.87,2.44,4.42l-3.64,2C259.05,314.08,256.35,309.8,259.43,308.1Z" transform="translate(-68.36 -88.43)"/>
          <path class="cls-2" d="M257.77,305.1l3.64-2c3.07-1.7,5.26,2.87,2.44,4.42l-3.64,2C257.39,311.08,254.69,306.8,257.77,305.1Z" transform="translate(-68.36 -88.43)"/>
        </g>
        <path class="cls-2" d="M366.87,234.17c.06,8,4.79,14.42,4.74,16.75,0,1.42-2.66,7.84-2.66,7.84l15.17,20,5.08-14.72a25.46,25.46,0,0,0,6.57,4.07s5.27,2.48,7.16-.28a79.45,79.45,0,0,1,5.2-13.39c4.41-.6,5.65-3.12,1.58-8.42C423.11,210.46,366.63,201.78,366.87,234.17Z" transform="translate(-68.36 -88.43)"/>
        <path class="cls-5" d="M306,370.44c.82,1.84-9.27,49.21-9.27,49.21l-73.31,39.47,5.3,17.13s95-37.18,101.65-44.5l10.94-51.63Z" transform="translate(-68.36 -88.43)"/>
        <path class="cls-4" d="M288.3,285.27l22.34-16s15.81-2.22,30.95-3.31c40.36-2.91,32.76,22.2,25.88,22.26l-51.87.66L296,299Z" transform="translate(-68.36 -88.43)"/>
        <path class="cls-6" d="M414.21,236.34,393.83,232a58.85,58.85,0,0,1-22.22,18.88s-10.05-13.37-1.4-28.65c0,0,7.2-13.89,25.64-10.17l-2.14,2.51s-.51-3.9,10.78,1.44C404.49,216.05,416.39,222.47,414.21,236.34Z" transform="translate(-68.36 -88.43)"/>
        <path class="cls-2" d="M386.65,240.75s-1.26-4.88-5-5c-5-.11-1.12,12.06,1.48,12.21Z" transform="translate(-68.36 -88.43)"/>
        <polygon class="cls-4" points="308.52 180.81 312.32 205.86 315.76 190.36 308.52 180.81"/>
        <path class="cls-7" d="M400.68,464.33a19.73,19.73,0,0,0,5.3,13.08l36.39-10.61s.65-8.38-8.55-6.39l-16.55,1.45-4.51-1.92Z" transform="translate(-68.36 -88.43)"/>
        <path class="cls-7" d="M224.26,461.78s-8.54.65-13.85,6.31l11.93,36s8.39.34,6.07-8.78l-2-16.49,1.75-4.57Z" transform="translate(-68.36 -88.43)"/>
        <path class="cls-8" d="M307.41,350.33c-4.31,8.71-3.83,20.2,3.3,27.23,10.43,10.29,77.75,3.87,77.75,3.87s4.2,64.22,9.62,85.15l20.23-6.64S415,358.85,407.44,354.05Z" transform="translate(-68.36 -88.43)"/>
      </g>
      <polygon class="cls-9" points="741.2 147.35 712.39 175.39 708.21 171.09 720.48 159.15 684.51 159.15 684.51 135.55 720.48 135.55 708.21 123.61 712.39 119.31 741.2 147.35"/>
      <polygon class="cls-10" points="841.2 147.35 812.39 175.39 808.21 171.09 820.48 159.15 784.51 159.15 784.51 135.55 820.48 135.55 808.21 123.61 812.39 119.31 841.2 147.35"/>
      <polygon class="cls-10" points="934.8 147.35 905.99 175.39 901.81 171.09 914.08 159.15 878.11 159.15 878.11 135.55 914.08 135.55 901.81 123.61 905.99 119.31 934.8 147.35"/>
      <polygon class="cls-11" points="1028.39 147.35 999.59 175.39 995.41 171.09 1007.68 159.15 971.71 159.15 971.71 135.55 1007.68 135.55 995.41 123.61 999.59 119.31 1028.39 147.35"/>
      <polygon class="cls-12" points="1132.5 147.35 1103.69 175.39 1099.51 171.09 1111.78 159.15 1075.81 159.15 1075.81 135.55 1111.78 135.55 1099.51 123.61 1103.69 119.31 1132.5 147.35"/>
      <polygon class="cls-13" points="641.2 147.35 612.39 175.39 608.21 171.09 620.48 159.15 584.51 159.15 584.51 135.55 620.48 135.55 608.21 123.61 612.39 119.31 641.2 147.35"/>
      <polygon class="cls-14" points="541.2 147.35 512.4 175.39 508.21 171.09 520.48 159.15 484.51 159.15 484.51 135.55 520.48 135.55 508.21 123.61 512.4 119.31 541.2 147.35"/>
      <polygon class="cls-1" points="18.13 472.19 277.16 472.19 277.16 453.52 0 453.52 0 535.52 18.13 535.52 18.13 472.19"/>
      <polygon class="cls-15" points="308.71 428.87 509.88 428.87 509.88 410.2 290.58 410.2 290.58 492.2 308.71 492.2 308.71 428.87"/>
      <g>
        <path class="cls-16" d="M118.21,598.11,117,594.65h-7l-1.21,3.46h-3.56l6.17-16.76h4.25l6.17,16.76ZM111,591.74h5l-2.49-7.11Z" transform="translate(-68.36 -88.43)"/>
        <path class="cls-16" d="M131.75,586.19h3.34v11.92h-3.17l-.08-1.44a4.56,4.56,0,0,1-3.79,1.67,4.7,4.7,0,0,1-3.3-1.07,4,4,0,0,1-1.14-3.06v-8H127v7.3a2.09,2.09,0,0,0,.59,1.64,2.27,2.27,0,0,0,1.55.52A2.7,2.7,0,0,0,131,595a2.93,2.93,0,0,0,.75-2.21Z" transform="translate(-68.36 -88.43)"/>
        <path class="cls-16" d="M143,598.11a3.58,3.58,0,0,1-2.69-1,3.73,3.73,0,0,1-1-2.75v-5.64H137v-2.56h.76a2,2,0,0,0,1.48-.5,2.56,2.56,0,0,0,.48-1.78v-1.57h3v3.85h2.46v2.56h-2.46V594c0,1,.46,1.54,1.38,1.54h1.08v2.54Z" transform="translate(-68.36 -88.43)"/>
        <path class="cls-16" d="M153.29,598.34a7.47,7.47,0,0,1-3.38-.73,5.45,5.45,0,0,1-2.31-2.15,6.37,6.37,0,0,1-.84-3.32,5.87,5.87,0,0,1,1.8-4.53,7.57,7.57,0,0,1,9.46,0,6.59,6.59,0,0,1,0,9.07A6.73,6.73,0,0,1,153.29,598.34Zm0-2.65a3.06,3.06,0,0,0,2.36-1,4.13,4.13,0,0,0,0-5.15,3,3,0,0,0-2.36-1,2.93,2.93,0,0,0-2.29,1,4.14,4.14,0,0,0,0,5.13A2.94,2.94,0,0,0,153.25,595.69Z" transform="translate(-68.36 -88.43)"/>
        <path class="cls-16" d="M167.7,598.33a6.34,6.34,0,0,1-4.6-1.72,6.5,6.5,0,0,1,0-9,7.06,7.06,0,0,1,8.47-.56,5.15,5.15,0,0,1,2,3.24l-3.09.33a2.64,2.64,0,0,0-1-1.56,3,3,0,0,0-1.81-.52,2.72,2.72,0,0,0-2.18,1,4.35,4.35,0,0,0,0,5.14,2.7,2.7,0,0,0,2.18,1,3,3,0,0,0,1.8-.53,2.67,2.67,0,0,0,1-1.56l3.09.33a5.16,5.16,0,0,1-2,3.24A6.37,6.37,0,0,1,167.7,598.33Z" transform="translate(-68.36 -88.43)"/>
        <path class="cls-16" d="M181.49,598.34a7.43,7.43,0,0,1-3.37-.73,5.47,5.47,0,0,1-2.32-2.15,6.37,6.37,0,0,1-.84-3.32,5.87,5.87,0,0,1,1.81-4.53,7.55,7.55,0,0,1,9.45,0,6.59,6.59,0,0,1,0,9.07A6.69,6.69,0,0,1,181.49,598.34Zm0-2.65a3.07,3.07,0,0,0,2.36-1,4.13,4.13,0,0,0,0-5.15,3.06,3.06,0,0,0-2.36-1,2.92,2.92,0,0,0-2.29,1,4.14,4.14,0,0,0,0,5.13A2.92,2.92,0,0,0,181.46,595.69Z" transform="translate(-68.36 -88.43)"/>
        <path class="cls-16" d="M197.56,586a4.61,4.61,0,0,1,3.29,1.08,3.94,3.94,0,0,1,1.15,3.05v8h-3.35V590.8a2,2,0,0,0-.6-1.64,2.25,2.25,0,0,0-1.54-.53,3.12,3.12,0,0,0-1,.15,2.59,2.59,0,0,0-.84.47,2.19,2.19,0,0,0-.6.9,4.08,4.08,0,0,0-.22,1.38v6.58h-3.34V586.19h3.34v1.32A4.58,4.58,0,0,1,197.56,586Z" transform="translate(-68.36 -88.43)"/>
        <path class="cls-16" d="M210.79,598.34a7.5,7.5,0,0,1-3.38-.73,5.45,5.45,0,0,1-2.31-2.15,6.37,6.37,0,0,1-.84-3.32,5.84,5.84,0,0,1,1.81-4.53,7.55,7.55,0,0,1,9.45,0,6.59,6.59,0,0,1,0,9.07A6.69,6.69,0,0,1,210.79,598.34Zm0-2.65a3.08,3.08,0,0,0,2.37-1,4.17,4.17,0,0,0,0-5.15,3.07,3.07,0,0,0-2.37-1,3,3,0,0,0-2.29,1,4.18,4.18,0,0,0,0,5.13A3,3,0,0,0,210.75,595.69Z" transform="translate(-68.36 -88.43)"/>
        <path class="cls-16" d="M225.21,598.33a6.36,6.36,0,0,1-4.61-1.72,6.52,6.52,0,0,1,0-9,7.06,7.06,0,0,1,8.47-.56,5.14,5.14,0,0,1,2,3.24l-3.08.33a2.65,2.65,0,0,0-1-1.56,3,3,0,0,0-1.81-.52,2.73,2.73,0,0,0-2.18,1,4.39,4.39,0,0,0,0,5.14,2.72,2.72,0,0,0,2.18,1,3,3,0,0,0,1.81-.53,2.72,2.72,0,0,0,1-1.56l3.08.33a5.08,5.08,0,0,1-2,3.24A6.34,6.34,0,0,1,225.21,598.33Z" transform="translate(-68.36 -88.43)"/>
        <path class="cls-16" d="M235.15,584.4a1.89,1.89,0,0,1-1.37-.56,1.91,1.91,0,0,1,0-2.72,1.92,1.92,0,0,1,1.37-.56,1.87,1.87,0,0,1,1.34.56,1.91,1.91,0,0,1,0,2.72A1.87,1.87,0,0,1,235.15,584.4Zm-1.71,13.71V586.19h3.36v11.92Z" transform="translate(-68.36 -88.43)"/>
        <path class="cls-16" d="M254.39,586a4.57,4.57,0,0,1,3.07,1,3.47,3.47,0,0,1,1.13,2.78v8.41h-3.34v-7.46a2,2,0,0,0-.54-1.51,1.85,1.85,0,0,0-1.34-.51,2.18,2.18,0,0,0-1.63.65,3,3,0,0,0-.62,2.1v6.73h-3.38v-7.42a2.07,2.07,0,0,0-.53-1.54,1.94,1.94,0,0,0-1.38-.52,2.06,2.06,0,0,0-1.61.69,3.24,3.24,0,0,0-.63,2.24v6.55h-3.33V586.19h3.33v1.4a4.05,4.05,0,0,1,3.46-1.64,5.17,5.17,0,0,1,2.24.46,3.09,3.09,0,0,1,1.41,1.33A4.21,4.21,0,0,1,254.39,586Z" transform="translate(-68.36 -88.43)"/>
        <path class="cls-16" d="M263.54,584.4a1.89,1.89,0,0,1-1.37-.56,1.86,1.86,0,0,1-.57-1.37,1.82,1.82,0,0,1,.58-1.35,1.88,1.88,0,0,1,1.36-.56,1.92,1.92,0,0,1,0,3.84Zm-1.71,13.71V586.19h3.37v11.92Z" transform="translate(-68.36 -88.43)"/>
        <path class="cls-16" d="M279.87,592l0,.8H271A3,3,0,0,0,272,595a3.25,3.25,0,0,0,3.67.35,2.58,2.58,0,0,0,1-1.2l3.06.45a5.17,5.17,0,0,1-2.08,2.79,6.2,6.2,0,0,1-3.53,1,6.48,6.48,0,0,1-4.65-1.64,6.86,6.86,0,0,1,0-9.1,6.26,6.26,0,0,1,4.54-1.67,5.45,5.45,0,0,1,5.9,6ZM274,588.3a2.63,2.63,0,0,0-2.9,2.29h5.47a2.49,2.49,0,0,0-.82-1.7A2.58,2.58,0,0,0,274,588.3Z" transform="translate(-68.36 -88.43)"/>
        <path class="cls-16" d="M289.45,586a4.61,4.61,0,0,1,3.29,1.08,3.94,3.94,0,0,1,1.15,3.05v8h-3.35V590.8a2,2,0,0,0-.6-1.64,2.24,2.24,0,0,0-1.53-.53,3.13,3.13,0,0,0-1,.15,2.69,2.69,0,0,0-.84.47,2.18,2.18,0,0,0-.59.9,4.06,4.06,0,0,0-.23,1.38v6.58h-3.34V586.19h3.34v1.32A4.58,4.58,0,0,1,289.45,586Z" transform="translate(-68.36 -88.43)"/>
        <path class="cls-16" d="M301.57,598.11a3.58,3.58,0,0,1-2.69-1,3.72,3.72,0,0,1-.95-2.75v-5.64h-2.35v-2.56h.76a2,2,0,0,0,1.48-.5,2.56,2.56,0,0,0,.48-1.78v-1.57h3v3.85h2.46v2.56h-2.46V594c0,1,.46,1.54,1.38,1.54h1.08v2.54Z" transform="translate(-68.36 -88.43)"/>
        <path class="cls-16" d="M311.87,598.34a7.5,7.5,0,0,1-3.38-.73,5.45,5.45,0,0,1-2.31-2.15,6.37,6.37,0,0,1-.84-3.32,5.84,5.84,0,0,1,1.81-4.53,7.55,7.55,0,0,1,9.45,0,6.59,6.59,0,0,1,0,9.07A6.71,6.71,0,0,1,311.87,598.34Zm0-2.65a3.06,3.06,0,0,0,2.36-1,4.13,4.13,0,0,0,0-5.15,3,3,0,0,0-2.36-1,2.93,2.93,0,0,0-2.29,1,4.18,4.18,0,0,0,0,5.13A2.94,2.94,0,0,0,311.83,595.69Z" transform="translate(-68.36 -88.43)"/>
      </g>
      <g>
        <path class="cls-16" d="M408.43,556.33l-1.21-3.46h-7L399,556.33H395.4l6.17-16.76h4.26L412,556.33ZM401.2,550h5l-2.5-7.11Z" transform="translate(-68.36 -88.43)"/>
        <path class="cls-16" d="M422,544.41h3.34v11.92h-3.17l-.08-1.44a4.52,4.52,0,0,1-3.79,1.67,4.65,4.65,0,0,1-3.29-1.07,4,4,0,0,1-1.15-3.06v-8h3.35v7.3a2.06,2.06,0,0,0,.6,1.64,2.25,2.25,0,0,0,1.55.52,2.64,2.64,0,0,0,1.89-.68A2.93,2.93,0,0,0,422,551Z" transform="translate(-68.36 -88.43)"/>
        <path class="cls-16" d="M433.21,556.33a3.58,3.58,0,0,1-2.69-1,3.72,3.72,0,0,1-.95-2.75V547h-2.35v-2.56H428a2,2,0,0,0,1.48-.5,2.55,2.55,0,0,0,.48-1.78v-1.57h3v3.85h2.46V547H433v5.28c0,1,.46,1.54,1.38,1.54h1.08v2.54Z" transform="translate(-68.36 -88.43)"/>
        <path class="cls-16" d="M443.51,556.56a7.47,7.47,0,0,1-3.38-.73,5.49,5.49,0,0,1-2.31-2.14,6.44,6.44,0,0,1-.84-3.33,5.84,5.84,0,0,1,1.81-4.53,7.59,7.59,0,0,1,9.45,0,6.59,6.59,0,0,1,0,9.07A6.71,6.71,0,0,1,443.51,556.56Zm0-2.65a3.06,3.06,0,0,0,2.36-1,4.13,4.13,0,0,0,0-5.15,3,3,0,0,0-2.36-1,3,3,0,0,0-2.29,1,4.16,4.16,0,0,0,0,5.14A3,3,0,0,0,443.47,553.91Z" transform="translate(-68.36 -88.43)"/>
        <path class="cls-16" d="M457.92,556.55a6.35,6.35,0,0,1-4.6-1.72,6.5,6.5,0,0,1,0-9,7.12,7.12,0,0,1,8.48-.56,5.14,5.14,0,0,1,2,3.24l-3.08.34a2.65,2.65,0,0,0-1-1.57,3,3,0,0,0-1.81-.52,2.73,2.73,0,0,0-2.18,1,4.37,4.37,0,0,0,0,5.15,2.74,2.74,0,0,0,2.18,1,3,3,0,0,0,1.8-.53,2.65,2.65,0,0,0,1-1.56l3.08.34a5.12,5.12,0,0,1-2,3.23A6.37,6.37,0,0,1,457.92,556.55Z" transform="translate(-68.36 -88.43)"/>
        <path class="cls-16" d="M471.71,556.56a7.46,7.46,0,0,1-3.37-.73,5.49,5.49,0,0,1-2.31-2.14,6.44,6.44,0,0,1-.84-3.33,5.87,5.87,0,0,1,1.8-4.53,7.6,7.6,0,0,1,9.46,0,6.59,6.59,0,0,1,0,9.07A6.73,6.73,0,0,1,471.71,556.56Zm0-2.65a3.07,3.07,0,0,0,2.36-1,4.13,4.13,0,0,0,0-5.15,3.06,3.06,0,0,0-2.36-1,3,3,0,0,0-2.29,1,4.16,4.16,0,0,0,0,5.14A3,3,0,0,0,471.68,553.91Z" transform="translate(-68.36 -88.43)"/>
        <path class="cls-16" d="M487.78,544.18a4.61,4.61,0,0,1,3.29,1.07,3.94,3.94,0,0,1,1.15,3v8h-3.35V549a2.06,2.06,0,0,0-.6-1.64,2.24,2.24,0,0,0-1.54-.52,3.12,3.12,0,0,0-1,.15,2.51,2.51,0,0,0-.84.47,2.18,2.18,0,0,0-.6.89,4.34,4.34,0,0,0-.22,1.38v6.58h-3.34V544.41h3.34v1.32A4.57,4.57,0,0,1,487.78,544.18Z" transform="translate(-68.36 -88.43)"/>
        <path class="cls-16" d="M500.85,556.55a6.38,6.38,0,0,1-4.61-1.72,6.52,6.52,0,0,1,0-9,7.1,7.1,0,0,1,8.47-.56,5.15,5.15,0,0,1,2,3.24l-3.09.34a2.65,2.65,0,0,0-1-1.57,3,3,0,0,0-1.81-.52,2.74,2.74,0,0,0-2.18,1,4.41,4.41,0,0,0,0,5.15,2.75,2.75,0,0,0,2.18,1,3,3,0,0,0,1.81-.53,2.64,2.64,0,0,0,1-1.56l3.09.34a5.14,5.14,0,0,1-2,3.23A6.32,6.32,0,0,1,500.85,556.55Z" transform="translate(-68.36 -88.43)"/>
        <path class="cls-16" d="M520.3,550.2l0,.8h-8.84a3.08,3.08,0,0,0,.95,2.18,3,3,0,0,0,2.1.75,3,3,0,0,0,1.57-.41,2.58,2.58,0,0,0,1-1.2l3.06.45a5.23,5.23,0,0,1-2.08,2.8,6.27,6.27,0,0,1-3.53,1,6.4,6.4,0,0,1-4.64-1.64,6.85,6.85,0,0,1,0-9.1,6.28,6.28,0,0,1,4.54-1.67,5.45,5.45,0,0,1,5.9,6.05Zm-5.88-3.68a2.64,2.64,0,0,0-2.9,2.3H517a2.45,2.45,0,0,0-.82-1.71A2.63,2.63,0,0,0,514.42,546.52Z" transform="translate(-68.36 -88.43)"/>
        <path class="cls-16" d="M529.83,544.18a5.75,5.75,0,0,1,2.23.43,5.26,5.26,0,0,1,3.06,3.17,7.82,7.82,0,0,1,0,5.23,5.38,5.38,0,0,1-1.23,2,5.56,5.56,0,0,1-1.83,1.21,5.75,5.75,0,0,1-2.23.43,5.2,5.2,0,0,1-2.15-.44,3.44,3.44,0,0,1-1.5-1.25v7.21h-3.34V544.41H526l.09,1.6a3.23,3.23,0,0,1,1.49-1.35A5.14,5.14,0,0,1,529.83,544.18Zm-.75,9.66a3,3,0,0,0,2.26-.94,4,4,0,0,0,0-5,3.2,3.2,0,0,0-4.53,0,3.42,3.42,0,0,0-.91,2.49,3.47,3.47,0,0,0,.91,2.5A3,3,0,0,0,529.08,553.84Z" transform="translate(-68.36 -88.43)"/>
        <path class="cls-16" d="M542.53,556.33a3.59,3.59,0,0,1-2.69-1,3.76,3.76,0,0,1-1-2.75V547h-2.34v-2.56h.75a2,2,0,0,0,1.49-.5,2.6,2.6,0,0,0,.47-1.78v-1.57h3v3.85h2.46V547h-2.46v5.28c0,1,.46,1.54,1.38,1.54h1.08v2.54Z" transform="translate(-68.36 -88.43)"/>
        <path class="cls-16" d="M552.83,556.56a7.43,7.43,0,0,1-3.37-.73,5.51,5.51,0,0,1-2.32-2.14,6.44,6.44,0,0,1-.84-3.33,5.87,5.87,0,0,1,1.81-4.53,7.59,7.59,0,0,1,9.45,0,6.59,6.59,0,0,1,0,9.07A6.69,6.69,0,0,1,552.83,556.56Zm0-2.65a3.07,3.07,0,0,0,2.36-1,4.13,4.13,0,0,0,0-5.15,3.06,3.06,0,0,0-2.36-1,3,3,0,0,0-2.29,1,4.16,4.16,0,0,0,0,5.14A3,3,0,0,0,552.8,553.91Z" transform="translate(-68.36 -88.43)"/>
      </g>
      <polygon class="cls-15" points="480.67 396.52 508.1 396.52 508.1 369.2 507.99 369.2 480.67 396.52"/>
      <polygon class="cls-17" points="540.29 387.87 748.25 387.87 748.25 369.2 522.16 369.2 522.16 451.2 540.29 451.2 540.29 387.87"/>
      <g>
        <path class="cls-16" d="M640,515.33l-1.22-3.45h-7l-1.21,3.45H627l6.17-16.76h4.25l6.17,16.76ZM632.78,509h5l-2.49-7.11Z" transform="translate(-68.36 -88.43)"/>
        <path class="cls-16" d="M653.55,503.41h3.34v11.92h-3.17l-.08-1.44a4.53,4.53,0,0,1-3.79,1.68,4.65,4.65,0,0,1-3.3-1.08,4,4,0,0,1-1.14-3.05v-8h3.35v7.31a2,2,0,0,0,.6,1.63,2.23,2.23,0,0,0,1.54.52,2.69,2.69,0,0,0,1.9-.67,2.94,2.94,0,0,0,.75-2.21Z" transform="translate(-68.36 -88.43)"/>
        <path class="cls-16" d="M664.79,515.33a3.58,3.58,0,0,1-2.69-1,3.73,3.73,0,0,1-1-2.75V506H658.8v-2.56h.76a2,2,0,0,0,1.48-.5,2.53,2.53,0,0,0,.48-1.77v-1.58h3v3.85H667V506h-2.46v5.28c0,1,.46,1.54,1.38,1.54H667v2.54Z" transform="translate(-68.36 -88.43)"/>
        <path class="cls-16" d="M675.09,515.57a7.47,7.47,0,0,1-3.38-.74,5.42,5.42,0,0,1-2.31-2.14,6.39,6.39,0,0,1-.84-3.33,5.8,5.8,0,0,1,1.81-4.52,7.55,7.55,0,0,1,9.45,0,6.57,6.57,0,0,1,0,9.06A6.73,6.73,0,0,1,675.09,515.57Zm0-2.66a3.06,3.06,0,0,0,2.36-1,4.12,4.12,0,0,0,0-5.14,3.06,3.06,0,0,0-2.36-1,3,3,0,0,0-2.29,1,4.16,4.16,0,0,0,0,5.14A3,3,0,0,0,675.05,512.91Z" transform="translate(-68.36 -88.43)"/>
        <path class="cls-16" d="M691.39,503.41h3.54l-5.08,11.92H687l-5-11.92h3.51l3,8.15Z" transform="translate(-68.36 -88.43)"/>
        <path class="cls-16" d="M706,512.1a11.27,11.27,0,0,0,.29,2.91v.32h-3.12l-.26-1.3a3.92,3.92,0,0,1-1.67,1.15,6.08,6.08,0,0,1-2.16.39,5.57,5.57,0,0,1-1.11-.11,4,4,0,0,1-1-.35,3.46,3.46,0,0,1-.83-.62,2.83,2.83,0,0,1-.55-1,3.71,3.71,0,0,1-.21-1.29,3.58,3.58,0,0,1,.22-1.3,2.86,2.86,0,0,1,.58-1,3.36,3.36,0,0,1,.94-.71,6.78,6.78,0,0,1,1.18-.51,12.5,12.5,0,0,1,1.42-.37l2-.44a2.15,2.15,0,0,0,.88-.38.73.73,0,0,0,.26-.6,1.24,1.24,0,0,0-.58-1.15,2.77,2.77,0,0,0-1.42-.34,2,2,0,0,0-2.33,1.82l-3-.54a4,4,0,0,1,1.73-2.72,6.88,6.88,0,0,1,3.74-.87q5,0,5,4.3Zm-5.88,1.2a2.68,2.68,0,0,0,2.07-.86,3.67,3.67,0,0,0,.8-2.56l-2.83.8a3.43,3.43,0,0,0-1.19.49,1,1,0,0,0-.41.86,1.08,1.08,0,0,0,.44.94A1.82,1.82,0,0,0,700.1,513.3Z" transform="translate(-68.36 -88.43)"/>
        <path class="cls-16" d="M709.23,515.33V497.52h3.38v17.81Z" transform="translate(-68.36 -88.43)"/>
        <path class="cls-16" d="M721.62,515.57a7.5,7.5,0,0,1-3.38-.74,5.42,5.42,0,0,1-2.31-2.14,6.39,6.39,0,0,1-.84-3.33,5.8,5.8,0,0,1,1.81-4.52,7.55,7.55,0,0,1,9.45,0,6.57,6.57,0,0,1,0,9.06A6.71,6.71,0,0,1,721.62,515.57Zm0-2.66a3.06,3.06,0,0,0,2.36-1,4.12,4.12,0,0,0,0-5.14,3.06,3.06,0,0,0-2.36-1,3,3,0,0,0-2.29,1,4.19,4.19,0,0,0,0,5.14A3,3,0,0,0,721.58,512.91Z" transform="translate(-68.36 -88.43)"/>
        <path class="cls-16" d="M733.84,505.3a3.87,3.87,0,0,1,1.57-1.43,4.76,4.76,0,0,1,2.33-.6v3a4.5,4.5,0,0,0-2.85.72,3.13,3.13,0,0,0-.88,2.55v5.81h-3.37V503.41h3.2Z" transform="translate(-68.36 -88.43)"/>
        <path class="cls-16" d="M749.41,512.1a10.84,10.84,0,0,0,.29,2.91v.32h-3.12l-.27-1.3a3.8,3.8,0,0,1-1.67,1.15,6.08,6.08,0,0,1-2.16.39,5.65,5.65,0,0,1-1.11-.11,4,4,0,0,1-1-.35,3.27,3.27,0,0,1-.83-.62,2.85,2.85,0,0,1-.56-1,3.71,3.71,0,0,1-.21-1.29A3.81,3.81,0,0,1,739,511a3,3,0,0,1,.58-1,3.36,3.36,0,0,1,.94-.71,7.13,7.13,0,0,1,1.18-.51,13.73,13.73,0,0,1,1.42-.37l2-.44a2.2,2.2,0,0,0,.89-.38.76.76,0,0,0,.26-.6,1.25,1.25,0,0,0-.59-1.15,2.74,2.74,0,0,0-1.42-.34,2,2,0,0,0-2.33,1.82l-3-.54a4,4,0,0,1,1.73-2.72,6.91,6.91,0,0,1,3.75-.87q5,0,5,4.3Zm-5.88,1.2a2.66,2.66,0,0,0,2.06-.86,3.62,3.62,0,0,0,.8-2.56l-2.83.8a3.52,3.52,0,0,0-1.19.49,1,1,0,0,0-.41.86,1.11,1.11,0,0,0,.44.94A1.85,1.85,0,0,0,743.53,513.3Z" transform="translate(-68.36 -88.43)"/>
        <path class="cls-16" d="M757.78,515.55a6.37,6.37,0,0,1-4.6-1.71,6.51,6.51,0,0,1,0-9,6.43,6.43,0,0,1,4.61-1.7,6.31,6.31,0,0,1,3.86,1.15,5.1,5.1,0,0,1,2,3.23l-3.09.34a2.64,2.64,0,0,0-1-1.57,3,3,0,0,0-1.81-.52,2.72,2.72,0,0,0-2.18,1,4.35,4.35,0,0,0,0,5.14,2.72,2.72,0,0,0,2.18,1,3,3,0,0,0,1.8-.52,2.69,2.69,0,0,0,1-1.57l3.09.34a5.17,5.17,0,0,1-2,3.23A6.3,6.3,0,0,1,757.78,515.55Z" transform="translate(-68.36 -88.43)"/>
        <path class="cls-16" d="M767.72,501.62a1.86,1.86,0,0,1-1.37-.56,1.88,1.88,0,0,1,0-2.71,1.86,1.86,0,0,1,1.36-.56,1.84,1.84,0,0,1,1.35.56,1.81,1.81,0,0,1,.57,1.35,1.93,1.93,0,0,1-1.92,1.92ZM766,515.33V503.41h3.36v11.92Z" transform="translate(-68.36 -88.43)"/>
        <path class="cls-16" d="M778.39,515.57a7.43,7.43,0,0,1-3.37-.74,5.39,5.39,0,0,1-2.32-2.14,6.39,6.39,0,0,1-.84-3.33,5.84,5.84,0,0,1,1.81-4.52,7.55,7.55,0,0,1,9.45,0,6.57,6.57,0,0,1,0,9.06A6.7,6.7,0,0,1,778.39,515.57Zm0-2.66a3.07,3.07,0,0,0,2.36-1,4.12,4.12,0,0,0,0-5.14,3.07,3.07,0,0,0-2.36-1,3,3,0,0,0-2.29,1,4.16,4.16,0,0,0,0,5.14A3,3,0,0,0,778.36,512.91Zm-1-11.12,3-4.27,1.65,1.16-2.64,3.11Z" transform="translate(-68.36 -88.43)"/>
        <path class="cls-16" d="M794.46,503.18a4.67,4.67,0,0,1,3.29,1.07,4,4,0,0,1,1.15,3.06v8h-3.35V508a2.08,2.08,0,0,0-.6-1.65,2.24,2.24,0,0,0-1.54-.52,3.22,3.22,0,0,0-1,.15,2.54,2.54,0,0,0-.83.47,2,2,0,0,0-.6.9,4,4,0,0,0-.22,1.38v6.57h-3.34V503.41h3.34v1.32A4.6,4.6,0,0,1,794.46,503.18Z" transform="translate(-68.36 -88.43)"/>
      </g>
      <polygon class="cls-17" points="720.67 355.52 748.1 355.52 748.1 328.2 747.99 328.2 720.67 355.52"/>
      <polygon class="cls-18" points="780.29 346.87 992.99 346.87 992.99 328.2 762.16 328.2 762.16 410.2 780.29 410.2 780.29 346.87"/>
      <g>
        <path class="cls-16" d="M880,474.33l-1.21-3.45h-7l-1.22,3.45H867l6.17-16.76h4.25l6.17,16.76ZM872.78,468h5l-2.49-7.11Z" transform="translate(-68.36 -88.43)"/>
        <path class="cls-16" d="M893.55,462.41h3.34v11.92h-3.17l-.08-1.43a4.55,4.55,0,0,1-3.79,1.67,4.65,4.65,0,0,1-3.3-1.08,4,4,0,0,1-1.14-3.05v-8h3.35v7.31a2,2,0,0,0,.6,1.63,2.23,2.23,0,0,0,1.54.52,2.69,2.69,0,0,0,1.9-.67,2.94,2.94,0,0,0,.75-2.21Z" transform="translate(-68.36 -88.43)"/>
        <path class="cls-16" d="M904.79,474.33a3.61,3.61,0,0,1-2.69-1,3.76,3.76,0,0,1-1-2.76V465H898.8v-2.56h.76a1.94,1.94,0,0,0,1.48-.5,2.53,2.53,0,0,0,.48-1.77v-1.58h3v3.85H907V465h-2.46v5.28c0,1,.46,1.54,1.38,1.54H907v2.54Z" transform="translate(-68.36 -88.43)"/>
        <path class="cls-16" d="M915.09,474.57a7.47,7.47,0,0,1-3.38-.74,5.42,5.42,0,0,1-2.31-2.14,6.39,6.39,0,0,1-.84-3.33,5.8,5.8,0,0,1,1.81-4.52,7.55,7.55,0,0,1,9.45,0,6.57,6.57,0,0,1,0,9.06A6.73,6.73,0,0,1,915.09,474.57Zm0-2.66a3.08,3.08,0,0,0,2.36-1,4.13,4.13,0,0,0,0-5.15,3.06,3.06,0,0,0-2.36-1,3,3,0,0,0-2.29,1,4.16,4.16,0,0,0,0,5.14A3,3,0,0,0,915.05,471.91Z" transform="translate(-68.36 -88.43)"/>
        <path class="cls-16" d="M933.89,471.1a10.84,10.84,0,0,0,.29,2.91v.32h-3.12l-.27-1.29a3.92,3.92,0,0,1-1.67,1.14,6.08,6.08,0,0,1-2.16.39,5.65,5.65,0,0,1-1.11-.11,4,4,0,0,1-1-.35,3.11,3.11,0,0,1-.83-.62,2.69,2.69,0,0,1-.56-.95,3.71,3.71,0,0,1-.21-1.29,3.49,3.49,0,0,1,.22-1.29,3,3,0,0,1,.58-1,3.36,3.36,0,0,1,.94-.71,7.13,7.13,0,0,1,1.18-.51,13.73,13.73,0,0,1,1.42-.37l2-.44a2.2,2.2,0,0,0,.89-.38.76.76,0,0,0,.26-.6,1.25,1.25,0,0,0-.59-1.15,2.74,2.74,0,0,0-1.42-.34,2,2,0,0,0-2.33,1.82l-3-.54a4,4,0,0,1,1.73-2.72,6.89,6.89,0,0,1,3.75-.87q5,0,5,4.3ZM928,472.3a2.66,2.66,0,0,0,2.06-.86,3.62,3.62,0,0,0,.8-2.56l-2.83.8a3.52,3.52,0,0,0-1.19.49,1,1,0,0,0-.41.86,1.11,1.11,0,0,0,.44.94A1.85,1.85,0,0,0,928,472.3Z" transform="translate(-68.36 -88.43)"/>
        <path class="cls-16" d="M942.26,474.55a6.37,6.37,0,0,1-4.6-1.71,6.51,6.51,0,0,1,0-9,6.41,6.41,0,0,1,4.61-1.7,6.31,6.31,0,0,1,3.86,1.15,5.1,5.1,0,0,1,2,3.23l-3.09.34a2.64,2.64,0,0,0-1-1.57,3.12,3.12,0,0,0-1.81-.52,2.72,2.72,0,0,0-2.18,1,4.35,4.35,0,0,0,0,5.14,2.72,2.72,0,0,0,2.18,1,3,3,0,0,0,1.8-.52,2.69,2.69,0,0,0,1-1.57l3.09.34a5.17,5.17,0,0,1-2,3.23A6.3,6.3,0,0,1,942.26,474.55Z" transform="translate(-68.36 -88.43)"/>
        <path class="cls-16" d="M961.71,468.2l0,.8h-8.84a3.1,3.1,0,0,0,.95,2.18,3,3,0,0,0,2.1.75,2.87,2.87,0,0,0,1.57-.41,2.49,2.49,0,0,0,1-1.2l3.07.45a5.25,5.25,0,0,1-2.09,2.8,6.25,6.25,0,0,1-3.53,1,6.41,6.41,0,0,1-4.64-1.65,6,6,0,0,1-1.73-4.55,6,6,0,0,1,1.73-4.55,6.27,6.27,0,0,1,4.54-1.66,5.44,5.44,0,0,1,5.9,6Zm-5.88-3.68a2.65,2.65,0,0,0-2.9,2.3h5.48a2.54,2.54,0,0,0-.83-1.71A2.63,2.63,0,0,0,955.83,464.52Z" transform="translate(-68.36 -88.43)"/>
        <path class="cls-16" d="M971.24,462.18a5.72,5.72,0,0,1,2.23.43,5.26,5.26,0,0,1,3.06,3.17,7.66,7.66,0,0,1,0,5.23,5.51,5.51,0,0,1-1.23,2,5.39,5.39,0,0,1-1.83,1.2,5.72,5.72,0,0,1-2.23.43,5.07,5.07,0,0,1-2.15-.44,3.38,3.38,0,0,1-1.5-1.25v7.21h-3.34V462.41h3.17l.09,1.6a3.28,3.28,0,0,1,1.49-1.35A5.14,5.14,0,0,1,971.24,462.18Zm-.75,9.66a3,3,0,0,0,2.26-.93,4,4,0,0,0,0-5,3.2,3.2,0,0,0-4.53,0,3.88,3.88,0,0,0,0,5A3,3,0,0,0,970.49,471.84Z" transform="translate(-68.36 -88.43)"/>
        <path class="cls-16" d="M983.94,474.33a3.63,3.63,0,0,1-2.69-1,3.81,3.81,0,0,1-1-2.76V465H978v-2.56h.75a2,2,0,0,0,1.49-.5,2.54,2.54,0,0,0,.47-1.77v-1.58h3v3.85h2.46V465h-2.46v5.28c0,1,.46,1.54,1.38,1.54h1.08v2.54Z" transform="translate(-68.36 -88.43)"/>
        <path class="cls-16" d="M998.47,471.1a10.84,10.84,0,0,0,.29,2.91v.32h-3.12l-.27-1.29a3.92,3.92,0,0,1-1.67,1.14,6.08,6.08,0,0,1-2.16.39,5.65,5.65,0,0,1-1.11-.11,4,4,0,0,1-1-.35,3.11,3.11,0,0,1-.83-.62,2.69,2.69,0,0,1-.56-.95,3.71,3.71,0,0,1-.21-1.29,3.49,3.49,0,0,1,.22-1.29,3,3,0,0,1,.58-1,3.36,3.36,0,0,1,.94-.71,7.13,7.13,0,0,1,1.18-.51,13.73,13.73,0,0,1,1.42-.37l2-.44a2.2,2.2,0,0,0,.89-.38.76.76,0,0,0,.26-.6,1.25,1.25,0,0,0-.59-1.15,2.74,2.74,0,0,0-1.42-.34,2,2,0,0,0-2.33,1.82l-3-.54a4,4,0,0,1,1.73-2.72,6.89,6.89,0,0,1,3.75-.87q5,0,5,4.3Zm-5.88,1.2a2.66,2.66,0,0,0,2.06-.86,3.67,3.67,0,0,0,.8-2.56l-2.83.8a3.52,3.52,0,0,0-1.19.49,1,1,0,0,0-.41.86,1.11,1.11,0,0,0,.44.94A1.83,1.83,0,0,0,992.59,472.3Z" transform="translate(-68.36 -88.43)"/>
        <path class="cls-16" d="M1006.84,474.55a6.41,6.41,0,0,1-4.61-1.71,6.53,6.53,0,0,1,0-9,6.41,6.41,0,0,1,4.61-1.7,6.31,6.31,0,0,1,3.86,1.15,5.1,5.1,0,0,1,2,3.23l-3.09.34a2.65,2.65,0,0,0-1-1.57,3.06,3.06,0,0,0-1.8-.52,2.76,2.76,0,0,0-2.19,1,4.39,4.39,0,0,0,0,5.14,2.76,2.76,0,0,0,2.19,1,3,3,0,0,0,1.8-.52,2.69,2.69,0,0,0,1-1.57l3.09.34a5.17,5.17,0,0,1-2,3.23A6.3,6.3,0,0,1,1006.84,474.55Z" transform="translate(-68.36 -88.43)"/>
        <path class="cls-16" d="M1016.78,460.62a1.86,1.86,0,0,1-1.37-.56,1.84,1.84,0,0,1-.57-1.36,1.79,1.79,0,0,1,.58-1.35,1.84,1.84,0,0,1,1.36-.56,1.93,1.93,0,0,1,1.91,1.91,1.84,1.84,0,0,1-.57,1.36A1.8,1.8,0,0,1,1016.78,460.62Zm-1.71,13.71V462.41h3.37v11.92Z" transform="translate(-68.36 -88.43)"/>
        <path class="cls-16" d="M1027.45,474.57a7.5,7.5,0,0,1-3.38-.74,5.42,5.42,0,0,1-2.31-2.14,6.39,6.39,0,0,1-.84-3.33,5.8,5.8,0,0,1,1.81-4.52,7.55,7.55,0,0,1,9.45,0,6.57,6.57,0,0,1,0,9.06A6.7,6.7,0,0,1,1027.45,474.57Zm0-2.66a3.1,3.1,0,0,0,2.36-1,4.17,4.17,0,0,0,0-5.15,3.07,3.07,0,0,0-2.36-1,3,3,0,0,0-2.3,1,4.19,4.19,0,0,0,0,5.14A3,3,0,0,0,1027.42,471.91Zm-1-11.12,3-4.27,1.64,1.16-2.63,3.11Z" transform="translate(-68.36 -88.43)"/>
        <path class="cls-16" d="M1043.51,462.18a4.7,4.7,0,0,1,3.3,1.07,4,4,0,0,1,1.15,3.06v8h-3.36V467a2.11,2.11,0,0,0-.59-1.65,2.24,2.24,0,0,0-1.54-.52,3.18,3.18,0,0,0-1,.15,2.54,2.54,0,0,0-.83.47,2,2,0,0,0-.6.9,4.23,4.23,0,0,0-.23,1.38v6.57h-3.34V462.41h3.34v1.32A4.62,4.62,0,0,1,1043.51,462.18Z" transform="translate(-68.36 -88.43)"/>
      </g>
      <polygon class="cls-18" points="965.83 314.52 993.26 314.52 993.26 287.2 993.15 287.2 965.83 314.52"/>
      <polygon class="cls-19" points="1025.45 305.87 1200.99 305.87 1200.99 287.2 1007.32 287.2 1007.32 369.2 1025.45 369.2 1025.45 305.87"/>
      <g>
        <path class="cls-16" d="M1125.17,433.33l-1.21-3.45h-7l-1.22,3.45h-3.56l6.17-16.75h4.25l6.17,16.75Zm-7.23-6.36h5l-2.5-7.11Z" transform="translate(-68.36 -88.43)"/>
        <path class="cls-16" d="M1138.71,421.41h3.34v11.92h-3.17l-.08-1.43a4.55,4.55,0,0,1-3.79,1.67,4.61,4.61,0,0,1-3.29-1.08,3.94,3.94,0,0,1-1.15-3.05v-8h3.35v7.31a2,2,0,0,0,.6,1.63,2.23,2.23,0,0,0,1.54.53,2.7,2.7,0,0,0,1.9-.68,2.93,2.93,0,0,0,.75-2.21Z" transform="translate(-68.36 -88.43)"/>
        <path class="cls-16" d="M1150,433.33a3.61,3.61,0,0,1-2.69-1,3.76,3.76,0,0,1-1-2.76V424H1144v-2.57h.76a1.94,1.94,0,0,0,1.48-.5,2.53,2.53,0,0,0,.48-1.77v-1.58h3v3.85h2.46V424h-2.46v5.27c0,1,.46,1.54,1.38,1.54h1.08v2.54Z" transform="translate(-68.36 -88.43)"/>
        <path class="cls-16" d="M1160.25,433.57a7.6,7.6,0,0,1-3.38-.73,5.51,5.51,0,0,1-2.31-2.15,6.39,6.39,0,0,1-.84-3.33,5.8,5.8,0,0,1,1.81-4.52,7.55,7.55,0,0,1,9.45,0,6.57,6.57,0,0,1,0,9.06A6.71,6.71,0,0,1,1160.25,433.57Zm0-2.66a3,3,0,0,0,2.36-1,4.13,4.13,0,0,0,0-5.15,3.06,3.06,0,0,0-2.36-1,3,3,0,0,0-2.29,1,4.16,4.16,0,0,0,0,5.14A3,3,0,0,0,1160.21,430.91Z" transform="translate(-68.36 -88.43)"/>
        <path class="cls-16" d="M1172.47,423.3a3.94,3.94,0,0,1,1.57-1.43,4.73,4.73,0,0,1,2.33-.6v3a4.48,4.48,0,0,0-2.85.72,3.13,3.13,0,0,0-.89,2.55v5.81h-3.36V421.41h3.2Z" transform="translate(-68.36 -88.43)"/>
        <path class="cls-16" d="M1189.48,427.2l0,.8h-8.84a2.9,2.9,0,0,0,3.05,2.93,2.85,2.85,0,0,0,1.57-.41,2.5,2.5,0,0,0,1-1.2l3.06.45a5.2,5.2,0,0,1-2.09,2.8,6.24,6.24,0,0,1-3.52,1,6.48,6.48,0,0,1-4.65-1.64,6.88,6.88,0,0,1,0-9.11,6.25,6.25,0,0,1,4.53-1.66,5.47,5.47,0,0,1,5.91,6Zm-5.88-3.68a2.65,2.65,0,0,0-2.91,2.3h5.48a2.58,2.58,0,0,0-.82-1.71A2.65,2.65,0,0,0,1183.6,423.52Z" transform="translate(-68.36 -88.43)"/>
        <path class="cls-16" d="M1196.21,433.57a6.64,6.64,0,0,1-3.48-.84,3.55,3.55,0,0,1-1.7-2.48l2.79-.79a2.26,2.26,0,0,0,2.39,1.78,2.47,2.47,0,0,0,1.22-.28,1,1,0,0,0,.48-.92,1,1,0,0,0-.2-.61,1.48,1.48,0,0,0-.61-.44,6.8,6.8,0,0,0-.81-.32l-1.06-.3c-.44-.12-.81-.24-1.1-.35a6.65,6.65,0,0,1-1.05-.44,4.49,4.49,0,0,1-.87-.62,2.37,2.37,0,0,1-.65-.93,3.4,3.4,0,0,1-.23-1.28,3.07,3.07,0,0,1,1.29-2.67,5.82,5.82,0,0,1,3.38-.9,5.91,5.91,0,0,1,3.12.77,3.46,3.46,0,0,1,1.61,2.38l-2.59.58a2,2,0,0,0-2.12-1.5,2.36,2.36,0,0,0-1.17.26.91.91,0,0,0-.4,1.15.73.73,0,0,0,.24.29,2.77,2.77,0,0,0,.34.22,2.38,2.38,0,0,0,.48.19,5.07,5.07,0,0,0,.52.15l.61.16.62.16c.42.12.8.24,1.12.35a6.69,6.69,0,0,1,1,.49,3.47,3.47,0,0,1,.9.7,3.17,3.17,0,0,1,.59,1,3.69,3.69,0,0,1,.23,1.32,3.54,3.54,0,0,1-.4,1.73,3,3,0,0,1-1.1,1.17,5.19,5.19,0,0,1-1.55.62A7.67,7.67,0,0,1,1196.21,433.57Z" transform="translate(-68.36 -88.43)"/>
        <path class="cls-16" d="M1210.51,421.18a5.72,5.72,0,0,1,2.23.43,5.56,5.56,0,0,1,1.83,1.21,5.38,5.38,0,0,1,1.23,2,7.66,7.66,0,0,1,0,5.23,5.51,5.51,0,0,1-1.23,2,5.39,5.39,0,0,1-1.83,1.2,5.72,5.72,0,0,1-2.23.43,5.07,5.07,0,0,1-2.15-.44,3.38,3.38,0,0,1-1.5-1.25v7.21h-3.34V421.41h3.17l.09,1.6a3.23,3.23,0,0,1,1.49-1.35A5.14,5.14,0,0,1,1210.51,421.18Zm-.75,9.66a3,3,0,0,0,2.26-.93,4,4,0,0,0,0-5,3.19,3.19,0,0,0-4.53,0,3.88,3.88,0,0,0,0,5A3,3,0,0,0,1209.76,430.84Z" transform="translate(-68.36 -88.43)"/>
        <path class="cls-16" d="M1230,427.2l0,.8h-8.84a3.11,3.11,0,0,0,1,2.18,3,3,0,0,0,2.1.75,2.9,2.9,0,0,0,1.57-.41,2.49,2.49,0,0,0,1-1.2l3.06.45a5.2,5.2,0,0,1-2.09,2.8,6.22,6.22,0,0,1-3.52,1,6.48,6.48,0,0,1-4.65-1.64,6.88,6.88,0,0,1,0-9.11,6.25,6.25,0,0,1,4.53-1.66,5.47,5.47,0,0,1,5.91,6Zm-5.88-3.68a2.64,2.64,0,0,0-2.9,2.3h5.47a2.53,2.53,0,0,0-.82-1.71A2.63,2.63,0,0,0,1224.11,423.52Z" transform="translate(-68.36 -88.43)"/>
        <path class="cls-16" d="M1237,433.33a3.61,3.61,0,0,1-2.69-1,3.81,3.81,0,0,1-1-2.76V424H1231v-2.57h.76a1.92,1.92,0,0,0,1.48-.5,2.53,2.53,0,0,0,.48-1.77v-1.58h3v3.85h2.46V424h-2.46v5.27c0,1,.46,1.54,1.39,1.54h1.07v2.54Z" transform="translate(-68.36 -88.43)"/>
        <path class="cls-16" d="M1247.27,433.57a7.63,7.63,0,0,1-3.38-.73,5.51,5.51,0,0,1-2.31-2.15,6.39,6.39,0,0,1-.84-3.33,5.8,5.8,0,0,1,1.81-4.52,7.55,7.55,0,0,1,9.45,0,6.57,6.57,0,0,1,0,9.06A6.71,6.71,0,0,1,1247.27,433.57Zm0-2.66a3,3,0,0,0,2.36-1,4.13,4.13,0,0,0,0-5.15,3.06,3.06,0,0,0-2.36-1,3,3,0,0,0-2.29,1,4.19,4.19,0,0,0,0,5.14A3,3,0,0,0,1247.23,430.91Z" transform="translate(-68.36 -88.43)"/>
      </g>
      <polygon class="cls-19" points="1172.05 273.53 1199.48 273.53 1199.48 246.2 1199.37 246.2 1172.05 273.53"/>
      <polygon class="cls-20" points="1231.67 264.87 1397.73 264.87 1397.73 246.2 1213.54 246.21 1213.54 328.2 1231.67 328.2 1231.67 264.87"/>
      <g>
        <path class="cls-16" d="M1331.4,392.34l-1.22-3.46h-7l-1.22,3.46h-3.56l6.17-16.76h4.26l6.17,16.76Zm-7.24-6.37h5l-2.5-7.11Z" transform="translate(-68.36 -88.43)"/>
        <path class="cls-16" d="M1344.93,380.41h3.34v11.93h-3.16l-.09-1.44a4.55,4.55,0,0,1-3.79,1.67,4.65,4.65,0,0,1-3.29-1.07,4,4,0,0,1-1.15-3.06v-8h3.35v7.31a2.07,2.07,0,0,0,.6,1.64,2.3,2.3,0,0,0,1.55.52,2.69,2.69,0,0,0,1.89-.68,2.93,2.93,0,0,0,.75-2.21Z" transform="translate(-68.36 -88.43)"/>
        <path class="cls-16" d="M1356.17,392.34a3.62,3.62,0,0,1-2.69-1,3.81,3.81,0,0,1-1-2.76V383h-2.34v-2.57h.75a1.92,1.92,0,0,0,1.48-.5,2.53,2.53,0,0,0,.48-1.77v-1.58h3v3.85h2.46V383h-2.46v5.27c0,1,.46,1.55,1.39,1.55h1.07v2.54Z" transform="translate(-68.36 -88.43)"/>
        <path class="cls-16" d="M1366.47,392.57a7.63,7.63,0,0,1-3.38-.73,5.51,5.51,0,0,1-2.31-2.15,6.39,6.39,0,0,1-.84-3.33,5.82,5.82,0,0,1,1.81-4.52,7.55,7.55,0,0,1,9.45,0,6.57,6.57,0,0,1,0,9.06A6.7,6.7,0,0,1,1366.47,392.57Zm0-2.66a3.06,3.06,0,0,0,2.36-1,4.17,4.17,0,0,0,0-5.15,3.07,3.07,0,0,0-2.36-1,3,3,0,0,0-2.3,1,4.19,4.19,0,0,0,0,5.14A3,3,0,0,0,1366.44,389.91Z" transform="translate(-68.36 -88.43)"/>
        <path class="cls-16" d="M1386.71,386.2l0,.8h-8.83a2.92,2.92,0,0,0,3.05,2.94,2.9,2.9,0,0,0,1.57-.42,2.49,2.49,0,0,0,1-1.2l3.06.46a5.21,5.21,0,0,1-2.08,2.79,6.2,6.2,0,0,1-3.53,1,6.48,6.48,0,0,1-4.65-1.64,6.88,6.88,0,0,1,0-9.11,6.25,6.25,0,0,1,4.54-1.66,5.47,5.47,0,0,1,5.9,6Zm-5.88-3.68a2.64,2.64,0,0,0-2.9,2.3h5.47a2.49,2.49,0,0,0-.82-1.7A2.58,2.58,0,0,0,1380.83,382.52Z" transform="translate(-68.36 -88.43)"/>
        <path class="cls-16" d="M1393.45,392.57a6.64,6.64,0,0,1-3.48-.84,3.51,3.51,0,0,1-1.71-2.48l2.8-.79a2.24,2.24,0,0,0,2.39,1.78,2.36,2.36,0,0,0,1.21-.28.93.93,0,0,0,.48-.92,1,1,0,0,0-.2-.61,1.48,1.48,0,0,0-.61-.44,6.8,6.8,0,0,0-.81-.32l-1.06-.3c-.44-.12-.81-.24-1.1-.35a7.55,7.55,0,0,1-1-.44,4.49,4.49,0,0,1-.87-.62,2.48,2.48,0,0,1-.65-.93,3.4,3.4,0,0,1-.23-1.28,3,3,0,0,1,1.3-2.66,5.72,5.72,0,0,1,3.38-.91,5.91,5.91,0,0,1,3.12.77,3.48,3.48,0,0,1,1.6,2.39l-2.59.58a2,2,0,0,0-2.12-1.51,2.41,2.41,0,0,0-1.17.26.87.87,0,0,0-.47.79,1,1,0,0,0,.07.36.69.69,0,0,0,.25.29,2.7,2.7,0,0,0,.33.22,1.9,1.9,0,0,0,.48.19,5.07,5.07,0,0,0,.52.15l.61.16.62.16c.43.12.8.24,1.12.35a7.24,7.24,0,0,1,1,.49,3.84,3.84,0,0,1,.9.7,3.16,3.16,0,0,1,.58,1,3.49,3.49,0,0,1,.23,1.32,3.54,3.54,0,0,1-.4,1.73,2.93,2.93,0,0,1-1.09,1.17,5.61,5.61,0,0,1-1.55.63A8.35,8.35,0,0,1,1393.45,392.57Z" transform="translate(-68.36 -88.43)"/>
        <path class="cls-16" d="M1405.2,392.34a3.62,3.62,0,0,1-2.69-1,3.77,3.77,0,0,1-1-2.76V383h-2.34v-2.57h.76a1.94,1.94,0,0,0,1.48-.5,2.53,2.53,0,0,0,.48-1.77v-1.58h3v3.85h2.46V383h-2.46v5.27c0,1,.46,1.55,1.38,1.55h1.08v2.54Z" transform="translate(-68.36 -88.43)"/>
        <path class="cls-16" d="M1411.69,378.63a1.87,1.87,0,0,1-1.37-.57,1.82,1.82,0,0,1-.57-1.36,1.86,1.86,0,0,1,.58-1.35,1.9,1.9,0,0,1,1.36-.56,1.87,1.87,0,0,1,1.35.56,1.85,1.85,0,0,1,.57,1.35,1.82,1.82,0,0,1-.57,1.36A1.85,1.85,0,0,1,1411.69,378.63Zm-1.7,13.71V380.41h3.36v11.93Z" transform="translate(-68.36 -88.43)"/>
        <path class="cls-16" d="M1430.93,380.18a4.55,4.55,0,0,1,3.08,1,3.45,3.45,0,0,1,1.12,2.78v8.41h-3.34v-7.46a2,2,0,0,0-.53-1.51,1.89,1.89,0,0,0-1.35-.51,2.17,2.17,0,0,0-1.62.65,2.93,2.93,0,0,0-.63,2.1v6.73h-3.37v-7.43a2,2,0,0,0-.54-1.53,1.86,1.86,0,0,0-1.38-.52,2.11,2.11,0,0,0-1.61.68,3.28,3.28,0,0,0-.63,2.24v6.56h-3.32V380.41h3.32v1.41a4.08,4.08,0,0,1,3.46-1.64,5.08,5.08,0,0,1,2.25.46,3,3,0,0,1,1.4,1.33A4.23,4.23,0,0,1,1430.93,380.18Z" transform="translate(-68.36 -88.43)"/>
        <path class="cls-16" d="M1448.16,389.1a10.84,10.84,0,0,0,.29,2.91v.33h-3.12l-.27-1.3a3.94,3.94,0,0,1-1.67,1.15,6.3,6.3,0,0,1-2.16.38,5.65,5.65,0,0,1-1.11-.11,3.61,3.61,0,0,1-1-.35,2.91,2.91,0,0,1-.83-.62,2.6,2.6,0,0,1-.56-.95,3.71,3.71,0,0,1-.21-1.29,3.49,3.49,0,0,1,.22-1.29,3.09,3.09,0,0,1,.58-1,3.56,3.56,0,0,1,.94-.71,7.13,7.13,0,0,1,1.18-.51c.41-.13.88-.25,1.42-.37l2-.44a2.2,2.2,0,0,0,.89-.38.76.76,0,0,0,.26-.59,1.23,1.23,0,0,0-.59-1.15,2.74,2.74,0,0,0-1.42-.35,2,2,0,0,0-2.33,1.82l-3-.53a4,4,0,0,1,1.73-2.72,6.8,6.8,0,0,1,3.75-.88c3.34,0,5,1.44,5,4.3Zm-5.88,1.21a2.67,2.67,0,0,0,2.06-.87,3.65,3.65,0,0,0,.8-2.56l-2.83.8a3.52,3.52,0,0,0-1.19.49,1,1,0,0,0-.41.86,1.14,1.14,0,0,0,.44,1A1.83,1.83,0,0,0,1442.28,390.31Z" transform="translate(-68.36 -88.43)"/>
      </g>
    </g>
    <g>
      <path class="cls-16" d="M578.73,102.35H584v3.07h-8.74V88.66h3.48Z" transform="translate(-68.36 -88.43)"/>
      <path class="cls-16" d="M598.31,105.42,597.09,102h-7l-1.21,3.45h-3.57l6.17-16.76h4.26l6.17,16.76Zm-7.24-6.37h5l-2.49-7.11Z" transform="translate(-68.36 -88.43)"/>
      <path class="cls-16" d="M620.28,91.72h-6.22v3.81h5.51v3h-5.51v3.79h6.22v3.07h-9.72V88.66h9.72Z" transform="translate(-68.36 -88.43)"/>
      <path class="cls-16" d="M629.43,105.65a8.05,8.05,0,0,1-4.65-1.28,5.1,5.1,0,0,1-2.26-3.59l3.59-.82a3.11,3.11,0,0,0,1.11,2.12,3.66,3.66,0,0,0,2.35.73,3,3,0,0,0,1.83-.51,1.79,1.79,0,0,0,.7-1.53,1.62,1.62,0,0,0-.6-1.24,3.7,3.7,0,0,0-1.17-.76c-.39-.15-1-.36-1.89-.62l-.25-.08-1.07-.35c-.27-.09-.6-.22-1-.39a5.93,5.93,0,0,1-1-.49,5.37,5.37,0,0,1-.8-.6,3.22,3.22,0,0,1-.68-.77,4.26,4.26,0,0,1-.4-1,4.2,4.2,0,0,1-.16-1.2,4.52,4.52,0,0,1,.78-2.64A4.83,4.83,0,0,1,626,89a7.78,7.78,0,0,1,3-.56,9.67,9.67,0,0,1,2.19.24,8.2,8.2,0,0,1,1.95.75,4.89,4.89,0,0,1,1.56,1.38,5.16,5.16,0,0,1,.89,2l-3.36.83a2.73,2.73,0,0,0-3-2.4,3.27,3.27,0,0,0-1.87.49,1.66,1.66,0,0,0-.73,1.47c0,.61.41,1.11,1.22,1.49a19.89,19.89,0,0,0,2.33.8c.46.14.83.25,1.11.35s.65.22,1.08.4a7,7,0,0,1,1.06.52,7.64,7.64,0,0,1,.88.64,3.24,3.24,0,0,1,.75.84,4.91,4.91,0,0,1,.46,1,4.49,4.49,0,0,1,.18,1.3,5.21,5.21,0,0,1-.33,1.89,4.17,4.17,0,0,1-.93,1.42,5.14,5.14,0,0,1-1.38,1,6.64,6.64,0,0,1-1.71.58A9.75,9.75,0,0,1,629.43,105.65Z" transform="translate(-68.36 -88.43)"/>
      <path class="cls-16" d="M646.33,105.65a9.4,9.4,0,0,1-3.42-.61,8,8,0,0,1-2.72-1.72,7.61,7.61,0,0,1-1.78-2.72,9.39,9.39,0,0,1-.65-3.56,9.11,9.11,0,0,1,1.11-4.56,7.58,7.58,0,0,1,3.06-3,9.19,9.19,0,0,1,4.4-1,8.87,8.87,0,0,1,4.92,1.36,7.47,7.47,0,0,1,3,3.73L651,94.7a4.59,4.59,0,0,0-1.8-2.26,5.11,5.11,0,0,0-2.87-.81,4.94,4.94,0,0,0-3.67,1.46,6.12,6.12,0,0,0,0,7.9,4.94,4.94,0,0,0,3.66,1.46,5.08,5.08,0,0,0,2.87-.82,4.59,4.59,0,0,0,1.8-2.26l3.25,1.18a7.5,7.5,0,0,1-3,3.74A8.87,8.87,0,0,1,646.33,105.65Z" transform="translate(-68.36 -88.43)"/>
      <path class="cls-16" d="M668.32,105.42,667.1,102h-7l-1.22,3.45h-3.56l6.17-16.76h4.26l6.17,16.76Zm-7.24-6.37h5l-2.49-7.11Z" transform="translate(-68.36 -88.43)"/>
      <path class="cls-16" d="M677.88,102.35h5.25v3.07H674.4V88.66h3.48Z" transform="translate(-68.36 -88.43)"/>
      <path class="cls-16" d="M695.5,91.72h-6.21v3.81h5.51v3h-5.51v3.79h6.21v3.07h-9.72V88.66h9.72Z" transform="translate(-68.36 -88.43)"/>
      <path class="cls-16" d="M707.94,105.42,703.58,98h-1v7.38h-3.48V88.66h6.08a7,7,0,0,1,2.43.39,4.25,4.25,0,0,1,1.69,1.08,4.63,4.63,0,0,1,1,1.58,5.88,5.88,0,0,1,.32,2,4.12,4.12,0,0,1-.92,2.76A4.66,4.66,0,0,1,707,97.87l5,7.55Zm-5.37-13.87v4h2c1.74,0,2.61-.66,2.61-2a1.82,1.82,0,0,0-.64-1.48,3.05,3.05,0,0,0-2-.53Z" transform="translate(-68.36 -88.43)"/>
      <path class="cls-16" d="M726,105.42,724.74,102h-7l-1.21,3.45h-3.57l6.17-16.76h4.26l6.17,16.76Zm-7.24-6.37h5l-2.49-7.11Z" transform="translate(-68.36 -88.43)"/>
      <path class="cls-16" d="M738.21,105.42V88.66h6.06a9.3,9.3,0,0,1,3.5.61A6.44,6.44,0,0,1,750.28,91a7.25,7.25,0,0,1,1.48,2.64,11.76,11.76,0,0,1,0,6.85,7.41,7.41,0,0,1-1.48,2.64,6.44,6.44,0,0,1-2.51,1.71,9.51,9.51,0,0,1-3.5.6Zm3.48-3.07h2.41a4.14,4.14,0,0,0,3.39-1.36,7.58,7.58,0,0,0,0-7.9,4.11,4.11,0,0,0-3.39-1.37h-2.41Z" transform="translate(-68.36 -88.43)"/>
      <path class="cls-16" d="M765.24,91.72H759v3.81h5.51v3H759v3.79h6.21v3.07h-9.72V88.66h9.72Z" transform="translate(-68.36 -88.43)"/>
      <path class="cls-16" d="M778.48,102.35h5.25v3.07H775V88.66h3.48Z" transform="translate(-68.36 -88.43)"/>
      <path class="cls-16" d="M798.06,105.42,796.84,102h-7l-1.22,3.45H785l6.17-16.76h4.26l6.17,16.76Zm-7.24-6.37h5l-2.5-7.11Z" transform="translate(-68.36 -88.43)"/>
      <path class="cls-16" d="M821.52,105.42,820.3,102h-7L812,105.42h-3.56l6.17-16.76h4.26l6.17,16.76Zm-7.24-6.37h5l-2.49-7.11Z" transform="translate(-68.36 -88.43)"/>
      <path class="cls-16" d="M833.44,105.65a8.84,8.84,0,0,1-2.58-.36,6.23,6.23,0,0,1-2.07-1.1,5,5,0,0,1-1.4-1.91,7,7,0,0,1-.5-2.73V88.66h3.48V99.08a3.63,3.63,0,0,0,.84,2.65,3,3,0,0,0,2.23.85,3,3,0,0,0,2.25-.85,3.61,3.61,0,0,0,.85-2.65V88.66H840V99.55a6.85,6.85,0,0,1-.51,2.73,4.8,4.8,0,0,1-1.4,1.91,6.19,6.19,0,0,1-2.08,1.1A8.76,8.76,0,0,1,833.44,105.65Z" transform="translate(-68.36 -88.43)"/>
      <path class="cls-16" d="M853.73,88.66v3.06h-4v13.7h-3.44V91.72h-4V88.66Z" transform="translate(-68.36 -88.43)"/>
      <path class="cls-16" d="M863.19,105.65a9.11,9.11,0,0,1-4.4-1.05,7.6,7.6,0,0,1-3.06-3,9.88,9.88,0,0,1,0-9.1,7.64,7.64,0,0,1,3.06-3,9.83,9.83,0,0,1,8.8,0,7.61,7.61,0,0,1,3,3,9.88,9.88,0,0,1,0,9.1,7.54,7.54,0,0,1-3.06,3A9.07,9.07,0,0,1,863.19,105.65ZM859.53,101a5.33,5.33,0,0,0,7.33,0,6.18,6.18,0,0,0,0-7.91,5.33,5.33,0,0,0-7.33,0,6.15,6.15,0,0,0,0,7.91Z" transform="translate(-68.36 -88.43)"/>
      <path class="cls-16" d="M884.67,91.72h-6.22v3.81H884v3h-5.51v3.79h6.22v3.07H875V88.66h9.72Z" transform="translate(-68.36 -88.43)"/>
      <path class="cls-16" d="M893.82,105.65a8.05,8.05,0,0,1-4.65-1.28,5.14,5.14,0,0,1-2.26-3.59l3.6-.82a3.06,3.06,0,0,0,1.1,2.12,3.7,3.7,0,0,0,2.35.73,3,3,0,0,0,1.83-.51,1.74,1.74,0,0,0,.7-1.53,1.65,1.65,0,0,0-.59-1.24,3.85,3.85,0,0,0-1.18-.76c-.39-.15-1-.36-1.88-.62l-.26-.08-1.06-.35c-.28-.09-.61-.22-1-.39a5.78,5.78,0,0,1-1-.49,6,6,0,0,1-.81-.6,3,3,0,0,1-.67-.77,4.26,4.26,0,0,1-.41-1,4.2,4.2,0,0,1-.16-1.2,4.52,4.52,0,0,1,.78-2.64A4.89,4.89,0,0,1,890.38,89a7.82,7.82,0,0,1,3-.56,9.67,9.67,0,0,1,2.19.24,8.28,8.28,0,0,1,2,.75,4.89,4.89,0,0,1,1.56,1.38,5.3,5.3,0,0,1,.88,2l-3.36.83a2.73,2.73,0,0,0-3-2.4,3.24,3.24,0,0,0-1.86.49,1.64,1.64,0,0,0-.73,1.47c0,.61.4,1.11,1.21,1.49a19.89,19.89,0,0,0,2.33.8l1.12.35c.28.09.64.22,1.08.4a7.32,7.32,0,0,1,1,.52,6.87,6.87,0,0,1,.88.64,3.24,3.24,0,0,1,.75.84,4.46,4.46,0,0,1,.65,2.33,5.21,5.21,0,0,1-.34,1.89,4.15,4.15,0,0,1-.92,1.42,5,5,0,0,1-1.39,1,6.57,6.57,0,0,1-1.7.58A9.86,9.86,0,0,1,893.82,105.65Z" transform="translate(-68.36 -88.43)"/>
      <path class="cls-16" d="M913,88.66v3.06h-4v13.7h-3.44V91.72h-4V88.66Z" transform="translate(-68.36 -88.43)"/>
      <path class="cls-16" d="M915.58,105.42V88.66h3.48v16.76Z" transform="translate(-68.36 -88.43)"/>
      <path class="cls-16" d="M942.59,105.42h-3.46L938,92.79l-4.24,12.63h-2.25l-4.25-12.63-1.11,12.63h-3.48l1.4-16.76h5l3.57,10.52,3.62-10.52h5Z" transform="translate(-68.36 -88.43)"/>
      <path class="cls-16" d="M957.45,105.42,956.23,102h-7L948,105.42h-3.57l6.18-16.76h4.25L961,105.42Zm-7.24-6.37h5l-2.49-7.11Z" transform="translate(-68.36 -88.43)"/>
    </g>
  </g>
</svg>
